<?xml version="1.0" encoding="utf-8"?>
<!-- Generator: Adobe Illustrator 15.0.0, SVG Export Plug-In . SVG Version: 6.00 Build 0)  -->
<!DOCTYPE svg PUBLIC "-//W3C//DTD SVG 1.1//EN" "http://www.w3.org/Graphics/SVG/1.1/DTD/svg11.dtd">
<svg version="1.1" id="Layer_1" xmlns="http://www.w3.org/2000/svg" xmlns:xlink="http://www.w3.org/1999/xlink" x="0px" y="0px"
	 width="29.412px" height="26.16px" viewBox="0 0 29.412 26.16" enable-background="new 0 0 29.412 26.16" xml:space="preserve">
<g>
	<g>
		<path fill="#818181" d="M29.161,24.32l-13.4-23.56C15.471,0.25,15.091,0,14.71,0c-0.379,0-0.77,0.25-1.06,0.761L0.251,24.32
			c-0.59,1-0.101,1.84,1.07,1.84h26.77C29.261,26.16,29.751,25.32,29.161,24.32z M4.36,23.16L14.7,4.98l10.351,18.18H4.36z"/>
	</g>
	<g>
		<g>
			<path fill="#818181" d="M15.971,20.811c0,0.7-0.57,1.27-1.261,1.27c-0.699,0-1.27-0.569-1.27-1.27s0.57-1.26,1.27-1.26
				C15.4,19.551,15.971,20.11,15.971,20.811z"/>
		</g>
		<g>
			<path fill="#818181" d="M15.831,9.91v0.05l-0.36,7.521l-0.021,0.43c-0.02,0.37-0.31,0.66-0.67,0.67h-0.14
				c-0.36,0-0.649-0.3-0.67-0.67l-0.03-0.43v-0.01l-0.35-7.561v-0.02c0-0.59,0.46-1.04,1.05-1.04h0.13
				C15.36,8.851,15.831,9.32,15.831,9.91z"/>
		</g>
	</g>
</g>
</svg>
