<?xml version="1.0" encoding="utf-8"?>
<!-- Generator: Adobe Illustrator 15.0.0, SVG Export Plug-In . SVG Version: 6.00 Build 0)  -->
<!DOCTYPE svg PUBLIC "-//W3C//DTD SVG 1.1//EN" "http://www.w3.org/Graphics/SVG/1.1/DTD/svg11.dtd">
<svg version="1.1" id="Layer_1" xmlns="http://www.w3.org/2000/svg" xmlns:xlink="http://www.w3.org/1999/xlink" x="0px" y="0px"
	 width="29.213px" height="28.109px" viewBox="0 0 29.213 28.109" enable-background="new 0 0 29.213 28.109" xml:space="preserve">
<g>
	<g>
		<g>
			<g>
				<path fill="#818181" d="M28.283,16.07c0.124,0.409,0.257,0.866,0.4,1.313L28.283,16.07L28.283,16.07z"/>
			</g>
		</g>
		<g>
			<g>
				<path fill="#818181" d="M28.939,18.27l0.22,0.734C29.102,18.794,29.025,18.546,28.939,18.27L28.939,18.27z"/>
			</g>
		</g>
	</g>
	<g>
		<g>
			<g>
				<path fill="#818181" d="M9.201,16.07c0.123,0.409,0.256,0.866,0.399,1.313L9.201,16.07L9.201,16.07z"/>
			</g>
		</g>
	</g>
	<g>
		<g>
			<path fill="#818181" d="M29.159,19c-0.051-0.21-0.131-0.45-0.21-0.73l-0.23-0.779l-0.03-0.11l-0.21-0.67l-0.189-0.64l-3.65-12.12
				l-0.49-1.641h-8.109V1.42c0-0.78-0.641-1.42-1.431-1.42s-1.43,0.64-1.43,1.42v0.89h-8.11v0.03l-0.01-0.03l-0.54,1.83L0.509,17.49
				l-0.47,1.56c-0.21,0.81,0.439,1.46,1.47,1.46h7.12c1.05,0,1.7-0.68,1.45-1.51c-0.061-0.21-0.141-0.45-0.221-0.73L9.629,17.49
				l-0.021-0.11l-0.21-0.67l-0.189-0.64L5.719,4.49h7.46v20.76H8.949c-0.79,0-1.431,0.64-1.431,1.43s0.641,1.43,1.431,1.43h11.319
				c0.79,0,1.431-0.64,1.431-1.43s-0.641-1.43-1.431-1.43h-4.229V4.49h7.449l-3.899,13l-0.46,1.56c-0.21,0.81,0.43,1.46,1.46,1.46
				h7.13C28.769,20.51,29.409,19.83,29.159,19z M7.289,16.649l0.09,0.301c0.1,0.33,0.2,0.67,0.31,1l0.03,0.1l0.13,0.46h-5.56
				l0.14-0.45l2.64-8.8L7.289,16.649z M21.379,18.51l0.13-0.45l2.64-8.8l2.221,7.39l0.109,0.36c0.09,0.3,0.19,0.62,0.29,0.93
				l0.01,0.051l0.011,0.029l0.01,0.03l0.13,0.46H21.379z"/>
		</g>
	</g>
</g>
</svg>
