<?xml version="1.0" encoding="utf-8"?>
<!-- Generator: Adobe Illustrator 15.0.0, SVG Export Plug-In . SVG Version: 6.00 Build 0)  -->
<!DOCTYPE svg PUBLIC "-//W3C//DTD SVG 1.1//EN" "http://www.w3.org/Graphics/SVG/1.1/DTD/svg11.dtd">
<svg version="1.1" id="Layer_1" xmlns="http://www.w3.org/2000/svg" xmlns:xlink="http://www.w3.org/1999/xlink" x="0px" y="0px"
	 width="15.391px" height="30.77px" viewBox="0 0 15.391 30.77" enable-background="new 0 0 15.391 30.77" xml:space="preserve">
<g>
	<g>
		<path fill="#1D69B2" d="M13.34,0H2.06C0.92,0,0,0.92,0,2.05v26.67c0,0.05,0,0.101,0.01,0.15C0.09,29.9,0.9,30.7,1.91,30.76
			c0.05,0.01,0.09,0.01,0.15,0.01H13.34c0.051,0,0.101,0,0.141-0.01c1.021-0.06,1.83-0.87,1.899-1.89
			c0.011-0.051,0.011-0.102,0.011-0.15V2.05C15.39,0.92,14.46,0,13.34,0z M2.41,25.55h2.25v2.26H2.41V25.55z M6.569,27.81v-2.26
			h2.25v2.26H6.569z M12.979,27.81h-2.26v-2.26h2.26V27.81z M6.96,2.5C7.06,2.09,7.43,1.79,7.87,1.79c0.449,0,0.811,0.3,0.92,0.71
			C8.81,2.58,8.819,2.66,8.819,2.74c0,0.52-0.42,0.948-0.949,0.948c-0.521,0-0.95-0.43-0.95-0.948C6.92,2.66,6.93,2.58,6.96,2.5z
			 M2.5,4.87H12.89v18.75H2.5V4.87z"/>
	</g>
</g>
</svg>
