<?xml version="1.0" encoding="utf-8"?>
<!-- Generator: Adobe Illustrator 15.0.2, SVG Export Plug-In . SVG Version: 6.00 Build 0)  -->
<!DOCTYPE svg PUBLIC "-//W3C//DTD SVG 1.1//EN" "http://www.w3.org/Graphics/SVG/1.1/DTD/svg11.dtd">
<svg version="1.1" id="Layer_1" xmlns="http://www.w3.org/2000/svg" xmlns:xlink="http://www.w3.org/1999/xlink" x="0px" y="0px"
	 width="22.518px" height="22.412px" viewBox="-1.628 -6.419 22.518 22.412" enable-background="new -1.628 -6.419 22.518 22.412"
	 xml:space="preserve">
<path fill="#808080" d="M20.905,10.207c0,3.262-2.682,5.908-5.988,5.908H4.36c-3.307,0-5.988-2.646-5.988-5.908V-0.511
	c0-3.262,2.681-5.908,5.988-5.908h10.558c3.306,0,5.988,2.646,5.988,5.908V10.207z M18.612,0.521c0-2.565-2.219-4.647-4.955-4.647
	H5.62c-2.736,0-4.955,2.082-4.955,4.647v8.652c0,2.566,2.219,4.647,4.955,4.647h8.037c2.736,0,4.955-2.081,4.955-4.647V0.521z"/>
<g>
	<path fill="#676768" d="M14.131,6.953c0,1.289-1.047,2.334-2.337,2.334H7.468c-1.29,0-2.337-1.045-2.337-2.334V2.621
		c0-1.289,1.047-2.334,2.337-2.334h4.326c1.29,0,2.337,1.045,2.337,2.334V6.953z"/>
</g>
</svg>
