<?xml version="1.0" encoding="utf-8"?>
<!-- Generator: Adobe Illustrator 15.0.0, SVG Export Plug-In . SVG Version: 6.00 Build 0)  -->
<!DOCTYPE svg PUBLIC "-//W3C//DTD SVG 1.1//EN" "http://www.w3.org/Graphics/SVG/1.1/DTD/svg11.dtd">
<svg version="1.1" id="Layer_1" xmlns="http://www.w3.org/2000/svg" xmlns:xlink="http://www.w3.org/1999/xlink" x="0px" y="0px"
	 width="16.129px" height="16.124px" viewBox="0 0 16.129 16.124" enable-background="new 0 0 16.129 16.124" xml:space="preserve">
<g>
	<g>
		<path fill="#818181" d="M15.535,12.714c0.789,0.78,0.789,2.04,0,2.82c-0.391,0.399-0.9,0.59-1.41,0.59s-1.02-0.19-1.41-0.59
			l-4.65-4.65l-4.65,4.65c-0.389,0.399-0.9,0.59-1.41,0.59c-0.52,0-1.029-0.19-1.42-0.59c-0.779-0.78-0.779-2.04,0-2.82l4.65-4.649
			l-4.65-4.65c-0.779-0.78-0.779-2.051,0-2.83c0.781-0.779,2.051-0.779,2.83,0l4.65,4.65l4.65-4.65c0.779-0.779,2.039-0.779,2.83,0
			c0.779,0.779,0.779,2.05,0,2.83l-4.66,4.65L15.535,12.714z"/>
	</g>
</g>
</svg>
