<?xml version="1.0" encoding="utf-8"?>
<!-- Generator: Adobe Illustrator 15.0.0, SVG Export Plug-In . SVG Version: 6.00 Build 0)  -->
<!DOCTYPE svg PUBLIC "-//W3C//DTD SVG 1.1//EN" "http://www.w3.org/Graphics/SVG/1.1/DTD/svg11.dtd">
<svg version="1.1" id="Layer_1" xmlns="http://www.w3.org/2000/svg" xmlns:xlink="http://www.w3.org/1999/xlink" x="0px" y="0px"
	 width="28.008px" height="28.006px" viewBox="0 0 28.008 28.006" enable-background="new 0 0 28.008 28.006" xml:space="preserve">
<g>
	<g>
		<g>
			<g>
				<g>
					<path fill="#818181" d="M15.094,8.738c-1,0-1.836,0.242-2.508,0.721c-0.406,0.285-0.77,0.688-1.094,1.211
						c-0.332,0.539-0.527,1.051-0.59,1.539h6.066l-0.238,1.189h-5.969c-0.004,0.123-0.008,0.244-0.008,0.357
						c0,0.453,0.004,0.73,0.008,0.818h5.727l-0.246,1.189h-5.293c0.25,1.359,0.848,2.322,1.797,2.891
						c0.68,0.41,1.418,0.615,2.211,0.615c1.113,0,1.977-0.293,2.598-0.871v1.83c-0.738,0.346-1.559,0.516-2.453,0.516
						c-2.684,0-4.492-1.113-5.434-3.344c-0.191-0.451-0.352-0.996-0.488-1.637H7.82l0.246-1.189h0.938
						c-0.023-0.25-0.027-0.521-0.027-0.811c0-0.119,0-0.242,0.004-0.365H7.82l0.246-1.189h1.031c0.371-1.934,1.324-3.32,2.871-4.164
						c0.957-0.523,2.008-0.781,3.16-0.781c1.102,0,2.031,0.238,2.785,0.719l-0.359,1.654C16.832,9.041,16.012,8.738,15.094,8.738z"
						/>
				</g>
			</g>
		</g>
		<g>
			<path fill="#818181" d="M14.004,28.006C6.281,28.006,0,21.725,0,14.004S6.281,0,14.004,0s14.004,6.283,14.004,14.004
				S21.727,28.006,14.004,28.006z M14.004,1.682c-6.795,0-12.32,5.527-12.32,12.322c0,6.793,5.525,12.322,12.32,12.322
				c6.793,0,12.32-5.529,12.32-12.322C26.324,7.209,20.797,1.682,14.004,1.682z"/>
		</g>
	</g>
</g>
</svg>
