<?xml version="1.0" encoding="utf-8"?>
<!-- Generator: Adobe Illustrator 15.0.0, SVG Export Plug-In . SVG Version: 6.00 Build 0)  -->
<!DOCTYPE svg PUBLIC "-//W3C//DTD SVG 1.1//EN" "http://www.w3.org/Graphics/SVG/1.1/DTD/svg11.dtd">
<svg version="1.1" id="Layer_1" xmlns="http://www.w3.org/2000/svg" xmlns:xlink="http://www.w3.org/1999/xlink" x="0px" y="0px"
	 width="22.76px" height="27.061px" viewBox="0 0 22.76 27.061" enable-background="new 0 0 22.76 27.061" xml:space="preserve">
<g>
	<g>
		<path fill="#818181" d="M17.932,0H4.84C2.16,0,0,2.17,0,4.851V18.34c0,2.671,2.16,4.841,4.84,4.841h0.781
			c-0.32,2.3-3.531,3.729-3.531,3.729c0.75,0.09,2.951,0.15,3.65,0.15c5.1,0,6.83-2.601,7.381-3.88h4.811
			c2.658,0,4.828-2.17,4.828-4.841V4.851C22.76,2.17,20.59,0,17.932,0z M19.76,18.34c0,1.021-0.818,1.841-1.828,1.841H11.15
			l-0.779,1.81c-0.211,0.48-0.68,1.16-1.781,1.6l0.471-3.409H4.84C3.82,20.181,3,19.36,3,18.34V4.851C3,3.83,3.82,3,4.84,3h13.092
			c1.01,0,1.828,0.83,1.828,1.851V18.34z"/>
	</g>
	<g>
		<path fill="#818181" d="M6.746,14.595c-0.873,0-1.592,0.71-1.592,1.592c0,0.883,0.719,1.593,1.592,1.593
			c0.893,0,1.602-0.71,1.602-1.593C8.348,15.305,7.639,14.595,6.746,14.595L6.746,14.595z"/>
	</g>
	<g>
		<path fill="#818181" d="M11.377,14.595c-0.881,0-1.592,0.71-1.592,1.592c0,0.883,0.711,1.593,1.592,1.593
			c0.893,0,1.604-0.71,1.604-1.593C12.98,15.305,12.27,14.595,11.377,14.595L11.377,14.595z"/>
	</g>
	<g>
		<path fill="#818181" d="M16.02,14.595c-0.883,0-1.602,0.71-1.602,1.592c0,0.883,0.719,1.593,1.602,1.593
			c0.873,0,1.592-0.71,1.592-1.593C17.611,15.305,16.893,14.595,16.02,14.595L16.02,14.595z"/>
	</g>
</g>
</svg>
