<?xml version="1.0" encoding="utf-8"?>
<!-- Generator: Adobe Illustrator 15.0.0, SVG Export Plug-In . SVG Version: 6.00 Build 0)  -->
<!DOCTYPE svg PUBLIC "-//W3C//DTD SVG 1.1//EN" "http://www.w3.org/Graphics/SVG/1.1/DTD/svg11.dtd">
<svg version="1.1" id="Layer_1" xmlns="http://www.w3.org/2000/svg" xmlns:xlink="http://www.w3.org/1999/xlink" x="0px" y="0px"
	 width="22.602px" height="29.72px" viewBox="0 0 22.602 29.72" enable-background="new 0 0 22.602 29.72" xml:space="preserve">
<g>
	<g>
		<path fill="#818181" d="M15.029,0H2.158C0.971,0,0,0.969,0,2.158v19.994c0,1.189,0.971,2.16,2.158,2.16H3.4V5.764
			c0-1.189,0.963-2.16,2.158-2.16h11.629V2.158C17.188,0.969,16.217,0,15.029,0L15.029,0z"/>
	</g>
	<g>
		<path fill="#818181" d="M20.441,5.41H7.57c-1.189,0-2.16,0.971-2.16,2.16V27.56c0,1.191,0.971,2.16,2.16,2.16h12.871
			c1.18,0,2.16-0.969,2.16-2.16V7.57C22.602,6.381,21.621,5.41,20.441,5.41z M19.602,26.721H8.41V8.41h11.191V26.721z"/>
	</g>
</g>
</svg>
