<?xml version="1.0" encoding="utf-8"?>
<!-- Generator: Adobe Illustrator 15.0.0, SVG Export Plug-In . SVG Version: 6.00 Build 0)  -->
<!DOCTYPE svg PUBLIC "-//W3C//DTD SVG 1.1//EN" "http://www.w3.org/Graphics/SVG/1.1/DTD/svg11.dtd">
<svg version="1.1" id="Layer_1" xmlns="http://www.w3.org/2000/svg" xmlns:xlink="http://www.w3.org/1999/xlink" x="0px" y="0px"
	 width="20.539px" height="27.43px" viewBox="0 0 20.539 27.43" enable-background="new 0 0 20.539 27.43" xml:space="preserve">
<g>
	<g>
		<g>
			<g>
				<g>
					<path fill="#818181" d="M16.186,20.8c0,0.448-0.402,0.807-0.896,0.807H5.246c-0.492,0-0.895-0.358-0.895-0.807
						s0.402-0.815,0.895-0.815h10.043C15.783,19.984,16.186,20.352,16.186,20.8z"/>
				</g>
				<g>
					<path fill="#818181" d="M16.186,16.079c0,0.437-0.402,0.805-0.896,0.805H5.246c-0.492,0-0.895-0.368-0.895-0.805
						c0-0.448,0.402-0.815,0.895-0.815h10.043C15.783,15.264,16.186,15.631,16.186,16.079z"/>
				</g>
				<g>
					<path fill="#818181" d="M16.186,11.348c0,0.447-0.402,0.814-0.896,0.814H5.246c-0.492,0-0.895-0.367-0.895-0.814
						c0-0.439,0.402-0.807,0.895-0.807h10.043C15.783,10.541,16.186,10.908,16.186,11.348z"/>
				</g>
				<g>
					<path fill="#818181" d="M16.186,6.626c0,0.448-0.402,0.815-0.896,0.815H5.246c-0.492,0-0.895-0.367-0.895-0.815
						s0.402-0.807,0.895-0.807h10.043C15.783,5.819,16.186,6.178,16.186,6.626z"/>
				</g>
			</g>
		</g>
	</g>
	<g>
		<g>
			<path fill="#818181" d="M18.539,0H2C0.9,0,0,0.9,0,2v23.43c0,1.101,0.9,2,2,2h16.539c1.1,0,2-0.899,2-2V2
				C20.539,0.9,19.639,0,18.539,0z M17.539,24.43H3V3h14.539V24.43z"/>
		</g>
	</g>
</g>
</svg>
