<?xml version="1.0" encoding="utf-8"?>
<!-- Generator: Adobe Illustrator 15.0.0, SVG Export Plug-In . SVG Version: 6.00 Build 0)  -->
<!DOCTYPE svg PUBLIC "-//W3C//DTD SVG 1.1//EN" "http://www.w3.org/Graphics/SVG/1.1/DTD/svg11.dtd">
<svg version="1.1" id="Layer_1" xmlns="http://www.w3.org/2000/svg" xmlns:xlink="http://www.w3.org/1999/xlink" x="0px" y="0px"
	 width="26.891px" height="23.549px" viewBox="0 0 26.891 23.549" enable-background="new 0 0 26.891 23.549" xml:space="preserve">
<g>
	<g>
		<g>
			<g>
				<path fill="#818181" d="M13.7,11.648l12.94-11.13c0,0-3.44-0.79-4.891-0.42c-1.449,0.36-6.68,4.229-8.88,5.92
					c-0.96,0.74-1.64,2.03-2.09,3.23L8.83,7.648c0.521-0.78,0.82-1.71,0.811-2.72c-0.03-2.64-2.2-4.75-4.84-4.73
					c-2.641,0.04-4.75,2.2-4.721,4.841c0.03,2.649,2.19,4.76,4.83,4.729c0.9-0.01,1.74-0.27,2.45-0.71l2.61,2.14
					c0,0,0.04,0.19,0.109,0.49c-0.06,0.311-0.1,0.5-0.1,0.5l-2.55,2.2c-0.73-0.42-1.57-0.67-2.471-0.66
					c-2.64,0.03-4.76,2.2-4.729,4.84c0.01,0.71,0.17,1.38,0.46,1.98c-0.43,0.31-0.7,0.81-0.69,1.37c0.011,0.909,0.75,1.64,1.66,1.63
					c0.55-0.01,1.03-0.29,1.32-0.71c0.63,0.3,1.34,0.47,2.09,0.46c2.64-0.03,4.76-2.2,4.73-4.84c-0.011-1.011-0.341-1.94-0.881-2.7
					l1.921-1.641c0.479,1.19,1.18,2.46,2.17,3.181c2.229,1.64,7.54,5.39,9.01,5.72c1.45,0.33,4.87-0.55,4.87-0.55L13.7,11.648z
					 M4.881,7.269c-1.261,0.021-2.301-1-2.311-2.25c-0.01-1.27,1-2.3,2.26-2.32c1.261-0.01,2.301,1,2.32,2.261
					C7.16,6.219,6.15,7.259,4.881,7.269z M5.04,20.799c-1.26,0.02-2.3-0.99-2.31-2.26c-0.021-1.261,1-2.301,2.26-2.311
					c1.26-0.02,2.3,1,2.311,2.26C7.32,19.749,6.301,20.789,5.04,20.799z"/>
			</g>
		</g>
	</g>
</g>
</svg>
