<?xml version="1.0" encoding="utf-8"?>
<!-- Generator: Adobe Illustrator 15.0.0, SVG Export Plug-In . SVG Version: 6.00 Build 0)  -->
<!DOCTYPE svg PUBLIC "-//W3C//DTD SVG 1.1//EN" "http://www.w3.org/Graphics/SVG/1.1/DTD/svg11.dtd">
<svg version="1.1" id="Layer_1" xmlns="http://www.w3.org/2000/svg" xmlns:xlink="http://www.w3.org/1999/xlink" x="0px" y="0px"
	 width="22.602px" height="29.723px" viewBox="0 0 22.602 29.723" enable-background="new 0 0 22.602 29.723" xml:space="preserve">
<g>
	<g>
		<path fill="#818181" d="M15.027,0H2.158C0.971,0,0,0.969,0,2.158v19.994c0,1.189,0.971,2.16,2.158,2.16H3.4V5.764
			c0-1.189,0.961-2.16,2.158-2.16h11.627V2.158C17.186,0.969,16.217,0,15.027,0L15.027,0z"/>
	</g>
	<g>
		<g>
			<g>
				<g>
					<path fill="#818181" d="M20.441,5.41H7.572c-1.191,0-2.16,0.971-2.16,2.16v19.992c0,1.189,0.969,2.16,2.16,2.16h12.869
						c1.18,0,2.16-0.971,2.16-2.16V7.57C22.602,6.381,21.621,5.41,20.441,5.41z M19.602,26.721H8.412v-2.26h9.029
						c0.381,0,0.689-0.311,0.689-0.699c0-0.4-0.309-0.721-0.689-0.721H8.412V20.33h9.029c0.381,0,0.689-0.318,0.689-0.699
						c0-0.391-0.309-0.711-0.689-0.711H8.412v-2.709h9.029c0.381,0,0.689-0.32,0.689-0.711c0-0.389-0.309-0.709-0.689-0.709H8.412
						V12.08h9.029c0.381,0,0.689-0.318,0.689-0.709s-0.309-0.711-0.689-0.711H8.412V8.41h11.189V26.721z"/>
				</g>
			</g>
		</g>
	</g>
</g>
</svg>
