<?xml version="1.0" encoding="utf-8"?>
<!-- Generator: Adobe Illustrator 15.0.2, SVG Export Plug-In . SVG Version: 6.00 Build 0)  -->
<!DOCTYPE svg PUBLIC "-//W3C//DTD SVG 1.1//EN" "http://www.w3.org/Graphics/SVG/1.1/DTD/svg11.dtd">
<svg version="1.1" id="Layer_1" xmlns="http://www.w3.org/2000/svg" xmlns:xlink="http://www.w3.org/1999/xlink" x="0px" y="0px"
	 width="24.212px" height="25.102px" viewBox="0 -3.571 24.212 25.102" enable-background="new 0 -3.571 24.212 25.102"
	 xml:space="preserve">
<g>
	<g>
		<g>
			<path fill="#808080" d="M10.832-3.541c-5.98,0-10.841,2.229-10.841,4.979v15.08c0,2.75,4.86,4.98,10.841,4.98
				c1.59,0,3.1-0.16,4.46-0.439c-0.181-0.26-0.311-0.541-0.4-0.83c-0.07-0.189-0.11-0.391-0.13-0.59
				c-0.061-0.451-0.021-0.9,0.109-1.33c0.021-0.08,0.04-0.16,0.08-0.24c-1.13,0.26-2.51,0.43-4.119,0.43
				c-4.641,0-7.36-1.449-7.841-2.141V4.889c1.971,0.95,4.761,1.54,7.841,1.54c3.09,0,5.88-0.59,7.849-1.54v1.17
				c0.031,0,0.07,0.01,0.1,0.021c0.531,0.13,1.012,0.399,1.4,0.77c0.031,0.021,0.061,0.05,0.08,0.07l1.42,1.42v-6.9
				C21.681-1.311,16.821-3.541,10.832-3.541z M18.53,1.449c-0.449,0.44-1.58,1.07-3.359,1.5c-1.181,0.28-2.63,0.48-4.34,0.48
				c-1.721,0-3.171-0.2-4.341-0.48c-1.77-0.439-2.909-1.06-3.359-1.5l-0.011-0.01c0.74-0.72,3.4-1.979,7.711-1.979
				c4.319,0,6.98,1.26,7.71,1.979L18.53,1.449z"/>
		</g>
	</g>
	<g>
		<g>
			<g>
				<g>
					<path fill="#808080" d="M24.222,14.22c0,0.33-0.131,0.65-0.361,0.879l-2.59,2.59l-1.9,1.91l-0.52,0.51
						c-0.24,0.24-0.559,0.361-0.879,0.361c-0.131,0-0.26-0.021-0.381-0.061c-0.18-0.061-0.359-0.16-0.5-0.301
						c-0.141-0.139-0.24-0.299-0.289-0.479c-0.061-0.16-0.08-0.33-0.061-0.5c0-0.102,0.02-0.201,0.061-0.291
						c0.01-0.061,0.029-0.109,0.068-0.16c0.051-0.119,0.121-0.23,0.221-0.33l2.891-2.889h-9.241c-0.68,0-1.239-0.551-1.239-1.24
						c0-0.691,0.56-1.24,1.239-1.24h9.241l-2.891-2.89c-0.48-0.49-0.48-1.271,0-1.76c0.24-0.24,0.561-0.36,0.881-0.36
						c0.1,0,0.199,0.01,0.299,0.04c0.141,0.03,0.281,0.1,0.41,0.18c0.061,0.04,0.121,0.09,0.17,0.141l1.33,1.329l1.09,1.091
						l0.41,0.409l2.18,2.18C24.091,13.579,24.222,13.89,24.222,14.22z"/>
				</g>
			</g>
		</g>
	</g>
</g>
</svg>
