<?xml version="1.0" encoding="utf-8"?>
<!-- Generator: Adobe Illustrator 15.0.0, SVG Export Plug-In . SVG Version: 6.00 Build 0)  -->
<!DOCTYPE svg PUBLIC "-//W3C//DTD SVG 1.1//EN" "http://www.w3.org/Graphics/SVG/1.1/DTD/svg11.dtd">
<svg version="1.1" id="Layer_1" xmlns="http://www.w3.org/2000/svg" xmlns:xlink="http://www.w3.org/1999/xlink" x="0px" y="0px"
	 width="23.49px" height="27.43px" viewBox="0 0 23.49 27.43" enable-background="new 0 0 23.49 27.43" xml:space="preserve">
<g>
	<g>
		<g>
			<g>
				<path fill="#818181" d="M19.13,6.99l-5.57-5.57C12.779,0.64,11.25,0,10.15,0H2C0.9,0,0,0.9,0,2v23.43c0,1.101,0.9,2,2,2h13.119
					c-0.06-0.05-0.119-0.109-0.17-0.159C14.33,26.66,14,25.851,14,24.98c0-0.19,0.02-0.37,0.05-0.551H3V3h6.56v6.46
					c0,0.83,0.671,1.5,1.5,1.5h6.479v0.78c0.761,0.06,1.451,0.38,1.99,0.93l1.01,1.01v-3.27C20.539,9.311,19.9,7.771,19.13,6.99z
					 M12.56,7.96v-3.3l3.29,3.3H12.56z"/>
			</g>
		</g>
	</g>
	<g>
		<g>
			<g>
				<path fill="#818181" d="M23.49,19.97c0,0.33-0.131,0.65-0.36,0.881l-0.54,0.539l-2.051,2.051l-2.42,2.42
					c-0.239,0.24-0.56,0.359-0.879,0.359c-0.32,0-0.641-0.119-0.881-0.359c-0.14-0.141-0.24-0.3-0.289-0.48
					c-0.09-0.26-0.09-0.54,0-0.79c0.01-0.06,0.029-0.109,0.069-0.16c0.05-0.119,0.12-0.229,0.22-0.329l1.18-1.181l1.531-1.53
					l0.18-0.18H9.01c-0.68,0-1.24-0.55-1.24-1.24c0-0.689,0.561-1.239,1.24-1.239h10.24l-1.711-1.71l-1.18-1.181
					c-0.479-0.489-0.479-1.27,0-1.76c0.24-0.24,0.561-0.36,0.881-0.36c0.1,0,0.199,0.011,0.299,0.04
					c0.211,0.051,0.421,0.16,0.58,0.32l2.42,2.42l2.591,2.59C23.359,19.33,23.49,19.64,23.49,19.97z"/>
			</g>
		</g>
	</g>
</g>
</svg>
