<?xml version="1.0" encoding="utf-8"?>
<!-- Generator: Adobe Illustrator 15.0.0, SVG Export Plug-In . SVG Version: 6.00 Build 0)  -->
<!DOCTYPE svg PUBLIC "-//W3C//DTD SVG 1.1//EN" "http://www.w3.org/Graphics/SVG/1.1/DTD/svg11.dtd">
<svg version="1.1" id="Layer_1" xmlns="http://www.w3.org/2000/svg" xmlns:xlink="http://www.w3.org/1999/xlink" x="0px" y="0px"
	 width="28.059px" height="28.068px" viewBox="0 0 28.059 28.068" enable-background="new 0 0 28.059 28.068" xml:space="preserve">
<g>
	<path fill="#818181" d="M14.039,2.5c6.352,0,11.52,5.177,11.52,11.539c0,2.562-0.816,4.982-2.365,7.002
		c-2.199,2.877-5.535,4.527-9.154,4.527c-3.623,0-6.963-1.65-9.168-4.537C3.32,19.021,2.5,16.604,2.5,14.039
		C2.5,7.677,7.678,2.5,14.039,2.5 M14.039,0C6.281,0,0,6.29,0,14.039c0,3.2,1.07,6.16,2.891,8.52c2.561,3.35,6.6,5.51,11.148,5.51
		c4.531,0,8.58-2.16,11.141-5.51c1.809-2.359,2.879-5.319,2.879-8.52C28.059,6.29,21.789,0,14.039,0L14.039,0z"/>
	<path fill-rule="evenodd" clip-rule="evenodd" fill="#818181" d="M15.045,11.487h2.973l-0.193,2.711h-2.779v9.41h-3.502v-9.41
		H9.662v-2.711h1.881V9.673c0-0.799,0.02-2.037,0.605-2.808c0.604-0.799,1.453-1.355,2.896-1.355c2.359,0,3.354,0.341,3.354,0.341
		l-0.467,2.76c0,0-0.781-0.214-1.514-0.214c-0.73,0-1.373,0.253-1.373,0.984V11.487z"/>
</g>
</svg>
