<?xml version="1.0" encoding="utf-8"?>
<!-- Generator: Adobe Illustrator 15.0.2, SVG Export Plug-In . SVG Version: 6.00 Build 0)  -->
<!DOCTYPE svg PUBLIC "-//W3C//DTD SVG 1.1//EN" "http://www.w3.org/Graphics/SVG/1.1/DTD/svg11.dtd">
<svg version="1.1" id="Layer_1" xmlns="http://www.w3.org/2000/svg" xmlns:xlink="http://www.w3.org/1999/xlink" x="0px" y="0px"
	 width="18.253px" height="28.898px" viewBox="0 -7.368 18.253 28.898" enable-background="new 0 -7.368 18.253 28.898"
	 xml:space="preserve">
<g>
	<path fill="#808080" d="M16.749,21.522c-0.371,0-0.736-0.138-1.02-0.398l-6.603-6.107l-6.604,6.107
		c-0.438,0.404-1.073,0.513-1.619,0.272c-0.547-0.238-0.899-0.778-0.899-1.374V-5.861c0-0.828,0.672-1.5,1.5-1.5h15.245
		c0.828,0,1.5,0.672,1.5,1.5v25.883c0,0.596-0.354,1.136-0.9,1.374C17.157,21.481,16.952,21.522,16.749,21.522z M9.126,11.473
		c0.365,0,0.731,0.133,1.019,0.399l5.104,4.72V-4.361H3.004v20.953l5.104-4.72C8.395,11.606,8.761,11.473,9.126,11.473z"/>
</g>
</svg>
