<?xml version="1.0" encoding="utf-8"?>
<!-- Generator: Adobe Illustrator 15.0.0, SVG Export Plug-In . SVG Version: 6.00 Build 0)  -->
<!DOCTYPE svg PUBLIC "-//W3C//DTD SVG 1.1//EN" "http://www.w3.org/Graphics/SVG/1.1/DTD/svg11.dtd">
<svg version="1.1" id="Layer_1" xmlns="http://www.w3.org/2000/svg" xmlns:xlink="http://www.w3.org/1999/xlink" x="0px" y="0px"
	 width="24.066px" height="24.354px" viewBox="0 0 24.066 24.354" enable-background="new 0 0 24.066 24.354" xml:space="preserve">
<g>
	<g>
		<g>
			<g>
				<path fill="#818181" d="M24.066,3.541c0,0.55-0.449,1-1,1H1c-0.551,0-1-0.45-1-1V1c0-0.55,0.449-1,1-1h22.066
					c0.551,0,1,0.45,1,1V3.541z"/>
			</g>
		</g>
	</g>
	<g>
		<g>
			<g>
				<path fill="#818181" d="M24.066,23.354c0,0.55-0.449,1-1,1H1c-0.551,0-1-0.45-1-1v-2.54c0-0.55,0.449-1,1-1h22.066
					c0.551,0,1,0.45,1,1V23.354z"/>
			</g>
		</g>
	</g>
	<g>
		<g>
			<g>
				<path fill="#818181" d="M17.365,10.142c0,0.55-0.449,1-1,1H1c-0.551,0-1-0.45-1-1V7.605c0-0.55,0.449-1,1-1h15.365
					c0.551,0,1,0.45,1,1V10.142z"/>
			</g>
		</g>
	</g>
	<g>
		<g>
			<g>
				<path fill="#818181" d="M20.529,16.749c0,0.55-0.449,1-1,1H1c-0.551,0-1-0.45-1-1v-2.54c0-0.55,0.449-1,1-1h18.529
					c0.551,0,1,0.45,1,1V16.749z"/>
			</g>
		</g>
	</g>
</g>
</svg>
