<?xml version="1.0" encoding="utf-8"?>
<!-- Generator: Adobe Illustrator 15.0.2, SVG Export Plug-In . SVG Version: 6.00 Build 0)  -->
<!DOCTYPE svg PUBLIC "-//W3C//DTD SVG 1.1//EN" "http://www.w3.org/Graphics/SVG/1.1/DTD/svg11.dtd">
<svg version="1.1" id="Layer_1" xmlns="http://www.w3.org/2000/svg" xmlns:xlink="http://www.w3.org/1999/xlink" x="0px" y="0px"
	 width="24.476px" height="22.465px" viewBox="0 -0.935 24.476 22.465" enable-background="new 0 -0.935 24.476 22.465"
	 xml:space="preserve">
<g>
	<g>
		<path fill="#808080" d="M22.993,2.112H3.642c-0.828,0-1.5-0.672-1.5-1.5s0.672-1.5,1.5-1.5h19.351c0.828,0,1.5,0.672,1.5,1.5
			S23.821,2.112,22.993,2.112z"/>
	</g>
	<g>
		<g>
			<path fill="#808080" d="M22.993,8.569H10.517c-0.828,0-1.5-0.672-1.5-1.5s0.672-1.5,1.5-1.5h12.476c0.828,0,1.5,0.672,1.5,1.5
				S23.821,8.569,22.993,8.569z"/>
		</g>
		<g>
			<path fill="#808080" d="M22.993,15.026H10.517c-0.828,0-1.5-0.672-1.5-1.5s0.672-1.5,1.5-1.5h12.476c0.828,0,1.5,0.672,1.5,1.5
				S23.821,15.026,22.993,15.026z"/>
		</g>
	</g>
	<g>
		<path fill="#808080" d="M22.993,21.483H3.642c-0.828,0-1.5-0.672-1.5-1.5s0.672-1.5,1.5-1.5h19.351c0.828,0,1.5,0.672,1.5,1.5
			S23.821,21.483,22.993,21.483z"/>
	</g>
	<g>
		<path fill="#808080" d="M1.482,16.772c-0.384,0-0.768-0.146-1.061-0.439c-0.586-0.586-0.586-1.535,0-2.121l3.973-3.973
			L0.421,6.267c-0.586-0.586-0.586-1.535,0-2.121s1.535-0.586,2.121,0l5.033,5.033c0.586,0.586,0.586,1.535,0,2.121l-5.033,5.033
			C2.25,16.626,1.866,16.772,1.482,16.772z"/>
	</g>
</g>
</svg>
