<?xml version="1.0" encoding="utf-8"?>
<!-- Generator: Adobe Illustrator 18.0.0, SVG Export Plug-In . SVG Version: 6.00 Build 0)  -->
<!DOCTYPE svg PUBLIC "-//W3C//DTD SVG 1.1//EN" "http://www.w3.org/Graphics/SVG/1.1/DTD/svg11.dtd">
<svg version="1.1" xmlns="http://www.w3.org/2000/svg" xmlns:xlink="http://www.w3.org/1999/xlink" x="0px" y="0px"
	 viewBox="0 0 30.3 30.3" enable-background="new 0 0 30.3 30.3" xml:space="preserve">
<g id="diseño">
	<g>
		<g>
			<polyline fill="none" points="15.1,15.1 15.1,15.1 15.1,15.1 			"/>
			<line fill="none" x1="15.1" y1="15.1" x2="15.1" y2="15.1"/>
			<path fill="#808081" d="M4.4,4.4c-1.8,1.8-3,3.9-3.7,6.1c-0.9,3-0.9,6.2,0,9.2c0.7,2.2,1.9,4.4,3.7,6.1c1.8,1.8,3.9,3,6.1,3.7
				c3,0.9,6.2,0.9,9.2,0c2.2-0.7,4.4-1.9,6.1-3.7c1.8-1.8,3-3.9,3.7-6.1c0.9-3,0.9-6.2,0-9.2c-0.7-2.2-1.9-4.3-3.7-6.1
				c-1.8-1.8-3.9-3-6.1-3.7c-3-0.9-6.2-0.9-9.2,0C8.3,1.4,6.2,2.7,4.4,4.4z M17.9,6.4c-1.8-0.6-3.8-0.6-5.6,0l-1.2-3.9
				c2.6-0.8,5.4-0.8,8.1,0L17.9,6.4z M27.9,19.2l-3.9-1.2c0.6-1.8,0.6-3.8,0-5.6l3.9-1.2C28.7,13.7,28.7,16.6,27.9,19.2z M12.3,23.9
				c1.8,0.6,3.8,0.6,5.6,0l1.2,3.9c-2.6,0.8-5.4,0.8-8.1,0L12.3,23.9z M8.1,17.4c-0.5-1.5-0.5-3,0-4.5c0.3-1.1,0.9-2.1,1.8-3
				c0.9-0.9,1.9-1.5,3-1.8c1.5-0.5,3-0.5,4.5,0c1.1,0.3,2.1,1,3,1.8c0.9,0.9,1.5,1.9,1.8,3c0.5,1.5,0.5,3,0,4.5
				c-0.3,1.1-1,2.1-1.8,3c-0.9,0.9-1.9,1.5-3,1.8c-1.5,0.5-3,0.5-4.5,0c-1.1-0.3-2.1-1-3-1.8C9,19.5,8.4,18.5,8.1,17.4z M2.4,11.1
				l3.9,1.2c-0.6,1.8-0.6,3.8,0,5.6l-3.9,1.2C1.6,16.5,1.6,13.7,2.4,11.1z"/>
			<polyline fill="none" points="15.1,15.1 15.1,15.1 15.1,15.1 			"/>
		</g>
	</g>
</g>
<g id="medidas">
</g>
<g id="typo">
</g>
</svg>
