<?xml version="1.0" encoding="utf-8"?>
<!-- Generator: Adobe Illustrator 15.0.0, SVG Export Plug-In . SVG Version: 6.00 Build 0)  -->
<!DOCTYPE svg PUBLIC "-//W3C//DTD SVG 1.1//EN" "http://www.w3.org/Graphics/SVG/1.1/DTD/svg11.dtd">
<svg version="1.1" id="Layer_1" xmlns="http://www.w3.org/2000/svg" xmlns:xlink="http://www.w3.org/1999/xlink" x="0px" y="0px"
	 width="30.436px" height="25.78px" viewBox="0 0 30.436 25.78" enable-background="new 0 0 30.436 25.78" xml:space="preserve">
<g>
	<g>
		<g>
			<g>
				<g>
					<path fill="#818181" d="M22.998,13.432c0,0.578-0.469,1.047-1.047,1.047h-4.918c-0.303,0-0.586-0.137-0.771-0.342
						c-0.197-0.178-0.312-0.422-0.312-0.705V7.074c0-0.518,0.42-0.947,0.947-0.947c0.529,0,0.949,0.43,0.949,0.947v5.311h4.105
						C22.529,12.385,22.998,12.855,22.998,13.432z"/>
				</g>
			</g>
		</g>
	</g>
	<g>
		<path fill="#818181" d="M30.436,12.885c0,7.111-5.785,12.896-12.885,12.896c-1.744,0-3.43-0.34-5.027-1.013
			c-0.748-0.321-1.1-1.179-0.779-1.928c0.312-0.751,1.17-1.101,1.93-0.779c1.227,0.516,2.531,0.779,3.877,0.779
			c5.482,0,9.943-4.461,9.943-9.955c0-5.483-4.461-9.944-9.943-9.944c-5.436,0-9.857,4.364-9.955,9.77l1.957-1.958
			c0.506-0.507,1.346-0.507,1.852,0c0.516,0.517,0.516,1.345,0,1.861L6.826,17.19c-0.242,0.244-0.584,0.39-0.926,0.39
			c-0.35,0-0.682-0.146-0.934-0.39l-4.578-4.577c-0.518-0.517-0.518-1.345,0-1.861c0.516-0.507,1.344-0.507,1.859,0l2.436,2.436
			c-0.02-0.097-0.029-0.205-0.029-0.303C4.654,5.785,10.439,0,17.551,0C24.65,0,30.436,5.785,30.436,12.885z"/>
	</g>
</g>
</svg>
