<?xml version="1.0" encoding="utf-8"?>
<!-- Generator: Adobe Illustrator 15.0.0, SVG Export Plug-In . SVG Version: 6.00 Build 0)  -->
<!DOCTYPE svg PUBLIC "-//W3C//DTD SVG 1.1//EN" "http://www.w3.org/Graphics/SVG/1.1/DTD/svg11.dtd">
<svg version="1.1" id="Layer_1" xmlns="http://www.w3.org/2000/svg" xmlns:xlink="http://www.w3.org/1999/xlink" x="0px" y="0px"
	 width="23.5px" height="27.431px" viewBox="0 0 23.5 27.431" enable-background="new 0 0 23.5 27.431" xml:space="preserve">
<g>
	<g>
		<g>
			<path fill="#818181" d="M19.131,6.99l-5.57-5.58C12.79,0.641,11.25,0,10.15,0H2C0.9,0,0,0.9,0,2v23.431c0,1.1,0.9,2,2,2h9.9
				c-0.061-0.05-0.12-0.11-0.17-0.16l-2.83-2.84H3V3h6.57v6.46c0,0.83,0.67,1.5,1.5,1.5h6.47v5.771h3v-6.32
				C20.54,9.311,19.91,7.771,19.131,6.99z M12.57,7.96v-3.3l3.279,3.3H12.57z"/>
		</g>
	</g>
	<g>
		<g>
			<g>
				<path fill="#818181" d="M23.5,19.971c0,0.68-0.56,1.239-1.24,1.239H12.01l1.061,1.061l1.84,1.83c0.1,0.1,0.18,0.21,0.23,0.33
					c0.229,0.46,0.149,1.04-0.23,1.43c-0.25,0.24-0.57,0.36-0.88,0.36c-0.319,0-0.64-0.12-0.88-0.36l-0.08-0.08l-1.35-1.35
					l-3.58-3.58c-0.24-0.24-0.371-0.55-0.371-0.88s0.131-0.65,0.371-0.88l5.01-5.011c0.24-0.239,0.561-0.37,0.88-0.37
					c0.31,0,0.63,0.131,0.88,0.37c0.48,0.48,0.48,1.271,0,1.761l-2.891,2.89h10.24C22.94,18.73,23.5,19.28,23.5,19.971z"/>
			</g>
		</g>
	</g>
</g>
</svg>
