<?xml version="1.0" encoding="utf-8"?>
<!-- Generator: Adobe Illustrator 15.0.0, SVG Export Plug-In . SVG Version: 6.00 Build 0)  -->
<!DOCTYPE svg PUBLIC "-//W3C//DTD SVG 1.1//EN" "http://www.w3.org/Graphics/SVG/1.1/DTD/svg11.dtd">
<svg version="1.1" id="Layer_1" xmlns="http://www.w3.org/2000/svg" xmlns:xlink="http://www.w3.org/1999/xlink" x="0px" y="0px"
	 width="11.469px" height="27.27px" viewBox="0 0 11.469 27.27" enable-background="new 0 0 11.469 27.27" xml:space="preserve">
<g>
	<g>
		<g>
			<g>
				<path fill="#818181" d="M10.469,23.689c-0.67,0-1.1-0.039-1.289-0.119s-0.33-0.2-0.4-0.351c-0.08-0.149-0.109-0.55-0.109-1.21
					V8.29H6.91C6.24,8.63,5.67,8.88,5.209,9.03C4.51,9.25,3.709,9.439,2.811,9.6C1.91,9.77,0.969,9.87,0,9.92v3.49h2.74v8.87
					c0,0.479-0.041,0.8-0.131,0.96c-0.08,0.16-0.209,0.27-0.391,0.34c-0.18,0.07-0.6,0.109-1.238,0.109H0v3.58h11.469v-3.58H10.469z
					 M8.061,0.99C7.4,0.33,6.6,0,5.66,0c-0.9,0-1.701,0.34-2.381,1.01C2.6,1.689,2.26,2.49,2.26,3.42c0,0.94,0.33,1.74,1,2.4
					c0.66,0.67,1.459,1,2.4,1c0.939,0,1.74-0.33,2.4-1c0.67-0.66,1-1.46,1-2.42C9.061,2.46,8.73,1.66,8.061,0.99z"/>
			</g>
		</g>
	</g>
</g>
</svg>
