<?xml version="1.0" encoding="utf-8"?>
<!-- Generator: Adobe Illustrator 15.0.0, SVG Export Plug-In . SVG Version: 6.00 Build 0)  -->
<!DOCTYPE svg PUBLIC "-//W3C//DTD SVG 1.1//EN" "http://www.w3.org/Graphics/SVG/1.1/DTD/svg11.dtd">
<svg version="1.1" id="Layer_1" xmlns="http://www.w3.org/2000/svg" xmlns:xlink="http://www.w3.org/1999/xlink" x="0px" y="0px"
	 width="26.254px" height="26.254px" viewBox="0 0 26.254 26.254" enable-background="new 0 0 26.254 26.254" xml:space="preserve">
<g>
	<g>
		<g>
			<g>
				<path fill="#818181" d="M4.369,6.953h8.746V8.43H5.961v3.658h6.611v1.395H5.961v4.088h7.277v1.434H4.369V6.953z"/>
			</g>
			<g>
				<path fill="#818181" d="M19.932,13.688c0.34-0.043,0.566-0.188,0.682-0.426c0.064-0.133,0.102-0.322,0.102-0.568
					c0-0.506-0.182-0.873-0.537-1.1c-0.359-0.229-0.873-0.342-1.535-0.342c-0.77,0-1.318,0.209-1.639,0.627
					c-0.182,0.23-0.299,0.572-0.354,1.031h-1.377c0.025-1.086,0.379-1.842,1.053-2.268c0.674-0.424,1.455-0.639,2.35-0.639
					c1.029,0,1.869,0.195,2.514,0.592c0.637,0.393,0.959,1.006,0.959,1.838v5.062c0,0.152,0.031,0.277,0.094,0.367
					c0.064,0.094,0.197,0.141,0.4,0.141c0.064,0,0.137-0.004,0.219-0.012s0.168-0.021,0.262-0.037v1.092
					c-0.229,0.064-0.402,0.105-0.523,0.121c-0.121,0.018-0.285,0.027-0.492,0.027c-0.508,0-0.879-0.184-1.109-0.543
					c-0.117-0.191-0.203-0.461-0.25-0.812c-0.305,0.395-0.736,0.736-1.297,1.023c-0.566,0.293-1.188,0.438-1.863,0.438
					c-0.816,0-1.48-0.25-2-0.742c-0.516-0.494-0.775-1.113-0.775-1.855c0-0.814,0.256-1.445,0.764-1.895
					c0.508-0.447,1.176-0.723,2.004-0.826L19.932,13.688z M16.822,17.676c0.314,0.246,0.682,0.369,1.107,0.369
					c0.521,0,1.021-0.121,1.514-0.361c0.816-0.398,1.227-1.049,1.227-1.957v-1.189c-0.18,0.115-0.41,0.213-0.695,0.289
					c-0.283,0.08-0.561,0.133-0.836,0.166l-0.891,0.113c-0.535,0.07-0.938,0.184-1.209,0.336c-0.453,0.256-0.684,0.668-0.684,1.229
					C16.355,17.096,16.51,17.43,16.822,17.676z"/>
			</g>
		</g>
		<g>
			<path fill="#818181" d="M21.643,26.254H4.611C2.07,26.254,0,24.184,0,21.643V4.613C0,2.068,2.07,0,4.611,0h17.031
				c2.543,0,4.611,2.068,4.611,4.613v17.029C26.254,24.184,24.186,26.254,21.643,26.254z M4.611,1.846
				c-1.525,0-2.766,1.238-2.766,2.768v17.029c0,1.523,1.24,2.768,2.766,2.768h17.031c1.525,0,2.766-1.244,2.766-2.768V4.613
				c0-1.529-1.24-2.768-2.766-2.768H4.611z"/>
		</g>
	</g>
</g>
</svg>
