<?xml version="1.0" encoding="utf-8"?>
<!-- Generator: Adobe Illustrator 15.0.2, SVG Export Plug-In . SVG Version: 6.00 Build 0)  -->
<!DOCTYPE svg PUBLIC "-//W3C//DTD SVG 1.1//EN" "http://www.w3.org/Graphics/SVG/1.1/DTD/svg11.dtd">
<svg version="1.1" id="Layer_1" xmlns="http://www.w3.org/2000/svg" xmlns:xlink="http://www.w3.org/1999/xlink" x="0px" y="0px"
	 width="24.37px" height="25.998px" viewBox="0 -4.468 24.37 25.998" enable-background="new 0 -4.468 24.37 25.998"
	 xml:space="preserve">
<g>
	<path fill="#878383" d="M8.702,10.635c0,0.613,0.498,1.11,1.113,1.11h3.549c0.613,0,1.111-0.497,1.111-1.11v-8.53
		c0-0.614-0.498-1.11-1.111-1.11H9.815c-0.615,0-1.113,0.496-1.113,1.11V10.635z"/>
	<g>
		<path fill="#878383" d="M1.045,15.307c0-0.475,0.426-0.853,0.947-0.853H3.04v-2.597H1.993c-0.521,0-0.947-0.389-0.947-0.853
			c0-0.472,0.426-0.853,0.947-0.853H3.04V7.342H1.993c-0.521,0-0.947-0.389-0.947-0.852c0-0.473,0.426-0.853,0.947-0.853H3.04V3.395
			c0-1.074-0.67-0.986-1.523-0.986c-0.699,0-1.559-0.093-1.559,0.986v13.189c0,0.852,0.693,1.541,1.543,1.541
			c0.852,0,1.539-0.689,1.539-1.541v-0.425H1.993C1.471,16.159,1.045,15.771,1.045,15.307z"/>
	</g>
	<path fill="#878383" d="M22.521-4.469H5.633c-0.123,0-0.244,0.015-0.361,0.037C4.403-4.259,3.741-3.492,3.741-2.575v3.369V16.85
		c-0.025,1.047-0.623,1.682-1.789,1.87c-0.057,0.004-0.115,0.011-0.17,0.025c-1.094,0.244-1.391,0.988-1.312,1.552
		c0.115,0.82,0.82,1.234,2.104,1.234c0.074,0,0.148,0,0.225-0.004c0.025,0.001,0.049,0,0.076,0.004l4.779-0.03
		c0.01,0,0.018-0.006,0.027-0.006h14.84c0.125,0,0.246-0.015,0.365-0.036c0.865-0.175,1.527-0.939,1.527-1.857v-3.37V-2.575l0,0
		C24.413-3.616,23.56-4.469,22.521-4.469z M21.573,14.502c-0.012,0-0.012,0-0.012,0H9.792c-0.521,0-0.947,0.381-0.947,0.852
		c0,0.465,0.426,0.853,0.947,0.853h11.764c0,0,0.006,0,0.018,0v2.448h-1.762l0,0H6.581v-3.917c0.012,0,0.012,0,0.012,0L6.6,0.424
		c0,0-0.008,0-0.02,0v-2.053h2.99h0.002h12v2.771c-0.008,0-0.012,0-0.012,0h-4.787c-0.52,0-0.947,0.388-0.947,0.853
		c0,0.473,0.428,0.853,0.947,0.853h4.781c0,0,0.01,0,0.018,0v2.837c-0.008,0-0.012,0-0.012,0h-4.801
		c-0.523,0-0.949,0.38-0.949,0.853c0,0.463,0.426,0.852,0.949,0.852h4.795c0,0,0.01,0,0.018,0v2.813c-0.008,0-0.012,0-0.012,0
		h-4.801c-0.523,0-0.949,0.378-0.949,0.853c0,0.463,0.426,0.851,0.949,0.851h4.795c0,0,0.006,0,0.018,0V14.502z"/>
</g>
</svg>
