<?xml version="1.0" encoding="utf-8"?>
<!-- Generator: Adobe Illustrator 15.0.0, SVG Export Plug-In . SVG Version: 6.00 Build 0)  -->
<!DOCTYPE svg PUBLIC "-//W3C//DTD SVG 1.1//EN" "http://www.w3.org/Graphics/SVG/1.1/DTD/svg11.dtd">
<svg version="1.1" id="Layer_1" xmlns="http://www.w3.org/2000/svg" xmlns:xlink="http://www.w3.org/1999/xlink" x="0px" y="0px"
	 width="28.988px" height="23.6px" viewBox="0 0 28.988 23.6" enable-background="new 0 0 28.988 23.6" xml:space="preserve">
<g>
	<g>
		<path fill="#818181" d="M17.068,19.317c-0.85,0.189-1.709,0.279-2.58,0.279c-5.029,0-9.559-3.17-11.33-7.8
			c0.551-1.43,1.391-2.78,2.451-3.94L3.488,5.737C1.898,7.437,0.68,9.497,0,11.797c1.85,6.24,7.639,10.8,14.488,10.8
			c1.762,0,3.441-0.3,5.012-0.85L17.068,19.317z M14.488,0.997c-1.75,0-3.43,0.3-5,0.85l2.432,2.431
			c0.84-0.19,1.699-0.28,2.568-0.28c5.031,0,9.57,3.17,11.34,7.8c-0.559,1.45-1.398,2.8-2.449,3.94l2.121,2.119
			c1.6-1.699,2.809-3.76,3.488-6.06C27.139,5.557,21.35,0.997,14.488,0.997z"/>
	</g>
	<g>
		<path fill="#818181" d="M14.77,17.02c-0.09,0.021-0.18,0.021-0.27,0.021c-2.9,0-5.25-2.34-5.25-5.24c0-0.09,0-0.19,0.02-0.28
			L14.77,17.02z"/>
	</g>
	<g>
		<path fill="#818181" d="M19.74,11.8c0,0.09,0,0.19-0.02,0.28l-5.5-5.5C14.311,6.56,14.41,6.56,14.5,6.56
			C17.391,6.56,19.74,8.899,19.74,11.8z"/>
	</g>
	<g>
		<g>
			<g>
				<path fill="#818181" d="M25.859,23.16c-0.289,0.29-0.68,0.439-1.059,0.439c-0.391,0-0.771-0.149-1.061-0.439l-2.27-2.271
					l-2.25-2.25l-2.23-2.229l-7.1-7.101l-6.75-6.75c-0.59-0.59-0.59-1.53,0-2.12C3.43,0.149,3.811,0,4.199,0
					C4.58,0,4.971,0.149,5.26,0.439L7.52,2.7l2.25,2.25L12,7.189h0.01l7.1,7.101l2.781,2.779l2.139,2.141l1.83,1.83
					C26.449,21.63,26.449,22.569,25.859,23.16z"/>
			</g>
		</g>
	</g>
</g>
</svg>
