<?xml version="1.0" encoding="utf-8"?>
<!-- Generator: Adobe Illustrator 15.0.0, SVG Export Plug-In . SVG Version: 6.00 Build 0)  -->
<!DOCTYPE svg PUBLIC "-//W3C//DTD SVG 1.1//EN" "http://www.w3.org/Graphics/SVG/1.1/DTD/svg11.dtd">
<svg version="1.1" id="Layer_1" xmlns="http://www.w3.org/2000/svg" xmlns:xlink="http://www.w3.org/1999/xlink" x="0px" y="0px"
	 width="25.43px" height="27.721px" viewBox="0 0 25.43 27.721" enable-background="new 0 0 25.43 27.721" xml:space="preserve">
<g>
	<g>
		<g>
			<path fill="#818181" d="M13.7,17.471L9.229,14.92c0.09-0.34,0.13-0.689,0.13-1.06c0-0.36-0.04-0.71-0.13-1.05l4.471-2.55
				c0.649-0.37,0.88-1.19,0.51-1.841c-0.37-0.649-1.2-0.869-1.84-0.51l-4.471,2.561c-0.84-0.801-1.97-1.29-3.22-1.29
				c-2.59,0-4.68,2.1-4.68,4.68c0,2.59,2.09,4.68,4.68,4.68c1.25,0,2.38-0.489,3.22-1.29l4.471,2.561
				c0.21,0.12,0.439,0.18,0.66,0.18c0.47,0,0.93-0.25,1.18-0.68C14.58,18.66,14.35,17.83,13.7,17.471z M6.22,14.53
				c-0.02,0.05-0.05,0.11-0.09,0.16c-0.25,0.46-0.72,0.78-1.26,0.83c-0.061,0.02-0.13,0.02-0.19,0.02C3.75,15.54,3,14.79,3,13.86
				c0-0.92,0.75-1.68,1.68-1.68c0.061,0,0.13,0,0.19,0.02c0.54,0.05,1.01,0.38,1.26,0.83c0.04,0.05,0.06,0.101,0.09,0.16
				c0.09,0.2,0.14,0.43,0.14,0.67S6.31,14.32,6.22,14.53z"/>
		</g>
	</g>
	<g>
		<g>
			<g>
				<path fill="#818181" d="M20.75,0c-2.59,0-4.681,2.101-4.681,4.681c0,2.59,2.091,4.68,4.681,4.68c2.58,0,4.68-2.09,4.68-4.68
					C25.43,2.101,23.33,0,20.75,0z M20.75,6.36c-0.931,0-1.681-0.75-1.681-1.68c0-0.92,0.75-1.681,1.681-1.681
					c0.93,0,1.68,0.761,1.68,1.681C22.43,5.61,21.68,6.36,20.75,6.36z"/>
			</g>
		</g>
	</g>
	<g>
		<g>
			<g>
				<path fill="#818181" d="M20.75,18.36c-2.59,0-4.681,2.1-4.681,4.68c0,2.591,2.091,4.681,4.681,4.681
					c2.58,0,4.68-2.09,4.68-4.681C25.43,20.46,23.33,18.36,20.75,18.36z M20.75,24.721c-0.931,0-1.681-0.75-1.681-1.681
					c0-0.92,0.75-1.68,1.681-1.68c0.93,0,1.68,0.76,1.68,1.68C22.43,23.971,21.68,24.721,20.75,24.721z"/>
			</g>
		</g>
	</g>
</g>
</svg>
