<?xml version="1.0" encoding="utf-8"?>
<!-- Generator: Adobe Illustrator 15.0.0, SVG Export Plug-In . SVG Version: 6.00 Build 0)  -->
<!DOCTYPE svg PUBLIC "-//W3C//DTD SVG 1.1//EN" "http://www.w3.org/Graphics/SVG/1.1/DTD/svg11.dtd">
<svg version="1.1" id="Layer_1" xmlns="http://www.w3.org/2000/svg" xmlns:xlink="http://www.w3.org/1999/xlink" x="0px" y="0px"
	 width="23.568px" height="29.508px" viewBox="0 0 23.568 29.508" enable-background="new 0 0 23.568 29.508" xml:space="preserve">
<g>
	<g>
		<path fill="#818181" d="M6.233,5.938v0.979h0.009V5.938H6.233z"/>
	</g>
	<g>
		<path fill="#818181" d="M21.612,3.982h-4.306l0.03,18.931H6.233L6.242,3.982H1.956C0.891,3.982,0,4.862,0,5.938v21.612
			c0,1.076,0.891,1.957,1.956,1.957h19.656c1.075,0,1.956-0.881,1.956-1.957V5.938C23.568,4.862,22.688,3.982,21.612,3.982z
			 M20.634,26.573H2.935V6.917h1.342v15.996c0,1.077,0.879,1.957,1.957,1.957h11.104c1.076,0,1.957-0.88,1.957-1.957V6.917h1.34
			V26.573z"/>
	</g>
	<g>
		<path fill="#818181" d="M16.152,4.345v2.182H7.426V4.345h0.47L8.14,3.982l0.499-0.754l0.128-0.186l0.195-0.274
			c0.01-0.537,0.176-1.036,0.451-1.447C9.902,0.519,10.771,0,11.78,0c1.007,0,1.888,0.519,2.387,1.321
			c0.273,0.411,0.43,0.91,0.449,1.447l0.196,0.274l0.127,0.186l0.5,0.754l0.245,0.362H16.152z"/>
	</g>
</g>
</svg>
