<?xml version="1.0" encoding="utf-8"?>
<!-- Generator: Adobe Illustrator 15.0.0, SVG Export Plug-In . SVG Version: 6.00 Build 0)  -->
<!DOCTYPE svg PUBLIC "-//W3C//DTD SVG 1.1//EN" "http://www.w3.org/Graphics/SVG/1.1/DTD/svg11.dtd">
<svg version="1.1" id="Layer_1" xmlns="http://www.w3.org/2000/svg" xmlns:xlink="http://www.w3.org/1999/xlink" x="0px" y="0px"
	 width="26.45px" height="29.15px" viewBox="0 0 26.45 29.15" enable-background="new 0 0 26.45 29.15" xml:space="preserve">
<g>
	<g>
		<path fill="#818181" d="M24.45,9.221H2c-1.101,0-2,0.899-2,2v9.29c0,1.1,0.899,2,2,2h1.79v4.64c0,1.1,0.899,2,2,2h14.87
			c1.1,0,2-0.9,2-2v-4.64h1.79c1.1,0,2-0.9,2-2v-9.29C26.45,10.12,25.55,9.221,24.45,9.221z M20.66,27.15H5.79v-9.29h14.87V27.15z
			 M23.45,19.511h-0.79v-1.65c0-1.09-0.9-2-2-2H5.79c-1.101,0-2,0.91-2,2v1.65H3v-7.29h20.45V19.511z"/>
	</g>
	<g>
		<path fill="#818181" d="M22.6,3v4.641h-2V3c0-0.56-0.45-1-1-1H6.85c-0.55,0-1,0.44-1,1v4.641h-2V3c0-1.659,1.351-3,3-3H19.6
			C21.25,0,22.6,1.341,22.6,3z"/>
	</g>
	<g>
		<g>
			<g>
				<g>
					<path fill="#818181" d="M19.08,21.07c0,0.04,0,0.08-0.011,0.1c-0.05,0.4-0.409,0.71-0.859,0.71H8.24
						c-0.45,0-0.811-0.31-0.86-0.71c-0.01-0.02-0.01-0.06-0.01-0.1c0-0.44,0.39-0.8,0.87-0.8h9.97
						C18.689,20.271,19.08,20.63,19.08,21.07z"/>
				</g>
			</g>
		</g>
		<g>
			<g>
				<g>
					<path fill="#818181" d="M19.08,23.94c0,0.439-0.391,0.81-0.87,0.81H8.24c-0.48,0-0.87-0.37-0.87-0.81
						c0-0.45,0.39-0.811,0.87-0.811h9.97C18.689,23.13,19.08,23.49,19.08,23.94z"/>
				</g>
			</g>
		</g>
	</g>
	<g>
		<circle fill="#818181" cx="4.75" cy="13.721" r="0.96"/>
	</g>
</g>
</svg>
