<?xml version="1.0" encoding="utf-8"?>
<!-- Generator: Adobe Illustrator 15.0.0, SVG Export Plug-In . SVG Version: 6.00 Build 0)  -->
<!DOCTYPE svg PUBLIC "-//W3C//DTD SVG 1.1//EN" "http://www.w3.org/Graphics/SVG/1.1/DTD/svg11.dtd">
<svg version="1.1" id="Layer_1" xmlns="http://www.w3.org/2000/svg" xmlns:xlink="http://www.w3.org/1999/xlink" x="0px" y="0px"
	 width="28.07px" height="28.07px" viewBox="0 0 28.07 28.07" enable-background="new 0 0 28.07 28.07" xml:space="preserve">
<g>
	<g>
		<path fill="#818181" d="M22.357,15.314l-2.285,3.633l-0.854,1.379c-0.029,0.031-0.051,0.064-0.062,0.096
			c-0.695,0.947-1.77,1.969-3.58,2.41c-0.631,0.18-1.326,0.275-2.148,0.275c-5.18,0-5.369-4.812-5.369-4.812V7.84
			c0-0.496,0.4-0.885,0.885-0.885c0.506,0,0.895,0.389,0.895,0.885v4.98c0.328-0.086,0.727-0.189,1.211-0.232V6.271
			c0-0.484,0.4-0.885,0.885-0.885c0.494,0,0.896,0.4,0.896,0.885v6.264h1.209V5.66c0-0.484,0.391-0.885,0.885-0.885
			c0.506,0,0.885,0.4,0.885,0.885v6.938c0.389,0.033,0.832,0.086,1.221,0.18V6.871c0-0.506,0.391-0.895,0.896-0.895
			c0.484,0,0.883,0.389,0.883,0.895v9.086l1.285-2.053c0.389-0.621,1.221-0.811,1.842-0.422
			C22.557,13.873,22.758,14.693,22.357,15.314z"/>
	</g>
	<g>
		<g>
			<path fill="#818181" d="M14.031,0C6.281,0,0,6.279,0,14.029S6.281,28.07,14.031,28.07S28.07,21.779,28.07,14.029
				S21.781,0,14.031,0z M14.031,25.57C7.67,25.57,2.5,20.391,2.5,14.029C2.5,7.67,7.67,2.5,14.031,2.5
				c6.359,0,11.539,5.17,11.539,11.529C25.57,20.391,20.391,25.57,14.031,25.57z"/>
		</g>
	</g>
</g>
</svg>
