<?xml version="1.0" encoding="utf-8"?>
<!-- Generator: Adobe Illustrator 15.0.0, SVG Export Plug-In . SVG Version: 6.00 Build 0)  -->
<!DOCTYPE svg PUBLIC "-//W3C//DTD SVG 1.1//EN" "http://www.w3.org/Graphics/SVG/1.1/DTD/svg11.dtd">
<svg version="1.1" id="Layer_1" xmlns="http://www.w3.org/2000/svg" xmlns:xlink="http://www.w3.org/1999/xlink" x="0px" y="0px"
	 width="28.07px" height="28.07px" viewBox="0 0 28.07 28.07" enable-background="new 0 0 28.07 28.07" xml:space="preserve">
<g>
	<g>
		<path fill="#818181" d="M16.229,0.17c-0.039,0-0.078-0.02-0.119-0.02C15.439,0.051,14.74,0,14.039,0C6.299,0,0,6.289,0,14.029
			S6.299,28.07,14.039,28.07c0.701,0,1.381-0.049,2.051-0.15c0.049-0.01,0.1-0.02,0.139-0.029C22.93,26.84,28.07,21.02,28.07,14.029
			S22.93,1.23,16.229,0.17z M2.299,14.029c0-1.85,0.441-3.609,1.201-5.16l0.559,2.41c0.061,0.271,0.221,0.5,0.441,0.67L7.309,14
			l2.061,3.43c0.09,0.15,0.211,0.27,0.359,0.371l2.432,1.578l0.049,4.842c0,0.309,0.131,0.6,0.34,0.809l0.721,0.711
			C7.16,25.35,2.299,20.24,2.299,14.029z M15.449,24.66l-0.939-0.939l-0.051-4.98c0-0.391-0.199-0.74-0.52-0.951l-2.73-1.779
			l-2.049-3.4c-0.08-0.129-0.182-0.24-0.311-0.33L6.209,10.34L5.26,6.25c2.16-2.42,5.289-3.949,8.779-3.949
			c0.52,0,1.031,0.029,1.531,0.1c0.158,0.119,0.469,0.359,0.809,0.639l-0.76,0.871C15.34,4.23,15.26,4.689,15.42,5.08l0.529,1.34
			l-3.5,1.92l-1.84,1.051c-0.18,0.1-0.33,0.238-0.43,0.42l-0.73,1.27c-0.221,0.391-0.189,0.859,0.061,1.23l1.57,2.26
			c0.279,0.4,0.779,0.58,1.25,0.449l1.289-0.35l4.25,2.709L15.449,24.66z M17.699,25.18l2.631-7.92c0.17-0.5-0.021-1.051-0.471-1.34
			l-5.43-3.471c-0.279-0.17-0.609-0.229-0.93-0.139l-0.99,0.279L11.82,11.6l0.199-0.369l1.551-0.881l4.369-2.4
			c0.51-0.279,0.73-0.889,0.52-1.43l-0.65-1.629l1.07-1.23c0.061-0.07,0.111-0.15,0.15-0.24c1.279,0.6,2.42,1.42,3.4,2.42
			L21.549,8.15c-0.09,0.24-0.1,0.51-0.02,0.76l0.291,0.879l-1.631,1.41c-0.359,0.32-0.49,0.83-0.33,1.281l1.369,3.67
			c0.131,0.35,0.432,0.619,0.801,0.709l3.16,0.811C24.039,21.209,21.24,24.02,17.699,25.18z M23.18,14.779l-0.881-2.359l1.602-1.391
			c0.359-0.299,0.488-0.779,0.35-1.219l-0.4-1.221l0.23-0.619c1.08,1.77,1.689,3.85,1.689,6.059c0,0.471-0.029,0.941-0.08,1.391
			L23.18,14.779z"/>
	</g>
</g>
</svg>
