<?xml version="1.0" encoding="utf-8"?>
<!-- Generator: Adobe Illustrator 15.0.0, SVG Export Plug-In . SVG Version: 6.00 Build 0)  -->
<!DOCTYPE svg PUBLIC "-//W3C//DTD SVG 1.1//EN" "http://www.w3.org/Graphics/SVG/1.1/DTD/svg11.dtd">
<svg version="1.1" id="Layer_1" xmlns="http://www.w3.org/2000/svg" xmlns:xlink="http://www.w3.org/1999/xlink" x="0px" y="0px"
	 width="21.299px" height="28.05px" viewBox="0 0 21.299 28.05" enable-background="new 0 0 21.299 28.05" xml:space="preserve">
<g>
	<g>
		<g>
			<g>
				<rect x="6.482" y="4.085" fill="#818181" width="10.375" height="5.422"/>
			</g>
		</g>
	</g>
	<g>
		<path fill="#818181" d="M21.289,1.8c-0.1-0.94-0.85-1.69-1.789-1.79C19.439,0,19.369,0,19.299,0H2C1.93,0,1.859,0,1.799,0.01
			c-0.939,0.1-1.689,0.85-1.789,1.79C0,1.859,0,1.93,0,2v20.75c0,0.069,0,0.14,0.01,0.199c0.1,0.94,0.85,1.69,1.789,1.79
			C1.859,24.75,1.93,24.75,2,24.75h2.369v3.3l1.441-1.87l1.488,1.87v-3.3h12c0.07,0,0.141,0,0.201-0.011
			c0.939-0.1,1.689-0.85,1.789-1.79c0.01-0.06,0.01-0.13,0.01-0.199V2C21.299,1.93,21.299,1.859,21.289,1.8z M18.799,22.25H4.439
			V2.5h14.359V22.25z"/>
	</g>
</g>
</svg>
