<?xml version="1.0" encoding="utf-8"?>
<!-- Generator: Adobe Illustrator 15.0.0, SVG Export Plug-In . SVG Version: 6.00 Build 0)  -->
<!DOCTYPE svg PUBLIC "-//W3C//DTD SVG 1.1//EN" "http://www.w3.org/Graphics/SVG/1.1/DTD/svg11.dtd">
<svg version="1.1" id="Layer_1" xmlns="http://www.w3.org/2000/svg" xmlns:xlink="http://www.w3.org/1999/xlink" x="0px" y="0px"
	 width="28.416px" height="27.061px" viewBox="0 0 28.416 27.061" enable-background="new 0 0 28.416 27.061" xml:space="preserve">
<g>
	<g>
		<g>
			<g>
				<polygon fill="#818181" points="19.16,17.044 19.16,18.554 19.148,18.554 				"/>
			</g>
			<g>
				<path fill="#818181" d="M28.416,20.551V7.141h-9.26v-2.62C19.246,4.24,19.836,3,23.064,3c0.82,0,1.5-0.67,1.5-1.5
					s-0.68-1.5-1.5-1.5c-2.76,0-4.408,0.74-5.408,1.61c-1-0.87-2.65-1.61-5.41-1.61c-0.83,0-1.5,0.67-1.5,1.5s0.67,1.5,1.5,1.5
					c3.318,0,3.84,1.311,3.91,1.49v18.05c-0.102,0.29-0.682,1.521-3.91,1.521c-0.83,0-1.5,0.68-1.5,1.5c0,0.83,0.67,1.5,1.5,1.5
					c2.76,0,4.41-0.74,5.41-1.61c1,0.87,2.648,1.61,5.408,1.61c0.82,0,1.5-0.67,1.5-1.5c0-0.82-0.68-1.5-1.5-1.5
					c-3.318,0-3.85-1.3-3.908-1.49v-2.02H28.416z M19.145,18.551l0.012-9.41h7.26v9.41H19.145z"/>
			</g>
		</g>
	</g>
	<g>
		<g>
			<polygon fill="#818181" points="2,9.144 2,18.554 15.129,18.554 15.129,20.554 0,20.554 0,7.144 15.129,7.144 15.129,9.144 			
				"/>
		</g>
	</g>
</g>
</svg>
