<?xml version="1.0" encoding="utf-8"?>
<!-- Generator: Adobe Illustrator 15.0.2, SVG Export Plug-In . SVG Version: 6.00 Build 0)  -->
<!DOCTYPE svg PUBLIC "-//W3C//DTD SVG 1.1//EN" "http://www.w3.org/Graphics/SVG/1.1/DTD/svg11.dtd">
<svg version="1.1" id="Layer_1" xmlns="http://www.w3.org/2000/svg" xmlns:xlink="http://www.w3.org/1999/xlink" x="0px" y="0px"
	 width="29.854px" height="26.42px" viewBox="0 -4.89 29.854 26.42" enable-background="new 0 -4.89 29.854 26.42"
	 xml:space="preserve">
<g>
	<g>
		<path fill="#808080" d="M24.03,21.5c-0.773,0-1.438-0.516-1.691-1.312l-1.172-3.646c-0.066-0.18-0.105-0.418-0.105-0.669
			L21.05-2.726c0-0.475,0.146-0.929,0.414-1.279c0.326-0.442,0.834-0.706,1.381-0.706h2.373c0.99,0,1.797,0.891,1.797,1.984v18.6
			c0,0.24-0.039,0.475-0.113,0.696l-1.184,3.627c-0.041,0.161-0.141,0.366-0.285,0.565C25.081,21.236,24.575,21.5,24.03,21.5z
			 M23.562,15.825l0.473,1.472l0.48-1.473V-2.211H23.55L23.562,15.825z"/>
	</g>
	<g>
		<g>
			<g>
				<path fill="#808080" d="M16.657-1.859v20.263H2.992V-1.859H16.657 M17.657-4.859H1.992c-1.1,0-2,0.9-2,2v22.263c0,1.1,0.9,2,2,2
					h15.666c1.1,0,2-0.9,2-2V-2.859C19.657-3.959,18.757-4.859,17.657-4.859L17.657-4.859z"/>
			</g>
		</g>
	</g>
	<g>
		<g>
			<g>
				<g>
					<g>
						<path fill="#808080" d="M14.812,4.064c-0.628,0.539-1.256,1.188-1.861,1.904c-1.242,1.457-2.421,3.172-3.362,4.696
							c-0.414,0.65-0.772,1.266-1.088,1.815c-1.053-1.748-3.518-4.203-3.518-4.203L8.5,8.973c0,0,0.37-0.605,1.088-1.456
							c0.751-0.886,1.883-2.074,3.362-3.128c0.146-0.109,0.303-0.224,0.461-0.324H14.812z"/>
					</g>
				</g>
			</g>
		</g>
	</g>
	<g>
		<path fill="#808080" d="M28.612,3.725c-0.689,0-1.25-0.56-1.25-1.25V0.641h-1.598c-0.691,0-1.25-0.56-1.25-1.25
			s0.559-1.25,1.25-1.25h2.037c1.068,0.071,2.061,0.792,2.061,2.035v2.299C29.862,3.165,29.304,3.725,28.612,3.725z"/>
	</g>
</g>
</svg>
