<?xml version="1.0" encoding="utf-8"?>
<!-- Generator: Adobe Illustrator 15.0.0, SVG Export Plug-In . SVG Version: 6.00 Build 0)  -->
<!DOCTYPE svg PUBLIC "-//W3C//DTD SVG 1.1//EN" "http://www.w3.org/Graphics/SVG/1.1/DTD/svg11.dtd">
<svg version="1.1" id="Layer_1" xmlns="http://www.w3.org/2000/svg" xmlns:xlink="http://www.w3.org/1999/xlink" x="0px" y="0px"
	 width="25.58px" height="25.95px" viewBox="0 0 25.58 25.95" enable-background="new 0 0 25.58 25.95" xml:space="preserve">
<g>
	<g>
		<path fill="#818181" d="M23.58,0H2C0.9,0,0,0.9,0,2v21.951c0,1.099,0.9,1.999,2,1.999h21.58c1.101,0,2-0.9,2-1.999V2
			C25.58,0.9,24.681,0,23.58,0z M13.141,5.15c0-0.439,0.359-0.801,0.8-0.801h2.11c0.439,0,0.8,0.361,0.8,0.801v2.82
			c0,0.439-0.36,0.799-0.8,0.799h-2.11c-0.44,0-0.8-0.359-0.8-0.799V5.15z M22.58,22.951H3V3h3.131v6.9c0,1.1,0.899,2,2,2h9.329
			c1.101,0,2-0.9,2-2V3h3.12V22.951z"/>
	</g>
	<g>
		<g>
			<path fill="#818181" d="M19.73,16.07v4.051c0,0.789-0.64,1.43-1.43,1.43H7.28c-0.79,0-1.43-0.641-1.43-1.43V16.07
				c0-0.791,0.64-1.43,1.43-1.43h11.021C19.091,14.641,19.73,15.279,19.73,16.07z"/>
		</g>
	</g>
</g>
</svg>
