<?xml version="1.0" encoding="utf-8"?>
<!-- Generator: Adobe Illustrator 15.0.0, SVG Export Plug-In . SVG Version: 6.00 Build 0)  -->
<!DOCTYPE svg PUBLIC "-//W3C//DTD SVG 1.1//EN" "http://www.w3.org/Graphics/SVG/1.1/DTD/svg11.dtd">
<svg version="1.1" id="Layer_1" xmlns="http://www.w3.org/2000/svg" xmlns:xlink="http://www.w3.org/1999/xlink" x="0px" y="0px"
	 width="28.371px" height="26.83px" viewBox="0 0 28.371 26.83" enable-background="new 0 0 28.371 26.83" xml:space="preserve">
<g>
	<g>
		<g>
			<path fill="#818181" d="M26.701,12.601c-0.061-0.04-0.121-0.061-0.18-0.101L1.68,0.16C1.461,0.061,1.24,0,1.051,0h-0.02
				C0.41,0,0,0.521,0,1.391C0,1.46,0,1.54,0.01,1.62l0.74,9.41c0.01,0.07,0.01,0.15,0.01,0.22l0.051,0.62l20.211,1.55L0.811,14.96
				L0.76,15.54c0,0.09,0,0.17-0.01,0.25l-0.74,9.42C0,25.29,0,25.36,0,25.431C0,26.3,0.41,26.83,1.031,26.83h0.02
				c0.189,0,0.41-0.06,0.629-0.17l24.842-12.32c0.059-0.04,0.119-0.06,0.18-0.1l1.67-0.82L26.701,12.601z M3.611,9.07L3.23,4.28
				l11.34,5.63L3.611,9.07z M3.23,22.54l0.381-4.79l10.959-0.83L3.23,22.54z"/>
		</g>
	</g>
</g>
</svg>
