<?xml version="1.0" encoding="utf-8"?>
<!-- Generator: Adobe Illustrator 15.0.2, SVG Export Plug-In . SVG Version: 6.00 Build 0)  -->
<!DOCTYPE svg PUBLIC "-//W3C//DTD SVG 1.1//EN" "http://www.w3.org/Graphics/SVG/1.1/DTD/svg11.dtd">
<svg version="1.1" id="Layer_1" xmlns="http://www.w3.org/2000/svg" xmlns:xlink="http://www.w3.org/1999/xlink" x="0px" y="0px"
	 width="27.992px" height="20.76px" viewBox="0 0 27.992 20.76" enable-background="new 0 0 27.992 20.76" xml:space="preserve">
<g>
	<g>
		<path fill="#808080" d="M8.872,5.608c-0.415,0-0.751-0.336-0.751-0.751V0.796c0-0.415,0.337-0.751,0.751-0.751
			c0.415,0,0.752,0.336,0.752,0.751v4.061C9.624,5.272,9.287,5.608,8.872,5.608z"/>
	</g>
	<g>
		<path fill="#808080" d="M8.872,20.716c-0.081,0-0.162-0.014-0.242-0.041c-0.305-0.104-0.51-0.389-0.51-0.711v-3.58
			c0-0.416,0.337-0.752,0.751-0.752c0.415,0,0.752,0.336,0.752,0.752v1.369l2.412-3.133c0.141-0.186,0.361-0.295,0.595-0.295h13.863
			V1.548H8.872c-0.415,0-0.751-0.337-0.751-0.752s0.337-0.751,0.751-0.751h18.374c0.415,0,0.751,0.336,0.751,0.751v14.281
			c0,0.416-0.336,0.752-0.751,0.752H13l-3.533,4.592C9.322,20.61,9.101,20.716,8.872,20.716z"/>
	</g>
	<g>
		<path fill="#808080" d="M8.872,17.134c-0.415,0-0.751-0.336-0.751-0.75v-5.326c0-0.415,0.337-0.751,0.751-0.751
			c0.415,0,0.752,0.337,0.752,0.751v5.326C9.624,16.798,9.287,17.134,8.872,17.134z"/>
	</g>
	<g>
		<g>
			<path fill="#808080" d="M16.075,8.688H0.748c-0.415,0-0.751-0.336-0.751-0.751s0.336-0.752,0.751-0.752h15.327
				c0.416,0,0.752,0.337,0.752,0.752S16.491,8.688,16.075,8.688z"/>
		</g>
		<g>
			<path fill="#808080" d="M0.748,8.688c-0.192,0-0.384-0.073-0.531-0.22c-0.294-0.294-0.294-0.77,0-1.063l4.918-4.917
				c0.293-0.294,0.769-0.294,1.063,0c0.293,0.293,0.293,0.77,0,1.063L1.28,8.469C1.133,8.615,0.94,8.688,0.748,8.688z"/>
		</g>
		<g>
			<path fill="#808080" d="M5.666,13.606c-0.192,0-0.384-0.073-0.531-0.22L0.217,8.469c-0.294-0.293-0.294-0.77,0-1.063
				c0.293-0.294,0.769-0.294,1.063,0l4.918,4.917c0.293,0.294,0.293,0.77,0,1.063C6.051,13.533,5.858,13.606,5.666,13.606z"/>
		</g>
	</g>
</g>
</svg>
