<?xml version="1.0" encoding="utf-8"?>
<!-- Generator: Adobe Illustrator 15.0.0, SVG Export Plug-In . SVG Version: 6.00 Build 0)  -->
<!DOCTYPE svg PUBLIC "-//W3C//DTD SVG 1.1//EN" "http://www.w3.org/Graphics/SVG/1.1/DTD/svg11.dtd">
<svg version="1.1" id="Layer_1" xmlns="http://www.w3.org/2000/svg" xmlns:xlink="http://www.w3.org/1999/xlink" x="0px" y="0px"
	 width="25.66px" height="27.961px" viewBox="0 0 25.66 27.961" enable-background="new 0 0 25.66 27.961" xml:space="preserve">
<g>
	<g>
		<g>
			<path fill="#818181" d="M20.93,18.52c-1.26,0-2.399,0.5-3.25,1.301l-8.37-4.781v-0.01C9.4,14.689,9.44,14.34,9.44,13.98
				c0-0.361-0.04-0.711-0.131-1.051v-0.01l8.37-4.779c0.851,0.809,1.99,1.309,3.25,1.309c2.61,0,4.73-2.119,4.73-4.719
				c0-2.611-2.12-4.73-4.73-4.73c-2.6,0-4.72,2.119-4.72,4.73c0,0.359,0.04,0.709,0.12,1.049l-8.36,4.781
				C7.13,9.75,5.99,9.26,4.72,9.26C2.11,9.26,0,11.381,0,13.98c0,2.609,2.11,4.73,4.72,4.73c1.271,0,2.41-0.49,3.25-1.311
				l8.37,4.779c-0.09,0.34-0.13,0.701-0.13,1.061c0,2.609,2.12,4.721,4.72,4.721c2.61,0,4.73-2.111,4.73-4.721
				C25.66,20.641,23.54,18.52,20.93,18.52z M19.35,4.061C19.6,3.439,20.22,3,20.93,3c0.95,0,1.73,0.77,1.73,1.73
				c0,0.939-0.78,1.719-1.73,1.719c-0.08,0-0.159-0.01-0.229-0.029c-0.84-0.1-1.49-0.83-1.49-1.689
				C19.21,4.49,19.26,4.27,19.35,4.061z M6.3,14.641c0,0,0,0,0,0.01C6.07,15.199,5.57,15.609,4.96,15.68
				c-0.08,0.02-0.16,0.031-0.24,0.031C3.771,15.711,3,14.93,3,13.98c0-0.951,0.771-1.721,1.72-1.721c0.08,0,0.16,0.01,0.24,0.02
				c0.61,0.08,1.11,0.48,1.34,1.031c0,0.01,0,0.01,0,0.01c0.09,0.199,0.141,0.43,0.141,0.66S6.39,14.439,6.3,14.641z M20.93,24.961
				c-0.71,0-1.33-0.441-1.58-1.061c-0.09-0.201-0.14-0.43-0.14-0.66c0-0.871,0.65-1.59,1.49-1.701c0.07-0.01,0.149-0.02,0.229-0.02
				c0.95,0,1.73,0.77,1.73,1.721C22.66,24.189,21.88,24.961,20.93,24.961z"/>
		</g>
	</g>
</g>
</svg>
