<?xml version="1.0" encoding="utf-8"?>
<!-- Generator: Adobe Illustrator 15.0.2, SVG Export Plug-In . SVG Version: 6.00 Build 0)  -->
<!DOCTYPE svg PUBLIC "-//W3C//DTD SVG 1.1//EN" "http://www.w3.org/Graphics/SVG/1.1/DTD/svg11.dtd">
<svg version="1.1" id="Layer_1" xmlns="http://www.w3.org/2000/svg" xmlns:xlink="http://www.w3.org/1999/xlink" x="0px" y="0px"
	 width="27.535px" height="26.42px" viewBox="0 0 27.535 26.42" enable-background="new 0 0 27.535 26.42" xml:space="preserve">
<g>
	<g>
		<path fill="#808080" d="M11.117,6.228c-0.58,0.76-1.09,1.66-1.48,2.721c-0.93-1.051-2.109-1.32-2.43-1.369H1.498
			c-0.83,0-1.5-0.672-1.5-1.5c0-0.83,0.67-1.5,1.5-1.5h5.82c0.068,0,0.129,0,0.189,0.01C8.498,4.719,9.886,5.208,11.117,6.228z"/>
		<path fill="#808080" d="M27.417,20.977c-0.031,0.09-0.08,0.17-0.131,0.25c0,0.012,0,0.012,0,0.012
			c-0.06,0.078-0.119,0.148-0.189,0.221l-4.52,4.52c-0.302,0.301-0.681,0.441-1.062,0.441c-0.392,0-0.771-0.141-1.062-0.441
			c-0.59-0.58-0.59-1.529,0-2.119l1.961-1.961h-5.1c-0.07,0-0.15-0.01-0.221-0.02c-0.891-0.141-2.119-0.619-3.24-1.609
			c0.59-0.77,1.09-1.689,1.43-2.77c0.861,1.01,1.83,1.316,2.18,1.396h4.951l-1.961-1.968c-0.591-0.58-0.591-1.531,0-2.121
			c0.58-0.59,1.53-0.59,2.121,0l4.52,4.53c0.141,0.129,0.25,0.299,0.32,0.479c0.028,0.062,0.049,0.133,0.061,0.201
			C27.578,20.34,27.546,20.68,27.417,20.977z"/>
	</g>
	<g>
		<g>
			<path fill="#808080" d="M27.417,6.658c-0.031,0.092-0.08,0.172-0.131,0.25c0,0.012,0,0.012,0,0.012
				c-0.06,0.08-0.119,0.148-0.189,0.219l-4.52,4.52c-0.302,0.301-0.681,0.441-1.062,0.441c-0.392,0-0.771-0.141-1.062-0.441
				c-0.59-0.578-0.59-1.529,0-2.119l1.961-1.959h-4.951c-0.6,0.129-3.387,1.029-3.627,5.658c-0.01,0.211-0.02,0.441-0.02,0.67
				c0,2.05-0.541,3.62-1.33,4.81c-1.391,2.102-3.58,2.99-4.98,3.17c-0.061,0-0.121,0.01-0.189,0.01h-5.82c-0.83,0-1.5-0.67-1.5-1.5
				c0-0.828,0.67-1.5,1.5-1.5h5.709c0.602-0.107,3.611-0.857,3.611-4.989c0-0.229,0-0.449,0.01-0.669
				c0.109-2.379,0.77-4.17,1.66-5.488c1.379-2.061,3.33-2.961,4.609-3.15c0.07-0.02,0.15-0.02,0.221-0.02h5.1l-1.961-1.971
				c-0.59-0.58-0.59-1.529,0-2.121c0.291-0.299,0.67-0.439,1.062-0.439c0.381,0,0.771,0.141,1.062,0.439l4.52,4.531
				c0.141,0.129,0.25,0.299,0.32,0.48C27.449,5.56,27.468,5.629,27.48,5.7C27.578,6.019,27.546,6.358,27.417,6.658z"/>
		</g>
	</g>
</g>
</svg>
