<?xml version="1.0" encoding="utf-8"?>
<!-- Generator: Adobe Illustrator 15.0.2, SVG Export Plug-In . SVG Version: 6.00 Build 0)  -->
<!DOCTYPE svg PUBLIC "-//W3C//DTD SVG 1.1//EN" "http://www.w3.org/Graphics/SVG/1.1/DTD/svg11.dtd">
<svg version="1.1" id="Layer_1" xmlns="http://www.w3.org/2000/svg" xmlns:xlink="http://www.w3.org/1999/xlink" x="0px" y="0px"
	 width="26.638px" height="26.684px" viewBox="0 -5.153 26.638 26.684" enable-background="new 0 -5.153 26.638 26.684"
	 xml:space="preserve">
<g>
	<g>
		<path fill="#808080" d="M13.324-5.142c-7.369,0-13.33,5.97-13.33,13.33s5.961,13.33,13.33,13.33c7.349,0,13.32-5.97,13.32-13.33
			S20.673-5.142,13.324-5.142z M13.324,19.019c-5.98,0-10.83-4.86-10.83-10.83s4.85-10.83,10.83-10.83
			c5.97,0,10.82,4.86,10.82,10.83S19.294,19.019,13.324,19.019z"/>
	</g>
	<g>
		<path fill="#808080" d="M15.173,15.133c0,1.02-0.836,1.854-1.854,1.854c-1.02,0-1.855-0.835-1.855-1.854
			c0-1.019,0.836-1.854,1.855-1.854C14.337,13.279,15.173,14.114,15.173,15.133z"/>
	</g>
	<g>
		<path fill="#808080" d="M18.403,4.478c-0.166,1.606-1.121,2.497-1.955,3.277c-0.863,0.798-1.597,1.486-1.835,3.074
			c-0.109,0.697-0.697,1.193-1.385,1.193c-0.064,0-0.139-0.009-0.203-0.02c-0.77-0.109-1.293-0.825-1.184-1.587
			c0.387-2.561,1.727-3.8,2.697-4.708c0.697-0.643,1.027-0.973,1.083-1.515c0.018-0.11,0.055-0.697-0.33-1.119
			c-0.441-0.486-1.285-0.588-1.918-0.588c-2.203,0-2.359,1.727-2.367,2.075c-0.02,0.771-0.68,1.385-1.432,1.357
			c-0.771-0.018-1.377-0.66-1.359-1.432c0.045-1.928,1.459-4.8,5.158-4.8c1.742,0,3.091,0.515,3.992,1.515
			C18.513,2.469,18.448,4.028,18.403,4.478z"/>
	</g>
</g>
</svg>
