<?xml version="1.0" encoding="utf-8"?>
<!-- Generator: Adobe Illustrator 15.0.0, SVG Export Plug-In . SVG Version: 6.00 Build 0)  -->
<!DOCTYPE svg PUBLIC "-//W3C//DTD SVG 1.1//EN" "http://www.w3.org/Graphics/SVG/1.1/DTD/svg11.dtd">
<svg version="1.1" id="Layer_1" xmlns="http://www.w3.org/2000/svg" xmlns:xlink="http://www.w3.org/1999/xlink" x="0px" y="0px"
	 width="27.977px" height="27.977px" viewBox="0 0 27.977 27.977" enable-background="new 0 0 27.977 27.977" xml:space="preserve">
<g>
	<g>
		<g>
			<g>
				<path fill="#818181" d="M13.996,0C6.285,0,0,6.285,0,13.998c0,7.695,6.285,13.979,13.996,13.979s13.98-6.283,13.98-13.979
					C27.977,6.285,21.707,0,13.996,0z M13.996,26.297c-6.789,0-12.316-5.525-12.316-12.299C1.68,7.209,7.207,1.68,13.996,1.68
					s12.301,5.529,12.301,12.318C26.297,20.771,20.785,26.297,13.996,26.297z"/>
			</g>
		</g>
		<g>
			<rect x="6.93" y="10.059" fill="#818181" width="14.117" height="2.504"/>
			<rect x="6.93" y="15.418" fill="#818181" width="14.117" height="2.504"/>
		</g>
	</g>
</g>
</svg>
