<?xml version="1.0" encoding="utf-8"?>
<!-- Generator: Adobe Illustrator 15.0.0, SVG Export Plug-In . SVG Version: 6.00 Build 0)  -->
<!DOCTYPE svg PUBLIC "-//W3C//DTD SVG 1.1//EN" "http://www.w3.org/Graphics/SVG/1.1/DTD/svg11.dtd">
<svg version="1.1" id="Layer_1" xmlns="http://www.w3.org/2000/svg" xmlns:xlink="http://www.w3.org/1999/xlink" x="0px" y="0px"
	 width="21.169px" height="30.188px" viewBox="0 0 21.169 30.188" enable-background="new 0 0 21.169 30.188" xml:space="preserve">
<g>
	<g>
		<path fill="#818181" d="M15.67,8.72c0,0.311-0.12,0.59-0.33,0.811L9.93,14.93c-0.21,0.221-0.5,0.33-0.8,0.33s-0.58-0.109-0.8-0.33
			L5.7,12.3c-0.44-0.439-0.44-1.16,0-1.6c0.43-0.431,1.17-0.42,1.6,0l1.83,1.84l4.609-4.61c0.42-0.43,1.17-0.43,1.601,0
			C15.55,8.14,15.67,8.42,15.67,8.72z"/>
	</g>
	<g>
		<path fill="#818181" d="M20.54,2v15.99l-3-3V3H3v21.43h4.819c0.58,0.5,1.311,0.771,2.09,0.771c0.641,0,1.24-0.181,1.771-0.521
			v2.75H2c-1.101,0-2-0.899-2-2V2c0-1.1,0.899-2,2-2h16.54C19.64,0,20.54,0.9,20.54,2z"/>
	</g>
	<g>
		<g>
			<g>
				<path fill="#818181" d="M20.81,22.84c-0.08,0.08-0.17,0.15-0.27,0.2c-0.189,0.11-0.4,0.16-0.61,0.16
					c-0.319,0-0.64-0.12-0.88-0.36l-1.51-1.51l-1.381-1.38v8.999c0,0.68-0.549,1.239-1.239,1.239s-1.24-0.56-1.24-1.239V19.95
					l-2.89,2.89c-0.25,0.24-0.561,0.36-0.881,0.36c-0.319,0-0.639-0.12-0.879-0.36c-0.49-0.49-0.49-1.27,0-1.76l5.01-5.01
					c0.23-0.24,0.55-0.36,0.88-0.36s0.64,0.12,0.88,0.36l1.74,1.739l3,3l0.27,0.271c0.19,0.2,0.301,0.43,0.34,0.67
					C21.22,22.14,21.101,22.54,20.81,22.84z"/>
			</g>
		</g>
	</g>
</g>
</svg>
