<?xml version="1.0" encoding="utf-8"?>
<!-- Generator: Adobe Illustrator 15.0.0, SVG Export Plug-In . SVG Version: 6.00 Build 0)  -->
<!DOCTYPE svg PUBLIC "-//W3C//DTD SVG 1.1//EN" "http://www.w3.org/Graphics/SVG/1.1/DTD/svg11.dtd">
<svg version="1.1" id="Layer_1" xmlns="http://www.w3.org/2000/svg" xmlns:xlink="http://www.w3.org/1999/xlink" x="0px" y="0px"
	 width="22.82px" height="26.926px" viewBox="0 0 22.82 26.926" enable-background="new 0 0 22.82 26.926" xml:space="preserve">
<g>
	<g>
		<g>
			<path fill="#818181" d="M22.82,18.734v6.691c0,0.828-0.67,1.5-1.5,1.5H1.5c-0.83,0-1.5-0.672-1.5-1.5v-6.691
				c0-0.82,0.67-1.5,1.5-1.5s1.5,0.68,1.5,1.5v5.191h16.82v-5.191c0-0.82,0.67-1.5,1.5-1.5S22.82,17.914,22.82,18.734z"/>
		</g>
	</g>
	<g>
		<path fill="#818181" d="M19.61,9.711C19.32,10,18.94,10.15,18.55,10.15c-0.38,0-0.76-0.15-1.06-0.439l-4.58-4.58V17.08
			c0,0.83-0.67,1.5-1.5,1.5s-1.5-0.67-1.5-1.5V5.131l-4.58,4.58c-0.59,0.58-1.54,0.58-2.12,0c-0.59-0.59-0.59-1.541,0-2.131
			l7.141-7.139C10.42,0.371,10.5,0.301,10.59,0.25c0.08-0.049,0.17-0.1,0.261-0.129c0.359-0.15,0.77-0.15,1.13,0
			c0.189,0.07,0.35,0.18,0.489,0.32L19.61,7.58C20.2,8.17,20.2,9.121,19.61,9.711z"/>
	</g>
	<g>
		<path fill="#818181" d="M11.98,0.121c-0.36-0.15-0.771-0.15-1.13,0C11.021,0.041,11.21,0,11.41,0S11.811,0.041,11.98,0.121z"/>
	</g>
</g>
</svg>
