<?xml version="1.0" encoding="utf-8"?>
<!-- Generator: Adobe Illustrator 15.0.0, SVG Export Plug-In . SVG Version: 6.00 Build 0)  -->
<!DOCTYPE svg PUBLIC "-//W3C//DTD SVG 1.1//EN" "http://www.w3.org/Graphics/SVG/1.1/DTD/svg11.dtd">
<svg version="1.1" id="Layer_1" xmlns="http://www.w3.org/2000/svg" xmlns:xlink="http://www.w3.org/1999/xlink" x="0px" y="0px"
	 width="22.43px" height="30.35px" viewBox="0 0 22.43 30.35" enable-background="new 0 0 22.43 30.35" xml:space="preserve">
<g>
	<g>
		<g>
			<g>
				<path fill="#1D69B2" d="M11.229,0C7.01,0,3.6,3.42,3.6,7.63s3.41,7.63,7.63,7.63c4.222,0,7.631-3.42,7.631-7.63
					S15.45,0,11.229,0z M11.229,12.26c-2.55,0-4.63-2.08-4.63-4.63C6.6,5.07,8.68,3,11.229,3C13.79,3,15.86,5.07,15.86,7.63
					C15.86,10.18,13.79,12.26,11.229,12.26z"/>
			</g>
		</g>
	</g>
	<g>
		<g>
			<path fill="#1D69B2" d="M19.38,14.95c-2.01,2.229-4.92,3.64-8.15,3.64c-3.238,0-6.159-1.41-8.159-3.66
				C1.26,15.81,0,17.67,0,19.82v9.529c0,0.551,0.439,1,1,1h20.43c0.55,0,1-0.449,1-1V19.82C22.43,17.68,21.19,15.83,19.38,14.95z
				 M19.43,27.35H3v-7.53C3,19.54,3.05,19.26,3.15,19c2.341,1.67,5.159,2.59,8.079,2.59c2.9,0,5.722-0.92,8.07-2.58
				c0.08,0.26,0.13,0.53,0.13,0.811L19.43,27.35L19.43,27.35z"/>
		</g>
	</g>
</g>
</svg>
