<?xml version="1.0" encoding="utf-8"?>
<!-- Generator: Adobe Illustrator 15.0.0, SVG Export Plug-In . SVG Version: 6.00 Build 0)  -->
<!DOCTYPE svg PUBLIC "-//W3C//DTD SVG 1.1//EN" "http://www.w3.org/Graphics/SVG/1.1/DTD/svg11.dtd">
<svg version="1.1" id="Layer_1" xmlns="http://www.w3.org/2000/svg" xmlns:xlink="http://www.w3.org/1999/xlink" x="0px" y="0px"
	 width="24.172px" height="25.824px" viewBox="0 0 24.172 25.824" enable-background="new 0 0 24.172 25.824" xml:space="preserve">
<g>
	<g>
		<g>
			<g>
				<path fill="#818181" d="M17.08,2.061C15.819,0.691,14.149,0,12.08,0C10,0,8.33,0.691,7.069,2.061
					c-1.25,1.371-1.88,3.25-1.88,5.631v5.609c0,2.391,0.63,4.26,1.891,5.631c1.26,1.359,2.939,2.039,5.029,2.039
					c2.07,0,3.73-0.68,4.99-2.039c1.25-1.371,1.88-3.24,1.88-5.631V7.691C18.979,5.311,18.35,3.432,17.08,2.061z M14.909,13.691
					c0,1.34-0.25,2.359-0.739,3.068c-0.49,0.721-1.181,1.07-2.061,1.07c-0.91,0-1.609-0.35-2.1-1.07
					c-0.5-0.709-0.74-1.729-0.74-3.068v-6.42c0-1.311,0.24-2.32,0.73-3.041c0.489-0.721,1.18-1.08,2.08-1.08
					c0.89,0,1.579,0.359,2.079,1.08s0.75,1.73,0.75,3.041V13.691z"/>
			</g>
		</g>
	</g>
	<g>
		<g>
			<path fill="#818181" d="M22.672,25.824H1.5c-0.828,0-1.5-0.672-1.5-1.498c0-0.828,0.672-1.5,1.5-1.5h21.172
				c0.828,0,1.5,0.672,1.5,1.5C24.172,25.152,23.5,25.824,22.672,25.824z"/>
		</g>
	</g>
</g>
</svg>
