<?xml version="1.0" encoding="utf-8"?>
<!-- Generator: Adobe Illustrator 15.0.0, SVG Export Plug-In . SVG Version: 6.00 Build 0)  -->
<!DOCTYPE svg PUBLIC "-//W3C//DTD SVG 1.1//EN" "http://www.w3.org/Graphics/SVG/1.1/DTD/svg11.dtd">
<svg version="1.1" id="Layer_1" xmlns="http://www.w3.org/2000/svg" xmlns:xlink="http://www.w3.org/1999/xlink" x="0px" y="0px"
	 width="28.138px" height="28.137px" viewBox="0 0 28.138 28.137" enable-background="new 0 0 28.138 28.137" xml:space="preserve">
<g>
	<g>
		<path fill="#818181" d="M27.484,23.142l-3.959-3.97c-0.75-0.74-1.91-0.851-2.771-0.301l-1.229-1.229
			c3.359-4.28,3.07-10.5-0.881-14.45c-4.27-4.26-11.18-4.25-15.449,0c-4.26,4.271-4.26,11.19,0,15.44
			c3.949,3.939,10.15,4.25,14.439,0.89l1.23,1.22c-0.54,0.86-0.44,2.021,0.31,2.771l3.979,3.979c0.861,0.86,2.281,0.86,3.15,0
			l1.18-1.189C28.355,25.432,28.355,24.012,27.484,23.142z M16.205,16.201c-2.92,2.92-7.65,2.92-10.561,0s-2.93-7.649,0-10.56
			c2.91-2.92,7.65-2.92,10.561,0C19.135,8.562,19.125,13.281,16.205,16.201z"/>
	</g>
	<g>
		<rect x="5.5" y="9.479" fill="#818181" width="10.852" height="2.879"/>
	</g>
</g>
</svg>
