<?xml version="1.0" encoding="utf-8"?>
<!-- Generator: Adobe Illustrator 15.0.0, SVG Export Plug-In . SVG Version: 6.00 Build 0)  -->
<!DOCTYPE svg PUBLIC "-//W3C//DTD SVG 1.1//EN" "http://www.w3.org/Graphics/SVG/1.1/DTD/svg11.dtd">
<svg version="1.1" id="Layer_1" xmlns="http://www.w3.org/2000/svg" xmlns:xlink="http://www.w3.org/1999/xlink" x="0px" y="0px"
	 width="28.138px" height="28.137px" viewBox="0 0 28.138 28.137" enable-background="new 0 0 28.138 28.137" xml:space="preserve">
<g>
	<g>
		<path fill="#818181" d="M27.475,23.146l-3.969-3.97c-0.75-0.74-1.891-0.84-2.75-0.311l-1.23-1.22
			c3.359-4.28,3.07-10.49-0.88-14.44c-4.271-4.27-11.181-4.26-15.44,0c-4.26,4.261-4.26,11.181,0,15.431
			c3.94,3.939,10.15,4.239,14.43,0.89l1.23,1.23c-0.54,0.859-0.439,2.01,0.311,2.76l3.959,3.97c0.871,0.86,2.291,0.86,3.16,0
			l1.18-1.18C28.346,25.436,28.346,24.016,27.475,23.146z M16.195,16.205c-2.91,2.92-7.63,2.92-10.561,0
			c-2.899-2.92-2.91-7.649,0-10.56c2.92-2.91,7.66-2.91,10.57,0C19.125,8.565,19.105,13.285,16.195,16.205z"/>
	</g>
	<g>
		<polygon fill="#818181" points="16.209,9.473 16.209,12.363 12.369,12.363 12.369,16.202 9.479,16.202 9.479,12.363 5.641,12.363 
			5.641,9.473 9.479,9.473 9.479,5.634 12.369,5.634 12.369,9.473 		"/>
	</g>
</g>
</svg>
