<?xml version="1.0" encoding="utf-8"?>
<!-- Generator: Adobe Illustrator 15.0.0, SVG Export Plug-In . SVG Version: 6.00 Build 0)  -->
<!DOCTYPE svg PUBLIC "-//W3C//DTD SVG 1.1//EN" "http://www.w3.org/Graphics/SVG/1.1/DTD/svg11.dtd">
<svg version="1.1" id="Layer_1" xmlns="http://www.w3.org/2000/svg" xmlns:xlink="http://www.w3.org/1999/xlink" x="0px" y="0px"
	 width="24.195px" height="24.188px" viewBox="0 0 24.195 24.188" enable-background="new 0 0 24.195 24.188" xml:space="preserve">
<g>
	<g>
		<g>
			<g>
				<path fill="#818181" d="M24.195,10.111v3.92c0,0.523-0.43,0.953-0.953,0.953h-8.201v8.25c0,0.523-0.43,0.953-0.953,0.953h-3.969
					c-0.523,0-0.953-0.43-0.953-0.953v-8.25H0.953C0.43,14.984,0,14.555,0,14.031v-3.92c0-0.525,0.43-0.955,0.953-0.955h8.213V0.953
					C9.166,0.43,9.596,0,10.119,0h3.969c0.523,0,0.953,0.43,0.953,0.953v8.203h8.201C23.766,9.156,24.195,9.586,24.195,10.111z"/>
			</g>
		</g>
	</g>
</g>
</svg>
