<?xml version="1.0" encoding="utf-8"?>
<!-- Generator: Adobe Illustrator 15.0.0, SVG Export Plug-In . SVG Version: 6.00 Build 0)  -->
<!DOCTYPE svg PUBLIC "-//W3C//DTD SVG 1.1//EN" "http://www.w3.org/Graphics/SVG/1.1/DTD/svg11.dtd">
<svg version="1.1" id="Layer_1" xmlns="http://www.w3.org/2000/svg" xmlns:xlink="http://www.w3.org/1999/xlink" x="0px" y="0px"
	 width="21.09px" height="27.43px" viewBox="0 0 21.09 27.43" enable-background="new 0 0 21.09 27.43" xml:space="preserve">
<g>
	<path fill="#818181" d="M20.54,5.56v19.87c0,1.101-0.899,2-2,2H2c-1.1,0-2-0.899-2-2V2c0-1.1,0.9-2,2-2h16.54
		c0.261,0,0.511,0.05,0.74,0.15C19.09,0.2,18.9,0.29,18.73,0.4c-1.25,0.83-2.27,1.77-3.051,2.6H3v4.14c0.01,0,0.01,0,0.02,0h7.5
		c0.551,0,1,0.41,1,0.9c0,0.5-0.449,0.9-1,0.9h-7.5c-0.01,0-0.01,0-0.02,0v2.64c0.01,0,0.01,0,0.02,0h11.91c0.551,0,1,0.4,1,0.9
		c0,0.489-0.449,0.899-1,0.899H3.02c-0.01,0-0.01,0-0.02,0v2.64c0.01,0,0.01,0,0.02,0h11.91c0.551,0,1,0.4,1,0.9
		c0,0.49-0.449,0.9-1,0.9H3.02c-0.01,0-0.01,0-0.02,0v2.64c0.01,0,0.01,0,0.02,0h11.91c0.551,0,1,0.4,1,0.9
		c0,0.489-0.449,0.899-1,0.899H3.02c-0.01,0-0.01,0-0.02,0v2.17h14.54V9.99C18.211,8.85,19.311,7.08,20.54,5.56z"/>
	<path fill="#818181" d="M21.09,2.06c-0.18,0.16-0.369,0.33-0.55,0.511c-1.05,1.02-2.09,2.35-3,3.68
		C16.721,7.44,16,8.63,15.461,9.58C14.52,8.02,12.32,5.82,12.32,5.82l3.141,0.63c0,0,0.719-1.16,2.079-2.5
		c0.63-0.62,1.4-1.29,2.3-1.891H21.09z"/>
</g>
</svg>
