<?xml version="1.0" encoding="utf-8"?>
<!-- Generator: Adobe Illustrator 15.0.0, SVG Export Plug-In . SVG Version: 6.00 Build 0)  -->
<!DOCTYPE svg PUBLIC "-//W3C//DTD SVG 1.1//EN" "http://www.w3.org/Graphics/SVG/1.1/DTD/svg11.dtd">
<svg version="1.1" id="Layer_1" xmlns="http://www.w3.org/2000/svg" xmlns:xlink="http://www.w3.org/1999/xlink" x="0px" y="0px"
	 width="19px" height="19px" viewBox="0 0 19 19" enable-background="new 0 0 19 19" xml:space="preserve">
<path fill="#898584" d="M19,14.019C19,16.77,16.739,19,13.951,19H5.049C2.261,19,0,16.77,0,14.019V4.981C0,2.23,2.261,0,5.049,0
	h8.902C16.739,0,19,2.23,19,4.981V14.019z M18,5.402C18,2.971,15.898,1,13.307,1H5.693C3.102,1,1,2.971,1,5.402v8.195
	C1,16.029,3.102,18,5.693,18h7.613C15.898,18,18,16.029,18,13.598V5.402z"/>
</svg>
