<?xml version="1.0" encoding="utf-8"?>
<!-- Generator: Adobe Illustrator 15.0.0, SVG Export Plug-In . SVG Version: 6.00 Build 0)  -->
<!DOCTYPE svg PUBLIC "-//W3C//DTD SVG 1.1//EN" "http://www.w3.org/Graphics/SVG/1.1/DTD/svg11.dtd">
<svg version="1.1" id="Layer_1" xmlns="http://www.w3.org/2000/svg" xmlns:xlink="http://www.w3.org/1999/xlink" x="0px" y="0px"
	 width="24.133px" height="24.125px" viewBox="0 0 24.133 24.125" enable-background="new 0 0 24.133 24.125" xml:space="preserve">
<g>
	<g>
		<path fill="#818181" d="M20.682,1.725v2.586c0,1.424-1.162,2.584-2.586,2.584c-1.427,0-2.585-1.16-2.585-2.584V1.725H8.617v2.586
			c0,1.424-1.161,2.584-2.585,2.584c-1.427,0-2.585-1.16-2.585-2.584V1.725C1.546,1.725,0,3.268,0,5.172v3.447h24.127V5.172
			C24.127,3.268,22.583,1.725,20.682,1.725z"/>
	</g>
	<g>
		<path fill="#818181" d="M6.032,0C5.558,0,5.171,0.389,5.171,0.863v3.447c0,0.473,0.387,0.861,0.861,0.861s0.861-0.389,0.861-0.861
			V0.863C6.894,0.389,6.507,0,6.032,0z"/>
	</g>
	<g>
		<path fill="#818181" d="M18.096,0c-0.475,0-0.861,0.389-0.861,0.863v3.447c0,0.473,0.387,0.861,0.861,0.861
			s0.861-0.389,0.861-0.861V0.863C18.957,0.389,18.57,0,18.096,0z"/>
	</g>
	<g>
		<g>
			<path fill="#818181" d="M0.003,10.334v11.791c0,1.1,0.891,2,2,2h20.13c1.101,0,2-0.9,2-2V10.334H0.003z M21.133,21.125H3.003
				v-7.791h18.13V21.125z"/>
		</g>
	</g>
</g>
</svg>
