<?xml version="1.0" encoding="utf-8"?>
<!-- Generator: Adobe Illustrator 15.0.2, SVG Export Plug-In . SVG Version: 6.00 Build 0)  -->
<!DOCTYPE svg PUBLIC "-//W3C//DTD SVG 1.1//EN" "http://www.w3.org/Graphics/SVG/1.1/DTD/svg11.dtd">
<svg version="1.1" id="Layer_1" xmlns="http://www.w3.org/2000/svg" xmlns:xlink="http://www.w3.org/1999/xlink" x="0px" y="0px"
	 width="19.097px" height="19.09px" viewBox="0 -4.89 19.097 19.09" enable-background="new 0 -4.89 19.097 19.09"
	 xml:space="preserve">
<g>
	<path fill="#808080" d="M18.661,4.654c0,5.033-4.083,9.113-9.112,9.113c-5.033,0-9.115-4.08-9.115-9.113
		c0-5.031,4.082-9.113,9.115-9.113C14.579-4.459,18.661-0.377,18.661,4.654z"/>
	<path fill="#808080" d="M9.549,14.174c-5.248,0-9.52-4.27-9.52-9.52c0-5.246,4.271-9.518,9.52-9.518s9.518,4.271,9.518,9.518
		C19.067,9.904,14.797,14.174,9.549,14.174z M9.549-4.053c-4.803,0-8.709,3.906-8.709,8.707c0,4.803,3.906,8.707,8.709,8.707
		s8.706-3.904,8.706-8.707C18.255-0.146,14.352-4.053,9.549-4.053z"/>
</g>
</svg>
