<?xml version="1.0" encoding="utf-8"?>
<!-- Generator: Adobe Illustrator 15.0.2, SVG Export Plug-In . SVG Version: 6.00 Build 0)  -->
<!DOCTYPE svg PUBLIC "-//W3C//DTD SVG 1.1//EN" "http://www.w3.org/Graphics/SVG/1.1/DTD/svg11.dtd">
<svg version="1.1" id="Layer_1" xmlns="http://www.w3.org/2000/svg" xmlns:xlink="http://www.w3.org/1999/xlink" x="0px" y="0px"
	 width="24.95px" height="20.408px" viewBox="0 1.122 24.95 20.408" enable-background="new 0 1.122 24.95 20.408"
	 xml:space="preserve">
<g>
	<g>
		<g>
			<g>
				<path fill="#878383" d="M3.747,7.972c-0.299,0-0.582-0.041-0.865-0.128C1.604,7.481,0.7,6.276,0.7,4.917
					c0-1.684,1.367-3.055,3.047-3.055c1.684,0,3.055,1.371,3.055,3.055c0,1.126-0.615,2.157-1.602,2.693
					C4.971,7.722,4.778,7.799,4.573,7.854C4.334,7.929,4.043,7.972,3.747,7.972z M3.747,3.995c-0.504,0-0.916,0.414-0.916,0.923
					c0,0.411,0.268,0.773,0.652,0.884c0.195,0.06,0.35,0.053,0.506,0.007C4.1,5.777,4.167,5.745,4.231,5.714
					C4.485,5.576,4.67,5.262,4.67,4.917C4.67,4.409,4.256,3.995,3.747,3.995z"/>
			</g>
		</g>
		<g>
			<g>
				<path fill="#878383" d="M7.12,20.323H2.637c-0.59,0-1.066-0.477-1.066-1.066v-4.045H1.04c-0.588,0-1.064-0.477-1.064-1.066
					V9.179c0-0.588,0.477-1.064,1.064-1.064h4.531c0.588,0,1.066,0.477,1.066,1.064c0,0.589-0.479,1.065-1.066,1.065H2.106v2.836
					h0.531c0.588,0,1.064,0.477,1.064,1.064v4.047H7.12c0.588,0,1.066,0.477,1.066,1.064C8.186,19.847,7.708,20.323,7.12,20.323z"/>
			</g>
		</g>
	</g>
	<g>
		<g>
			<g>
				<path fill="#878383" d="M21.202,7.972c-0.297,0-0.588-0.043-0.865-0.13c-0.166-0.043-0.359-0.12-0.541-0.208
					c-1.033-0.56-1.648-1.591-1.648-2.717c0-1.684,1.371-3.055,3.055-3.055c1.68,0,3.049,1.371,3.049,3.055
					c0,1.358-0.906,2.563-2.201,2.931C21.784,7.931,21.501,7.972,21.202,7.972z M21.202,3.995c-0.51,0-0.924,0.414-0.924,0.923
					c0,0.345,0.186,0.658,0.486,0.821c0.018,0.006,0.084,0.038,0.156,0.058c0.238,0.068,0.369,0.058,0.527,0.009
					c0.402-0.114,0.67-0.477,0.67-0.888C22.118,4.409,21.708,3.995,21.202,3.995z"/>
			</g>
		</g>
		<g>
			<g>
				<path fill="#878383" d="M22.312,20.323h-4.482c-0.588,0-1.064-0.477-1.064-1.066c0-0.588,0.477-1.064,1.064-1.064h3.418v-4.047
					c0-0.588,0.477-1.064,1.064-1.064h0.531v-2.836h-3.465c-0.588,0-1.066-0.477-1.066-1.065c0-0.588,0.479-1.064,1.066-1.064h4.531
					c0.588,0,1.066,0.477,1.066,1.064v4.966c0,0.59-0.479,1.066-1.066,1.066h-0.531v4.045
					C23.378,19.847,22.901,20.323,22.312,20.323z"/>
			</g>
		</g>
	</g>
	<g>
		<g>
			<g>
				<path fill="#878383" d="M12.497,7.709c-1.811,0-3.281-1.473-3.281-3.281c0-1.81,1.471-3.281,3.281-3.281
					c1.809,0,3.28,1.472,3.28,3.281C15.776,6.237,14.305,7.709,12.497,7.709z M12.497,3.278c-0.635,0-1.15,0.516-1.15,1.15
					c0,0.636,0.516,1.149,1.15,1.149s1.148-0.514,1.148-1.149C13.645,3.793,13.131,3.278,12.497,3.278z"/>
			</g>
		</g>
		<g>
			<g>
				<path fill="#878383" d="M14.711,21.505h-4.43c-0.59,0-1.066-0.477-1.066-1.064v-4.82H8.532c-0.588,0-1.064-0.477-1.064-1.066
					V9.031c0-0.589,0.477-1.065,1.064-1.065h7.952c0.588,0,1.066,0.477,1.066,1.065v5.523c0,0.59-0.479,1.066-1.066,1.066h-0.707
					v4.82C15.776,21.028,15.299,21.505,14.711,21.505z M11.346,19.374h2.299v-4.82c0-0.59,0.479-1.066,1.066-1.066h0.705v-3.39
					H9.598v3.39h0.684c0.588,0,1.064,0.477,1.064,1.066V19.374z"/>
			</g>
		</g>
	</g>
</g>
</svg>
