<?xml version="1.0" encoding="utf-8"?>
<!-- Generator: Adobe Illustrator 15.0.0, SVG Export Plug-In . SVG Version: 6.00 Build 0)  -->
<!DOCTYPE svg PUBLIC "-//W3C//DTD SVG 1.1//EN" "http://www.w3.org/Graphics/SVG/1.1/DTD/svg11.dtd">
<svg version="1.1" id="Layer_1" xmlns="http://www.w3.org/2000/svg" xmlns:xlink="http://www.w3.org/1999/xlink" x="0px" y="0px"
	 width="28.551px" height="28.55px" viewBox="0 0 28.551 28.55" enable-background="new 0 0 28.551 28.55" xml:space="preserve">
<g>
	<g>
		<path fill="#818181" d="M14.291,8.779c-3.041,0-5.5,2.459-5.5,5.49c0,3.039,2.459,5.49,5.5,5.49c3.02,0,5.479-2.451,5.479-5.49
			C19.77,11.238,17.311,8.779,14.291,8.779z M14.291,17.76c-1.932,0-3.5-1.57-3.5-3.49s1.568-3.49,3.5-3.49
			c1.92,0,3.479,1.57,3.479,3.49S16.211,17.76,14.291,17.76z"/>
	</g>
	<g>
		<path fill="#818181" d="M27.461,12.068h-1.32c-0.6,0-1.25-0.459-1.42-1.049l-0.76-1.83c-0.291-0.531-0.17-1.32,0.26-1.75
			l0.93-0.93c0.43-0.432,0.43-1.131,0-1.551L23.6,3.408c-0.209-0.219-0.5-0.33-0.779-0.33c-0.291,0-0.561,0.111-0.77,0.33
			l-0.941,0.92C20.83,4.609,20.42,4.75,20.029,4.75c-0.238,0-0.469-0.051-0.66-0.16l-1.85-0.75c-0.58-0.182-1.049-0.82-1.049-1.42
			V1.1c0-0.6-0.49-1.1-1.102-1.1H13.18c-0.6,0-1.1,0.5-1.1,1.1v1.32c0,0.6-0.461,1.238-1.051,1.42l-1.84,0.75
			C8.99,4.699,8.76,4.75,8.529,4.75c-0.398,0-0.809-0.141-1.08-0.422L6.51,3.408c-0.209-0.219-0.49-0.33-0.779-0.33
			c-0.27,0-0.551,0.111-0.77,0.33L3.41,4.959c-0.43,0.42-0.43,1.119,0,1.551l0.93,0.93c0.43,0.43,0.551,1.219,0.26,1.75l-0.75,1.83
			c-0.18,0.59-0.83,1.049-1.43,1.049H1.1c-0.609,0-1.1,0.5-1.1,1.102v2.209c0,0.6,0.49,1.08,1.1,1.08h1.32
			c0.6,0.01,1.25,0.48,1.42,1.061l0.76,1.84c0.291,0.529,0.17,1.32-0.26,1.74L3.4,22.039c-0.42,0.42-0.42,1.131,0,1.551l1.561,1.559
			c0.219,0.211,0.5,0.32,0.77,0.32c0.289,0,0.57-0.109,0.779-0.32l0.939-0.939c0.271-0.26,0.682-0.41,1.08-0.41
			c0.23,0,0.461,0.051,0.66,0.16l1.84,0.76c0.59,0.17,1.051,0.811,1.051,1.42v1.31c0,0.602,0.5,1.102,1.1,1.102h2.189
			c0.611,0,1.102-0.5,1.102-1.102v-1.31c0-0.609,0.469-1.25,1.049-1.42l1.85-0.76c0.201-0.109,0.432-0.16,0.66-0.16
			c0.4,0,0.82,0.15,1.08,0.41l0.941,0.939c0.209,0.211,0.479,0.32,0.77,0.32c0.279,0,0.57-0.109,0.779-0.32l1.551-1.559
			c0.43-0.42,0.43-1.131,0-1.551l-0.93-0.939c-0.43-0.42-0.551-1.211-0.26-1.74l0.76-1.84c0.17-0.58,0.82-1.051,1.42-1.051h1.32
			c0.6,0,1.09-0.49,1.09-1.09V13.17C28.551,12.568,28.061,12.068,27.461,12.068z M14.279,23.029c-4.83,0-8.76-3.93-8.76-8.76
			s3.93-8.75,8.76-8.75c4.82,0,8.762,3.92,8.762,8.75S19.1,23.029,14.279,23.029z"/>
	</g>
</g>
</svg>
