<?xml version="1.0" encoding="utf-8"?>
<!-- Generator: Adobe Illustrator 15.0.0, SVG Export Plug-In . SVG Version: 6.00 Build 0)  -->
<!DOCTYPE svg PUBLIC "-//W3C//DTD SVG 1.1//EN" "http://www.w3.org/Graphics/SVG/1.1/DTD/svg11.dtd">
<svg version="1.1" id="Layer_1" xmlns="http://www.w3.org/2000/svg" xmlns:xlink="http://www.w3.org/1999/xlink" x="0px" y="0px"
	 width="20.539px" height="27.44px" viewBox="0 0 20.539 27.44" enable-background="new 0 0 20.539 27.44" xml:space="preserve">
<g>
	<g>
		<g>
			<g>
				<path fill="#818181" d="M19.131,7l-5.57-5.58C12.779,0.64,11.25,0,10.15,0H2C0.9,0,0,0.91,0,2v23.44c0,1.1,0.9,2,2,2h16.539
					c1.102,0,2-0.9,2-2V10.41C20.539,9.31,19.91,7.78,19.131,7z M12.561,4.66l3.289,3.31h-3.289V4.66z M17.539,24.44H3V3h6.561v6.47
					c0,0.83,0.68,1.5,1.5,1.5h6.479V24.44z"/>
				<path fill="#818181" d="M15.699,14.83c0,0.3-0.109,0.59-0.33,0.8l-5.398,5.41c-0.221,0.21-0.5,0.33-0.801,0.33
					s-0.59-0.12-0.801-0.33L5.74,18.41c-0.221-0.22-0.33-0.5-0.33-0.8c0-0.311,0.109-0.591,0.33-0.801c0.42-0.43,1.17-0.43,1.59,0
					l1.84,1.83l4.609-4.609c0.42-0.431,1.17-0.431,1.59,0C15.59,14.24,15.699,14.53,15.699,14.83z"/>
			</g>
		</g>
	</g>
</g>
</svg>
