<?xml version="1.0" encoding="utf-8"?>
<!-- Generator: Adobe Illustrator 15.0.0, SVG Export Plug-In . SVG Version: 6.00 Build 0)  -->
<!DOCTYPE svg PUBLIC "-//W3C//DTD SVG 1.1//EN" "http://www.w3.org/Graphics/SVG/1.1/DTD/svg11.dtd">
<svg version="1.1" id="Layer_1" xmlns="http://www.w3.org/2000/svg" xmlns:xlink="http://www.w3.org/1999/xlink" x="0px" y="0px"
	 width="23.236px" height="29.372px" viewBox="0 0 23.236 29.372" enable-background="new 0 0 23.236 29.372" xml:space="preserve">
<g>
	<g>
		<path fill="#818181" d="M8.305,11.893h-0.35c-0.4,0-0.721,0.371-0.707,0.82l0.35,11.875c0.008,0.449,0.352,0.82,0.758,0.82h0.162
			c0.406,0,0.734-0.371,0.727-0.82L9.055,12.713C9.047,12.264,8.705,11.893,8.305,11.893L8.305,11.893z"/>
	</g>
	<g>
		<path fill="#818181" d="M11.801,11.893h-0.357c-0.4,0-0.729,0.371-0.721,0.82l0.08,11.875c0,0.449,0.336,0.82,0.736,0.82h0.166
			c0.4,0,0.729-0.371,0.736-0.82l0.08-11.875C12.521,12.264,12.201,11.893,11.801,11.893L11.801,11.893z"/>
	</g>
	<g>
		<path fill="#818181" d="M15.289,11.893h-0.357c-0.4,0-0.729,0.371-0.734,0.82l-0.189,11.875c-0.014,0.449,0.312,0.82,0.713,0.82
			h0.176c0.4,0,0.736-0.371,0.75-0.82l0.342-11.875C16.004,12.264,15.689,11.893,15.289,11.893L15.289,11.893z"/>
	</g>
	<g>
		<g>
			<path fill="#818181" d="M20.449,7.293H2.779c-0.57,0-1.02,0.449-0.99,1.029L1.83,9.262v0.1l0.799,17.931
				c0.061,1.141,1.031,2.08,2.191,2.08h13.6c1.141,0,2.119-0.939,2.17-2.08l0.801-17.931v-0.1l0.059-0.939
				C21.469,7.742,21.02,7.293,20.449,7.293z M17.629,26.373H5.6l-0.721-16.08H18.35L17.629,26.373z"/>
		</g>
		<g>
			<path fill="#818181" d="M13.5,0H9.736C9.162,0,8.693,0.471,8.693,1.043v1.24H2.086C0.936,2.283,0,3.023,0,3.941
				C0,4.85,0.936,5.59,2.086,5.59h19.066c1.146,0,2.084-0.74,2.084-1.648c0-0.918-0.938-1.658-2.084-1.658h-6.609v-1.24
				C14.543,0.471,14.074,0,13.5,0L13.5,0z"/>
		</g>
	</g>
</g>
</svg>
