<?xml version="1.0" encoding="utf-8"?>
<!-- Generator: Adobe Illustrator 15.0.0, SVG Export Plug-In . SVG Version: 6.00 Build 0)  -->
<!DOCTYPE svg PUBLIC "-//W3C//DTD SVG 1.1//EN" "http://www.w3.org/Graphics/SVG/1.1/DTD/svg11.dtd">
<svg version="1.1" id="Layer_1" xmlns="http://www.w3.org/2000/svg" xmlns:xlink="http://www.w3.org/1999/xlink" x="0px" y="0px"
	 width="26.469px" height="26.469px" viewBox="0 0 26.469 26.469" enable-background="new 0 0 26.469 26.469" xml:space="preserve">
<g>
	<g>
		<path fill="#818181" d="M13.234,3c5.644,0,10.234,4.591,10.234,10.234s-4.591,10.234-10.234,10.234S3,18.878,3,13.234
			S7.591,3,13.234,3 M13.234,0C5.925,0,0,5.925,0,13.234s5.925,13.234,13.234,13.234s13.234-5.925,13.234-13.234S20.544,0,13.234,0
			L13.234,0z"/>
	</g>
	<g>
		<path fill="#818181" d="M16.544,18.044c-0.384,0-0.768-0.146-1.061-0.439l-3.31-3.31c-0.281-0.281-0.439-0.663-0.439-1.061V6.633
			c0-0.828,0.672-1.5,1.5-1.5s1.5,0.672,1.5,1.5v5.98l2.87,2.87c0.586,0.586,0.586,1.535,0,2.121
			C17.312,17.897,16.928,18.044,16.544,18.044z"/>
	</g>
</g>
</svg>
