<?xml version="1.0" encoding="utf-8"?>
<!-- Generator: Adobe Illustrator 15.0.0, SVG Export Plug-In . SVG Version: 6.00 Build 0)  -->
<!DOCTYPE svg PUBLIC "-//W3C//DTD SVG 1.1//EN" "http://www.w3.org/Graphics/SVG/1.1/DTD/svg11.dtd">
<svg version="1.1" id="Layer_1" xmlns="http://www.w3.org/2000/svg" xmlns:xlink="http://www.w3.org/1999/xlink" x="0px" y="0px"
	 width="23.32px" height="29.859px" viewBox="0 0 23.32 29.859" enable-background="new 0 0 23.32 29.859" xml:space="preserve">
<g>
	<g>
		<g>
			<g>
				<path fill="#818181" d="M21.54,17.34c-0.33-2.42-0.92-3.961-1.01-4.281c-0.12-0.309-1.55-0.889-2.95-1.549V9.199
					c0-1.1-0.63-2.641-1.41-3.42L11.81,1.41C11.03,0.629,9.5,0,8.4,0H2C0.9,0,0,0.9,0,2v19.49c0,1.1,0.9,2,2,2h6.49l0.96,1.1
					c0.7,0.779,1.38,1.539,1.96,2.129c1.189,1.209,2.3,1.41,3.02,1.41l7.091-6.729C21.521,21.4,21.97,20.51,21.54,17.34z
					 M14.58,10.49c-0.5-0.25-2.271-1.09-2.88-1.09c-0.48,0-0.73,0.18-1.08,0.828c-0.54,1,2.04,3.281,3.96,3.91v6.352H3V3h5.39
					C8.64,3,9.1,3.17,9.42,3.35v3.369c0,0.83,0.67,1.5,1.5,1.5h3.34c0.17,0.32,0.32,0.75,0.32,0.98V10.49z"/>
			</g>
		</g>
	</g>
	<g>
		<polygon fill="#818181" points="23.32,23.32 16.24,29.859 15.47,29.178 14.8,28.588 21.87,21.869 22.521,22.51 		"/>
	</g>
</g>
</svg>
