<?xml version="1.0" encoding="utf-8"?>
<!-- Generator: Adobe Illustrator 15.0.0, SVG Export Plug-In . SVG Version: 6.00 Build 0)  -->
<!DOCTYPE svg PUBLIC "-//W3C//DTD SVG 1.1//EN" "http://www.w3.org/Graphics/SVG/1.1/DTD/svg11.dtd">
<svg version="1.1" id="Layer_1" xmlns="http://www.w3.org/2000/svg" xmlns:xlink="http://www.w3.org/1999/xlink" x="0px" y="0px"
	 width="28.199px" height="25.989px" viewBox="0 0 28.199 25.989" enable-background="new 0 0 28.199 25.989" xml:space="preserve">
<g>
	<g>
		<path fill="#818181" d="M13.23,0C5.921,0,0,5.93,0,13.239c0,6.09,4.11,11.21,9.7,12.75c-0.37-0.779-0.319-1.71,0.141-2.52
			l0.279-0.48C6,21.67,3,17.8,3,13.239C3,7.59,7.591,3,13.23,3c5.31,0,9.69,4.069,10.18,9.25l0.511,0.89l1.52,2.67l0.54,0.95
			c0.32-1.12,0.48-2.3,0.48-3.521C26.461,5.93,20.54,0,13.23,0z"/>
		<g>
			<g>
				<g>
					<g>
						<g>
							<g>
								<path fill="#818181" d="M28.061,24.449L25.5,19.96l-0.439-0.78l-0.43-0.75L23.7,16.8l-0.569-0.99l-0.95-1.68l-1.76-3.09
									c-0.16-0.29-0.381-0.44-0.591-0.44c-0.22,0-0.439,0.15-0.6,0.44l-7.05,12.38l-0.08,0.13l-0.22,0.38l-0.29,0.52
									C11.261,25.02,11.54,25.5,12.2,25.5h15.25C28.11,25.5,28.391,25.02,28.061,24.449z M19.03,15.489
									c0.01-0.42,0.34-0.739,0.75-0.739h0.09c0.42,0,0.75,0.329,0.75,0.75v0.029l-0.159,3.29l-0.091,1.73l-0.01,0.279l-0.02,0.301
									c-0.011,0.26-0.21,0.46-0.46,0.47H19.78c-0.16,0-0.3-0.08-0.38-0.21c-0.06-0.07-0.09-0.16-0.1-0.26l-0.011-0.301v-0.01
									l-0.029-0.52l-0.23-4.8V15.489z M19.82,24.06c-0.479,0-0.88-0.4-0.88-0.89c0-0.49,0.4-0.891,0.88-0.891
									c0.49,0,0.891,0.4,0.891,0.891C20.711,23.659,20.311,24.06,19.82,24.06z"/>
							</g>
						</g>
					</g>
				</g>
			</g>
		</g>
	</g>
	<g>
		<path fill="#818181" d="M10.71,18.047c-0.384,0-0.768-0.146-1.061-0.439c-0.586-0.586-0.586-1.535,0-2.121l2.87-2.87v-5.98
			c0-0.828,0.672-1.5,1.5-1.5s1.5,0.672,1.5,1.5v6.602c0,0.397-0.158,0.779-0.439,1.061l-3.31,3.31
			C11.478,17.9,11.094,18.047,10.71,18.047z"/>
	</g>
</g>
</svg>
