<?xml version="1.0" encoding="utf-8"?>
<!-- Generator: Adobe Illustrator 15.0.0, SVG Export Plug-In . SVG Version: 6.00 Build 0)  -->
<!DOCTYPE svg PUBLIC "-//W3C//DTD SVG 1.1//EN" "http://www.w3.org/Graphics/SVG/1.1/DTD/svg11.dtd">
<svg version="1.1" id="Layer_1" xmlns="http://www.w3.org/2000/svg" xmlns:xlink="http://www.w3.org/1999/xlink" x="0px" y="0px"
	 width="25.709px" height="28.85px" viewBox="0 0 25.709 28.85" enable-background="new 0 0 25.709 28.85" xml:space="preserve">
<g>
	<g>
		<path fill="#818181" d="M24.37,17.979c-0.961-0.56-2.121-0.46-2.961,0.171l-3.01-1.74c0.24-0.61,0.35-1.28,0.35-1.98
			s-0.109-1.37-0.35-1.989l3.01-1.74c0,0,0,0,0.01,0c0.84,0.63,1.99,0.729,2.951,0.18c1.279-0.75,1.719-2.38,0.979-3.67
			c-0.75-1.28-2.389-1.72-3.67-0.98c-0.959,0.551-1.449,1.61-1.32,2.65l-3.02,1.74c-0.85-1.03-2.059-1.76-3.43-2V5.16
			c0.961-0.41,1.631-1.37,1.631-2.48C15.54,1.2,14.339,0,12.849,0c-1.479,0-2.68,1.2-2.68,2.68c0,1.11,0.67,2.07,1.621,2.48v3.46
			c-1.371,0.26-2.57,0.97-3.432,2l-3.01-1.73c0,0,0,0,0-0.01c0.131-1.04-0.369-2.11-1.33-2.65c-1.27-0.739-2.92-0.3-3.66,0.98
			c-0.738,1.29-0.299,2.92,0.98,3.66C2.3,11.43,3.45,11.33,4.29,10.71l3.02,1.74c-0.24,0.62-0.35,1.279-0.35,1.979
			s0.109,1.36,0.35,1.971L4.3,18.15c-0.84-0.631-2-0.73-2.961-0.181c-1.279,0.75-1.719,2.38-0.98,3.67
			c0.74,1.28,2.391,1.721,3.66,0.98c0.961-0.561,1.451-1.601,1.32-2.641l3.02-1.739c0.871,1.01,2.061,1.729,3.432,1.989V23.7
			c-0.951,0.399-1.621,1.359-1.621,2.47c0,1.48,1.201,2.68,2.68,2.68c1.49,0,2.691-1.199,2.682-2.68c0.01-1.12-0.66-2.06-1.621-2.47
			v-3.471c1.371-0.25,2.57-0.97,3.43-1.989l3.02,1.739c-0.129,1.04,0.371,2.091,1.32,2.641c1.281,0.74,2.92,0.3,3.67-0.98
			C26.089,20.35,25.649,18.72,24.37,17.979z M12.849,17.15c-1.5,0-2.719-1.221-2.719-2.721c0-1.51,1.219-2.739,2.719-2.739
			c1.51,0,2.73,1.229,2.73,2.739C15.579,15.93,14.358,17.15,12.849,17.15z"/>
	</g>
</g>
</svg>
