<?xml version="1.0" encoding="utf-8"?>
<!-- Generator: Adobe Illustrator 15.0.0, SVG Export Plug-In . SVG Version: 6.00 Build 0)  -->
<!DOCTYPE svg PUBLIC "-//W3C//DTD SVG 1.1//EN" "http://www.w3.org/Graphics/SVG/1.1/DTD/svg11.dtd">
<svg version="1.1" id="Layer_1" xmlns="http://www.w3.org/2000/svg" xmlns:xlink="http://www.w3.org/1999/xlink" x="0px" y="0px"
	 width="27.301px" height="25.78px" viewBox="0 0 27.301 25.78" enable-background="new 0 0 27.301 25.78" xml:space="preserve">
<g>
	<g>
		<path fill="#818181" d="M26.201,2.1H13.061v-1c0-0.609-0.5-1.1-1.1-1.1h-8.18C3.17,0,2.67,0.49,2.67,1.1v1H1.102
			C0.49,2.1,0,2.6,0,3.209v16.1c0,1.221,0.99,2.211,2.201,2.211H14.42l-3.01-3H3V5.1h2.67V3h4.391v2.1h14.24v7.561
			c0.449,0.148,0.859,0.41,1.199,0.76c0.611,0.609,0.951,1.42,0.951,2.289c0,0.861-0.33,1.68-0.951,2.291l-3.52,3.52h3.121
			c1.209,0,2.199-0.99,2.199-2.211v-16.1C27.301,2.6,26.811,2.1,26.201,2.1z"/>
	</g>
	<g>
		<g>
			<g>
				<path fill="#818181" d="M24.301,16.289C24.25,16.4,24.182,16.5,24.092,16.59l-1.932,1.93l-3.08,3.08
					c-0.229,0.23-0.549,0.359-0.879,0.359s-0.65-0.129-0.881-0.359l-3.08-3.08l-1.93-1.93c-0.48-0.49-0.48-1.27,0-1.76
					c0.24-0.24,0.561-0.361,0.881-0.361s0.639,0.121,0.879,0.361l2.891,2.889v-9.24c0-0.68,0.551-1.238,1.24-1.238
					s1.24,0.559,1.24,1.238v9.24l2.889-2.889c0.24-0.24,0.561-0.361,0.881-0.361s0.641,0.121,0.881,0.361
					c0.09,0.09,0.158,0.189,0.209,0.299C24.5,15.49,24.5,15.93,24.301,16.289z"/>
			</g>
		</g>
	</g>
	<g>
		<path fill="#818181" d="M27.301,24.13v0.65c0,0.549-0.449,1-1,1H10.102c-0.551,0-1-0.451-1-1v-0.65c0-0.55,0.449-1.001,1-1.001
			h16.199C26.852,23.129,27.301,23.58,27.301,24.13z"/>
	</g>
</g>
</svg>
