<?xml version="1.0" encoding="utf-8"?>
<!-- Generator: Adobe Illustrator 15.0.0, SVG Export Plug-In . SVG Version: 6.00 Build 0)  -->
<!DOCTYPE svg PUBLIC "-//W3C//DTD SVG 1.1//EN" "http://www.w3.org/Graphics/SVG/1.1/DTD/svg11.dtd">
<svg version="1.1" id="Layer_1" xmlns="http://www.w3.org/2000/svg" xmlns:xlink="http://www.w3.org/1999/xlink" x="0px" y="0px"
	 width="22.83px" height="26.922px" viewBox="0 0 22.83 26.922" enable-background="new 0 0 22.83 26.922" xml:space="preserve">
<g>
	<g>
		<g>
			<path fill="#818181" d="M22.83,18.73v6.691c0,0.828-0.681,1.5-1.5,1.5H1.5c-0.819,0-1.5-0.672-1.5-1.5V18.73
				c0-0.82,0.681-1.5,1.5-1.5c0.83,0,1.5,0.68,1.5,1.5v5.191h16.83V18.73c0-0.82,0.67-1.5,1.5-1.5
				C22.149,17.23,22.83,17.91,22.83,18.73z"/>
		</g>
	</g>
	<g>
		<path fill="#818181" d="M19.62,11l-7.141,7.141c-0.14,0.141-0.299,0.25-0.479,0.32c-0.181,0.08-0.37,0.119-0.58,0.119
			c-0.13,0-0.26-0.02-0.38-0.059c-0.07-0.01-0.141-0.031-0.2-0.061c-0.18-0.07-0.351-0.18-0.479-0.32h-0.01L3.21,11
			c-0.58-0.578-0.58-1.529,0-2.119c0.59-0.59,1.54-0.59,2.12,0l4.59,4.58V1.5c0-0.818,0.67-1.5,1.5-1.5c0.819,0,1.5,0.682,1.5,1.5
			v11.961l4.58-4.58c0.58-0.59,1.53-0.59,2.12,0C20.2,9.471,20.2,10.422,19.62,11z"/>
	</g>
</g>
</svg>
