<?xml version="1.0" encoding="utf-8"?>
<!-- Generator: Adobe Illustrator 15.0.0, SVG Export Plug-In . SVG Version: 6.00 Build 0)  -->
<!DOCTYPE svg PUBLIC "-//W3C//DTD SVG 1.1//EN" "http://www.w3.org/Graphics/SVG/1.1/DTD/svg11.dtd">
<svg version="1.1" id="Layer_1" xmlns="http://www.w3.org/2000/svg" xmlns:xlink="http://www.w3.org/1999/xlink" x="0px" y="0px"
	 width="25.763px" height="27.44px" viewBox="0 0 25.763 27.44" enable-background="new 0 0 25.763 27.44" xml:space="preserve">
<g>
	<g>
		<g>
			<g>
				<path fill="#818181" d="M18.289,24.08c-0.219,0.22-0.489,0.39-0.779,0.49l-4.65,1.54c-0.199,0.06-0.41,0.1-0.619,0.1
					c-0.531,0-1.041-0.21-1.42-0.59c-0.32-0.32-0.521-0.74-0.561-1.18H3V3h6.56v6.47c0,0.83,0.67,1.5,1.5,1.5h6.479V13l2.971-2.97
					C20.4,8.98,19.81,7.69,19.119,7l-5.56-5.58C12.779,0.64,11.24,0,10.14,0H2C0.9,0,0,0.91,0,2v23.44c0,1.1,0.9,2,2,2h16.539
					c1.101,0,2-0.9,2-2v-3.61L18.289,24.08z M12.56,4.67l3.29,3.3h-3.29V4.67z"/>
			</g>
		</g>
	</g>
	<g>
		<g>
			<g>
				<polygon fill="#818181" points="13.789,19.58 13.789,19.59 13.779,19.58 				"/>
				<path fill="#818181" d="M25.529,14.01c-0.01,0.021-0.02,0.03-0.029,0.04l-1.68,1.67l-3.08-3.08l1.609-1.609
					c0-0.011,0-0.021,0.01-0.021c0.01-0.01,0.01-0.02,0.021-0.02c0.01-0.01,0.021-0.021,0.03-0.03s0.02-0.02,0.029-0.03
					c0.01-0.01,0.01-0.02,0.02-0.02c0.011,0,0.011,0,0.021-0.01c0.351-0.29,0.88-0.28,1.21,0.06l1.811,1.8
					C25.84,13.1,25.85,13.65,25.529,14.01z"/>
			</g>
			<g>
				<path fill="#818181" d="M13.779,19.58l0.01,0.01v-0.01H13.779z"/>
			</g>
		</g>
		<g>
			<g>
				<path fill="#818181" d="M22.479,10.9l-0.13,0.13c0-0.011,0-0.021,0.01-0.021c0.01-0.01,0.01-0.02,0.021-0.02
					c0.01-0.01,0.021-0.021,0.03-0.03s0.02-0.02,0.029-0.03c0.01-0.01,0.01-0.02,0.02-0.02C22.47,10.91,22.47,10.91,22.479,10.9z"/>
			</g>
			<g>
				<g>
					<polygon fill="#818181" points="13.789,19.58 13.789,19.59 13.779,19.58 					"/>
				</g>
				<g>
					<path fill="#818181" d="M23.05,16.49L20.539,19v0.01l-3,2.99v0.01l-0.659,0.66h-0.011L15.93,22.98l-2.88,0.96
						c-0.431,0.069-0.64-0.21-0.49-0.681l0.92-2.74l0.31-0.93v-0.01l3.75-3.75v-0.01l2.42-2.42l0.57,0.569l-2.99,2.99l-3.18,3.19
						l0.971,0.97l2.209-2.21l3-2.99l0.971-0.97L23.05,16.49z"/>
				</g>
				<g>
					<path fill="#818181" d="M25.529,14.01c-0.01,0.021-0.02,0.03-0.029,0.04l-1.68,1.67l-3.08-3.08l1.609-1.609l0.13-0.13
						c0.351-0.29,0.88-0.28,1.21,0.06l1.811,1.8C25.84,13.1,25.85,13.65,25.529,14.01z"/>
				</g>
			</g>
		</g>
	</g>
</g>
</svg>
