<?xml version="1.0" encoding="utf-8"?>
<!-- Generator: Adobe Illustrator 15.0.0, SVG Export Plug-In . SVG Version: 6.00 Build 0)  -->
<!DOCTYPE svg PUBLIC "-//W3C//DTD SVG 1.1//EN" "http://www.w3.org/Graphics/SVG/1.1/DTD/svg11.dtd">
<svg version="1.1" id="Layer_1" xmlns="http://www.w3.org/2000/svg" xmlns:xlink="http://www.w3.org/1999/xlink" x="0px" y="0px"
	 width="23.791px" height="27.43px" viewBox="0 0 23.791 27.43" enable-background="new 0 0 23.791 27.43" xml:space="preserve">
<g>
	<g>
		<g>
			<path fill="#818181" d="M19.131,6.99l-5.57-5.57C12.781,0.64,11.25,0,10.15,0H2C0.9,0,0,0.9,0,2v23.43c0,1.101,0.9,2,2,2h10.9
				L9.961,24.49C9.941,24.47,9.92,24.45,9.91,24.43H3V3h6.561v6.46c0,0.83,0.68,1.5,1.5,1.5h6.48v7.74l2.43-2.42
				c0.17-0.17,0.359-0.32,0.57-0.45v-5.42C20.541,9.31,19.91,7.77,19.131,6.99z M12.561,7.96V4.65l3.289,3.31H12.561z"/>
		</g>
	</g>
	<g>
		<g>
			<g>
				<path fill="#818181" d="M23.791,18.67c0,0.37-0.15,0.73-0.41,0.99l-2.84,2.84l-3.881,3.88c-0.141,0.14-0.299,0.24-0.48,0.311
					c-0.16,0.069-0.33,0.1-0.51,0.1c-0.369,0-0.719-0.15-0.99-0.41l-1.949-1.95l-1.32-1.319C11.15,22.84,11,22.49,11,22.12
					s0.15-0.74,0.41-0.99c0.27-0.27,0.631-0.4,0.99-0.4c0.369,0,0.73,0.131,1,0.4l2.27,2.271l1.871-1.87l3-2.99l0.85-0.85
					c0.27-0.271,0.629-0.4,0.99-0.4c0.369,0,0.73,0.13,1,0.4C23.641,17.95,23.791,18.29,23.791,18.67z"/>
			</g>
		</g>
	</g>
</g>
</svg>
