<?xml version="1.0" encoding="utf-8"?>
<!-- Generator: Adobe Illustrator 15.0.0, SVG Export Plug-In . SVG Version: 6.00 Build 0)  -->
<!DOCTYPE svg PUBLIC "-//W3C//DTD SVG 1.1//EN" "http://www.w3.org/Graphics/SVG/1.1/DTD/svg11.dtd">
<svg version="1.1" id="Layer_1" xmlns="http://www.w3.org/2000/svg" xmlns:xlink="http://www.w3.org/1999/xlink" x="0px" y="0px"
	 width="25.613px" height="25.49px" viewBox="0 0 25.613 25.49" enable-background="new 0 0 25.613 25.49" xml:space="preserve">
<g>
	<g>
		<g>
			<path fill="#818181" d="M12.929,22.08c-0.02-0.03-0.039-0.06-0.061-0.09l-5.17-7.14L6.569,13.29l-1.121,1.561L0.3,21.99
				c-0.012,0.021-0.031,0.04-0.041,0.06c-0.551,0.83-0.199,1.5,0.84,1.5h12.891L12.929,22.08z M5.038,20.55l1.541-2.13l1.539,2.13
				H5.038z"/>
		</g>
	</g>
	<g>
		<g>
			<path fill="#818181" d="M23.13,0h-5.051c-1.061,0-2.42,0.71-3.041,1.561l-0.789,1.1c0,0,0,0.01-0.01,0.01L13.13,4.221l1.119,1.55
				l2.189,3.04l1.121,1.56l1.119-1.56l5.24-7.25c0.02-0.021,0.029-0.04,0.039-0.061C24.519,0.67,24.159,0,23.13,0z M17.56,5.24
				L17.249,4.8V3.63l0.199-0.279c0.121-0.141,0.49-0.33,0.631-0.351h1.1L17.56,5.24z"/>
		</g>
	</g>
	<g>
		<g>
			<path fill="#818181" d="M25.31,23.94l-7.641-10.61c-0.619-0.85-1.631-2.26-2.25-3.109l-2.189-3.04
				c-0.08-0.101-0.16-0.221-0.25-0.341l-0.561-0.79c-0.5-0.689-1.039-1.439-1.43-1.97l-1.811-2.52C8.569,0.71,7.198,0,6.14,0H1.108
				c-1.029,0-1.4,0.66-0.85,1.48c0.01,0.03,0.029,0.05,0.051,0.08l6.26,8.66c0.07,0.1,0.16,0.22,0.24,0.34
				c0.07,0.1,0.139,0.18,0.209,0.29l0.439,0.6c0.07,0.11,0.15,0.21,0.23,0.32c0,0,0,0,0,0.01l0.59,0.82
				c0.191,0.27,0.371,0.52,0.531,0.729l2.18,3.04c0.391,0.53,0.93,1.28,1.43,1.97c0.199,0.28,0.391,0.551,0.561,0.79
				c0.09,0.12,0.17,0.24,0.25,0.341l3.209,4.47c0.01,0.01,0.01,0.01,0.031,0.02c0.609,0.851,1.959,1.53,3.01,1.53h5.039
				C25.569,25.49,25.929,24.79,25.31,23.94z M19.509,22.49c-0.17-0.02-0.52-0.2-0.609-0.29h-0.01l-0.041-0.07l-0.039-0.05
				l-0.352-0.47l-2.799-3.9l-0.08-0.109l-0.16-0.221l-0.16-0.22l-0.41-0.58l-0.459-0.63c-0.361-0.49-0.701-0.979-0.961-1.33
				l-2.189-3.04l-0.25-0.35l-0.281-0.38l-0.02-0.04V10.79L10.108,10L9.979,9.82l-0.1-0.14l-0.4-0.54
				C9.429,9.061,9.368,8.98,9.31,8.9L9.269,8.84C9.198,8.74,9.13,8.641,9.06,8.55L8.999,8.46L5.05,3h1.059
				C6.3,3.03,6.649,3.21,6.739,3.311l1.83,2.54c0.25,0.35,0.57,0.79,0.9,1.239l0.51,0.71l0.539,0.761
				c0.08,0.1,0.15,0.189,0.211,0.29l0.07,0.09l2.189,3.03l0.029,0.05l2.211,3.069l5.34,7.4H19.509z"/>
		</g>
	</g>
	<g>
		<g>
			<path fill="#818181" d="M23.126,14.242h-2.76l1.121,1.552l2.434,3.361l1.119,1.562v-4.56
				C25.04,15.104,24.179,14.242,23.126,14.242L23.126,14.242z"/>
		</g>
	</g>
</g>
</svg>
