<?xml version="1.0" encoding="utf-8"?>
<!-- Generator: Adobe Illustrator 15.0.0, SVG Export Plug-In . SVG Version: 6.00 Build 0)  -->
<!DOCTYPE svg PUBLIC "-//W3C//DTD SVG 1.1//EN" "http://www.w3.org/Graphics/SVG/1.1/DTD/svg11.dtd">
<svg version="1.1" id="Layer_1" xmlns="http://www.w3.org/2000/svg" xmlns:xlink="http://www.w3.org/1999/xlink" x="0px" y="0px"
	 width="14.343px" height="14.35px" viewBox="0 0 14.343 14.35" enable-background="new 0 0 14.343 14.35" xml:space="preserve">
<g>
	<g>
		<g>
			<g>
				<path fill="#818181" d="M14.051,10.279l-2.43-2.439L10.91,7.131l0.711-0.701l2.369-2.369c0.381-0.391,0.381-1.01-0.01-1.4
					l-2.359-2.359C11.421,0.1,11.171,0,10.91,0c-0.26,0-0.51,0.1-0.71,0.301L7.801,2.699l-0.67,0.66l-0.66-0.66l-2.41-2.398
					C3.871,0.1,3.61,0,3.36,0c-0.26,0-0.52,0.1-0.71,0.301L0.291,2.66c-0.37,0.369-0.381,0.971-0.04,1.359L2.65,6.43l0.71,0.701
					L2.65,7.84l-2.41,2.42c-0.319,0.371-0.319,0.93,0,1.301l2.42,2.42c0.19,0.199,0.45,0.289,0.7,0.289c0.261,0,0.5-0.09,0.7-0.279
					l2.37-2.381l0.7-0.699l0.71,0.709l2.439,2.441c0.2,0.199,0.45,0.289,0.71,0.289c0.25,0,0.5-0.09,0.7-0.279l0.33-0.33l2.03-2.051
					C14.44,11.301,14.44,10.67,14.051,10.279z M10.99,12.65l-2.27-2.26L8.19,9.85l-1.06-1.061L6.07,9.85l-0.529,0.541L3.36,12.57
					l-1.649-1.66l2-2.01l1.77-1.77L4.421,6.07l-0.71-0.701l-2-2.01l1.649-1.65L6.07,4.42l1.061,1.07l1.77-1.77l2.01-2.012l1.65,1.65
					l-2,2.01L9.851,6.07l-1.06,1.061l1.77,1.77l2.08,2.09L10.99,12.65z"/>
			</g>
		</g>
	</g>
</g>
</svg>
