<?xml version="1.0" encoding="utf-8"?>
<!-- Generator: Adobe Illustrator 15.0.0, SVG Export Plug-In . SVG Version: 6.00 Build 0)  -->
<!DOCTYPE svg PUBLIC "-//W3C//DTD SVG 1.1//EN" "http://www.w3.org/Graphics/SVG/1.1/DTD/svg11.dtd">
<svg version="1.1" id="Layer_1" xmlns="http://www.w3.org/2000/svg" xmlns:xlink="http://www.w3.org/1999/xlink" x="0px" y="0px"
	 width="28.25px" height="25.479px" viewBox="0 0 28.25 25.479" enable-background="new 0 0 28.25 25.479" xml:space="preserve">
<g>
	<g>
		<path fill="#818181" d="M27.15,0H1.09C0.49,0,0,0.43,0,0.949V1.9l0.779,0.74c0.01,0.01,0.01,0.01,0.02,0.02l9.551,9
			c0.02,0.01,0.02,0.01,0.029,0.02l0.781,0.74v9.721c0,0.6,0.439,1.289,1,1.529l3.92,1.72c0.01,0,0.02,0.02,0.029,0.02
			c0.131,0.041,0.24,0.07,0.35,0.07c0.371,0,0.631-0.279,0.631-0.75V12.42l0.779-0.74c0.01-0.01,0.01-0.01,0.02-0.02l9.561-9
			c0.01-0.01,0.01-0.01,0.02-0.02L28.25,1.9V0.949C28.25,0.43,27.76,0,27.15,0z M15.939,9.369l-0.01,0.012L15.799,9.5l-0.77,0.74
			l-0.91,0.859l-0.9-0.859l-0.809-0.77L5.539,3h17.17L15.939,9.369z"/>
	</g>
</g>
</svg>
