<?xml version="1.0" encoding="utf-8"?>
<!-- Generator: Adobe Illustrator 15.0.2, SVG Export Plug-In . SVG Version: 6.00 Build 0)  -->
<!DOCTYPE svg PUBLIC "-//W3C//DTD SVG 1.1//EN" "http://www.w3.org/Graphics/SVG/1.1/DTD/svg11.dtd">
<svg version="1.1" id="Layer_1" xmlns="http://www.w3.org/2000/svg" xmlns:xlink="http://www.w3.org/1999/xlink" x="0px" y="0px"
	 width="29.25px" height="23.153px" viewBox="-0.18 3.896 29.25 23.153" enable-background="new -0.18 3.896 29.25 23.153"
	 xml:space="preserve">
<g>
	<path fill="#808080" d="M27.887,6.248H13.815V5.18c0-0.654-0.539-1.184-1.184-1.184h-8.76c-0.654,0-1.184,0.529-1.184,1.184v1.068
		H1.004c-0.655,0-1.184,0.539-1.184,1.184v17.25c0,1.299,1.059,2.367,2.357,2.367h24.525c1.299,0,2.367-1.068,2.367-2.367V7.432
		C29.071,6.787,28.533,6.248,27.887,6.248z M26.183,24.162H2.708V9.137h2.868V6.885h5.351v2.252h15.256V24.162z"/>
</g>
</svg>
