<?xml version="1.0" encoding="utf-8"?>
<!-- Generator: Adobe Illustrator 15.0.0, SVG Export Plug-In . SVG Version: 6.00 Build 0)  -->
<!DOCTYPE svg PUBLIC "-//W3C//DTD SVG 1.1//EN" "http://www.w3.org/Graphics/SVG/1.1/DTD/svg11.dtd">
<svg version="1.1" id="Layer_1" xmlns="http://www.w3.org/2000/svg" xmlns:xlink="http://www.w3.org/1999/xlink" x="0px" y="0px"
	 width="28.061px" height="28.07px" viewBox="0 0 28.061 28.07" enable-background="new 0 0 28.061 28.07" xml:space="preserve">
<g>
	<g>
		<path fill-rule="evenodd" clip-rule="evenodd" fill="#818181" d="M11.37,25.24c0.08,0.01,0.17,0.029,0.25,0.051
			c-0.01,0-0.01,0.01-0.02,0.01C11.521,25.291,11.44,25.26,11.37,25.24z"/>
		<path fill-rule="evenodd" clip-rule="evenodd" fill="#818181" d="M12.65,24.57c-0.17,0.189-0.37,0.371-0.62,0.51
			C12.28,24.93,12.48,24.76,12.65,24.57z"/>
		<path fill-rule="evenodd" clip-rule="evenodd" fill="#818181" d="M20.48,4.471c0.46,0.32,0.89,0.66,1.3,1.029
			C21.37,5.121,20.94,4.781,20.48,4.471z M6.29,5.5c0.4-0.369,0.84-0.709,1.29-1.029C7.13,4.781,6.69,5.121,6.29,5.5z M4.58,20.631
			c0.01,0.029,0.03,0.061,0.05,0.08l0.01-0.01C4.62,20.68,4.601,20.65,4.58,20.631z"/>
		<path fill-rule="evenodd" clip-rule="evenodd" fill="#818181" d="M11.37,25.24c0.08,0.01,0.17,0.029,0.25,0.051
			c-0.01,0-0.01,0.01-0.02,0.01C11.521,25.291,11.44,25.26,11.37,25.24z"/>
		<path fill-rule="evenodd" clip-rule="evenodd" fill="#818181" d="M12.65,24.57c-0.17,0.189-0.37,0.371-0.62,0.51
			C12.28,24.93,12.48,24.76,12.65,24.57z"/>
		<path fill-rule="evenodd" clip-rule="evenodd" fill="#818181" d="M20.48,4.471c0.46,0.32,0.89,0.66,1.3,1.029
			C21.37,5.121,20.94,4.781,20.48,4.471z M6.29,5.5c0.4-0.369,0.84-0.709,1.29-1.029C7.13,4.781,6.69,5.121,6.29,5.5z M4.58,20.631
			c0.01,0.029,0.03,0.061,0.05,0.08l0.01-0.01C4.62,20.68,4.601,20.65,4.58,20.631z"/>
		<polygon fill-rule="evenodd" clip-rule="evenodd" fill="#818181" points="21.94,10.82 21.94,12.67 19.47,12.67 19.47,15.15 
			17.601,15.15 17.601,12.67 15.12,12.67 15.12,10.82 17.601,10.82 17.601,8.35 19.47,8.35 19.47,10.82 		"/>
	</g>
	<path fill="#818181" d="M14.04,0C6.28,0,0,6.291,0,14.041c0,3.199,1.07,6.16,2.89,8.52c2.561,3.35,6.601,5.51,11.15,5.51
		c4.53,0,8.58-2.16,11.14-5.51c1.811-2.359,2.881-5.32,2.881-8.52C28.061,6.291,21.79,0,14.04,0z M25.521,14.99
		c0,0.01,0,0.02,0,0.02c-0.021,0.26-0.051,0.521-0.091,0.781c-0.04,0.25-0.079,0.5-0.14,0.74c-0.06,0.279-0.13,0.549-0.22,0.818
		c-0.12,0.451-0.28,0.891-0.48,1.311c-0.149,0.359-0.319,0.711-0.529,1.051c-0.101,0.189-0.21,0.389-0.341,0.57
		c-0.159,0.26-0.34,0.51-0.529,0.76c-0.28,0.359-0.57,0.699-0.88,1.02c-0.29,0.311-0.601,0.59-0.921,0.85
		c-0.159,0.15-0.329,0.281-0.51,0.4c-0.02,0.02-0.04,0.039-0.06,0.051c-0.24,0.17-0.48,0.34-0.73,0.488
		c-0.18,0.111-0.359,0.221-0.55,0.32c-1.55,0.861-3.32,1.34-5.17,1.381c-0.06,0-0.11,0.01-0.16,0.01c-0.06,0-0.12,0.01-0.17,0.01
		c-0.08,0-0.16,0-0.229-0.01c-0.08,0-0.16,0-0.24-0.01c-0.07,0.01-0.15,0-0.22-0.01h-0.12c-0.261-0.021-0.53-0.041-0.79-0.08
		c0,0-0.011,0-0.021,0c-0.52-0.07-1.04-0.18-1.54-0.33c-0.069-0.02-0.149-0.041-0.229-0.08c-0.04-0.01-0.08-0.02-0.13-0.031
		c-0.101-0.029-0.21-0.068-0.311-0.109c-0.03,0-0.05-0.01-0.08-0.02c-0.069-0.029-0.13-0.051-0.2-0.08l-0.01-0.01
		c-0.06-0.01-0.109-0.031-0.17-0.061c-0.01,0-0.02-0.01-0.02-0.01c0-0.01-0.011-0.01-0.021-0.01s-0.01,0-0.01,0
		c-0.021-0.02-0.04-0.029-0.07-0.029c-0.06-0.021-0.109-0.051-0.16-0.07c-0.13-0.041-0.25-0.102-0.369-0.17
		c-0.03,0-0.051-0.021-0.07-0.031c-0.05-0.02-0.09-0.049-0.141-0.07c-0.02-0.01-0.029-0.02-0.05-0.029
		c-0.05-0.02-0.09-0.039-0.14-0.07c-0.22-0.1-0.44-0.23-0.65-0.359c-0.05-0.02-0.09-0.051-0.14-0.09c-0.01,0-0.01-0.01-0.021-0.01
		C7.811,23.74,7.73,23.68,7.65,23.631c-0.09-0.061-0.17-0.111-0.261-0.17c-0.039-0.031-0.069-0.061-0.1-0.08
		c-0.13-0.1-0.27-0.201-0.4-0.301C6.66,22.92,6.45,22.73,6.23,22.52H6.22c-0.21-0.189-0.409-0.398-0.6-0.609
		c-0.27-0.279-0.52-0.57-0.75-0.879c-0.08-0.111-0.16-0.221-0.23-0.33c-0.02-0.021-0.039-0.051-0.06-0.07
		c-0.03-0.041-0.06-0.08-0.08-0.121c-0.1-0.139-0.2-0.279-0.29-0.43c-0.149-0.24-0.29-0.49-0.41-0.74
		c-0.069-0.1-0.12-0.209-0.16-0.32c-0.109-0.189-0.199-0.389-0.27-0.6c-0.12-0.27-0.22-0.539-0.31-0.82
		C2.97,17.32,2.88,17.031,2.82,16.74c-0.21-0.869-0.32-1.779-0.32-2.699c0-2.381,0.73-4.6,1.97-6.451
		c0.21-0.309,0.44-0.6,0.67-0.889c0-0.01,0-0.01,0-0.01C5.39,6.41,5.63,6.141,5.89,5.881C6.021,5.75,6.15,5.631,6.29,5.5
		c0.4-0.369,0.84-0.709,1.29-1.029C7.74,4.381,7.9,4.27,8.061,4.17C8.38,3.98,8.7,3.811,9.03,3.641c0.68-0.32,1.39-0.58,2.13-0.779
		c0.36-0.092,0.74-0.17,1.12-0.23c0.189-0.031,0.39-0.051,0.58-0.07C13.25,2.52,13.64,2.5,14.03,2.5h0.02
		c0.391,0,0.78,0.02,1.16,0.061c0.23,0.02,0.46,0.051,0.68,0.09c0.351,0.061,0.69,0.131,1.021,0.211
		c0.74,0.189,1.45,0.459,2.12,0.779c0.33,0.16,0.649,0.33,0.97,0.529c0.17,0.1,0.33,0.211,0.48,0.301c0.46,0.32,0.89,0.66,1.3,1.029
		c2.32,2.121,3.78,5.16,3.78,8.541v0.01C25.561,14.371,25.55,14.68,25.521,14.99z"/>
	<path fill="#818181" d="M10.811,25.1c-0.021-0.01-0.04-0.01-0.061-0.02c-0.03-0.01-0.07-0.02-0.1-0.029
		c0.08,0.039,0.16,0.061,0.229,0.08c0.021,0.01,0.05,0.01,0.07,0.01C10.9,25.131,10.86,25.111,10.811,25.1z M12.851,18.811
		c-0.511-0.369-1.58-1.131-1.58-1.65c0-0.6,0.159-0.9,1.069-1.6c0.931-0.721,1.601-1.68,1.601-2.869c0-1.281-0.53-2.461-1.54-3.031
		h1.42L15.01,8.4c0,0-3.96,0-5.359,0c-2.721,0-4.99,2.01-4.99,4.221c0,2.25,1.49,4.049,4.05,4.049c0.18,0,0.351,0,0.521-0.02
		c-0.17,0.32-0.28,0.68-0.28,1.041c0,0.639,0.35,0.988,0.76,1.398c-0.31,0-0.62,0.021-0.97,0.021c-1.72,0-3.16,0.648-4.101,1.59
		c0.07,0.109,0.15,0.219,0.23,0.33c0.23,0.309,0.48,0.6,0.75,0.879c0.47-1.23,2.01-2.17,3.78-2.17h0.04
		c0.52,0,0.979,0.09,1.41,0.221c1.18,0.809,2.109,1.33,2.35,2.25c0.04,0.18,0.06,0.369,0.06,0.58c0,0.139-0.01,0.279-0.02,0.42
		C13.22,23.32,13.2,23.42,13.18,23.52c-0.01,0.031-0.01,0.061-0.02,0.092c-0.03,0.09-0.06,0.18-0.09,0.27
		c-0.01,0.029-0.03,0.061-0.04,0.09c-0.04,0.1-0.09,0.189-0.141,0.279c-0.01,0.01-0.02,0.02-0.029,0.031
		c-0.061,0.1-0.13,0.199-0.21,0.289c-0.17,0.189-0.37,0.359-0.62,0.51c-0.13,0.08-0.26,0.15-0.41,0.211
		c0.27,0.059,0.53,0.129,0.8,0.17c0.01,0,0.021,0,0.021,0c0.26,0.039,0.529,0.059,0.79,0.08h0.08c-0.07,0-0.131-0.01-0.19-0.021
		c1.16-0.77,1.8-1.859,1.8-2.969C14.92,20.941,14.58,20.111,12.851,18.811z M9.83,15.861H9.76C8.3,15.811,6.93,14.49,6.68,12.59
		c-0.25-1.869,0.69-3.309,2.11-3.309h0.05c1.44,0.039,2.681,1.6,2.931,3.5C12.03,14.631,11.23,15.861,9.83,15.861z M11.37,25.24
		c0.07,0.02,0.15,0.051,0.23,0.061c0.01,0,0.01-0.01,0.02-0.01C11.54,25.27,11.45,25.25,11.37,25.24z M14.03,25.561h-0.22
		c0.069,0.01,0.149,0.01,0.229,0.01c0.05,0,0.11-0.01,0.17-0.01c0.05,0,0.101-0.01,0.16-0.01
		C14.26,25.551,14.15,25.561,14.03,25.561z M18.96,24.451c0.19-0.09,0.391-0.182,0.58-0.281c0.19-0.1,0.37-0.209,0.55-0.32
		C19.73,24.07,19.351,24.27,18.96,24.451z M10.32,24.941c-0.04-0.012-0.08-0.021-0.11-0.031c-0.1-0.039-0.189-0.07-0.28-0.1
		c0.07,0.029,0.131,0.051,0.2,0.08c0.141,0.051,0.26,0.09,0.391,0.129c0.05,0.012,0.09,0.021,0.13,0.031
		C10.54,25.02,10.43,24.98,10.32,24.941z"/>
</g>
</svg>
