<?xml version="1.0" encoding="utf-8"?>
<!-- Generator: Adobe Illustrator 15.0.0, SVG Export Plug-In . SVG Version: 6.00 Build 0)  -->
<!DOCTYPE svg PUBLIC "-//W3C//DTD SVG 1.1//EN" "http://www.w3.org/Graphics/SVG/1.1/DTD/svg11.dtd">
<svg version="1.1" id="Layer_1" xmlns="http://www.w3.org/2000/svg" xmlns:xlink="http://www.w3.org/1999/xlink" x="0px" y="0px"
	 width="27.99px" height="28px" viewBox="0 0 27.99 28" enable-background="new 0 0 27.99 28" xml:space="preserve">
<g>
	<g>
		<path fill="#818181" d="M24.17,10.181V1.96c0-0.38-0.311-0.68-0.689-0.68h-3.73c-0.09,0-0.18,0.01-0.26,0.05
			c-0.23,0.09-0.391,0.311-0.4,0.58c-0.01,0.021-0.01,0.03-0.01,0.05v3.13L13.99,0L0,13.99h2.549v11.271
			C2.549,26.771,3.77,28,5.27,28h4.57c0.75,0,1.359-0.62,1.359-1.37V16.55h5.58V26.69c-0.01,0.02,0,0.04,0.01,0.06
			c0.031,0.511,0.352,0.96,0.801,1.141C17.76,27.95,17.939,28,18.129,28h4.57c1.51,0,2.74-1.229,2.74-2.739V13.99h2.551
			L24.17,10.181z M22.439,25h-2.66V13.55H8.199V25h-2.65V12.69l8.441-8.44l2.969,2.971l4.211,4.21l0.66,0.659l0.25,0.25l0.359,0.36
			V25z"/>
	</g>
</g>
</svg>
