<?xml version="1.0" encoding="utf-8"?>
<!-- Generator: Adobe Illustrator 15.0.0, SVG Export Plug-In . SVG Version: 6.00 Build 0)  -->
<!DOCTYPE svg PUBLIC "-//W3C//DTD SVG 1.1//EN" "http://www.w3.org/Graphics/SVG/1.1/DTD/svg11.dtd">
<svg version="1.1" id="Layer_1" xmlns="http://www.w3.org/2000/svg" xmlns:xlink="http://www.w3.org/1999/xlink" x="0px" y="0px"
	 width="25.57px" height="25.55px" viewBox="0 0 25.57 25.55" enable-background="new 0 0 25.57 25.55" xml:space="preserve">
<g>
	<g>
		<path fill="#818181" d="M23.57,0H2C0.9,0,0,0.898,0,2v21.549c0,1.1,0.9,2.001,2,2.001h21.57c1.1,0,2-0.901,2-2.001V2
			C25.57,0.898,24.67,0,23.57,0z M22.57,22.549H3v-2.32c0.681-0.689,1.46-1.49,2.03-2.08l3.07,3.701l9.569-9.961l4.9,4.801V22.549z
			 M22.57,13.889l-4.939-4.85L8.2,18.85l-3.06-3.691L4.37,15.959c-0.41,0.42-0.89,0.91-1.37,1.4V3h19.57V13.889z"/>
	</g>
	<g>
		<g>
			<g>
				<g>
					<g>
						<path fill="#818181" d="M12.021,8.619c0,1.93-1.57,3.51-3.51,3.51c-1.931,0-3.5-1.58-3.5-3.51c0-1.939,1.569-3.51,3.5-3.51
							C10.45,5.109,12.021,6.68,12.021,8.619z"/>
					</g>
				</g>
			</g>
		</g>
	</g>
</g>
</svg>
