<?xml version="1.0" encoding="utf-8"?>
<!-- Generator: Adobe Illustrator 15.0.2, SVG Export Plug-In . SVG Version: 6.00 Build 0)  -->
<!DOCTYPE svg PUBLIC "-//W3C//DTD SVG 1.1//EN" "http://www.w3.org/Graphics/SVG/1.1/DTD/svg11.dtd">
<svg version="1.1" id="Layer_1" xmlns="http://www.w3.org/2000/svg" xmlns:xlink="http://www.w3.org/1999/xlink" x="0px" y="0px"
	 width="20.31px" height="30.217px" viewBox="0 -8.687 20.31 30.217" enable-background="new 0 -8.687 20.31 30.217"
	 xml:space="preserve">
<g>
	<g>
		<path fill="#808080" d="M20.29,5.387v11.469c0,2.57-4.54,4.66-10.13,4.66c-5.601,0-10.141-2.09-10.141-4.66V5.387
			c0,0.899,0.55,1.729,1.5,2.43c0.42,0.32,0.93,0.62,1.5,0.87v7.96c0.53,0.609,3.04,1.869,7.141,1.869c4.09,0,6.609-1.26,7.13-1.869
			v-7.96c0.569-0.25,1.08-0.55,1.5-0.87C19.739,7.117,20.29,6.287,20.29,5.387z"/>
	</g>
	<g>
		<path fill="#808080" d="M18.29,5.387c0,0.319-0.63,0.939-1.87,1.5c-1.36,0.609-3.46,1.16-6.26,1.16
			c-2.801,0-4.91-0.551-6.271-1.16c-1.24-0.561-1.87-1.181-1.87-1.5c0-0.46,1.26-1.5,3.7-2.13l1.96,1.949l0.18,0.181L8.21,5.747
			c0.51,0.511,1.22,0.801,1.95,0.801c0.71,0,1.39-0.28,1.909-0.78l0.38-0.38l2.141-2.13C17.029,3.887,18.29,4.927,18.29,5.387z"/>
		<path fill="#808080" d="M11.399,0.757v0.05l0.04-0.04C11.43,0.767,11.41,0.767,11.399,0.757z M8.88,0.767l0.04,0.04v-0.05
			C8.91,0.767,8.89,0.767,8.88,0.767z"/>
	</g>
	<g>
		<g>
			<g>
				<g>
					<path fill="#808080" d="M16.41-1.203c0,0.1-0.011,0.199-0.04,0.3c-0.051,0.21-0.16,0.42-0.32,0.58l-1.51,1.51l-0.851,0.85
						l-0.06,0.061l-0.811,0.81l-1.779,1.78c-0.24,0.229-0.551,0.36-0.88,0.36c-0.33,0-0.65-0.131-0.891-0.36l-0.53-0.54L7.5,2.907
						l-0.82-0.81L6.62,2.037L5.77,1.187l-1.51-1.51c-0.24-0.24-0.35-0.561-0.35-0.88c0-0.32,0.109-0.641,0.35-0.881
						c0.15-0.14,0.31-0.239,0.49-0.289c0.13-0.051,0.26-0.07,0.39-0.07c0.14,0,0.271,0.02,0.4,0.07
						c0.06,0.01,0.109,0.029,0.159,0.069c0.12,0.05,0.23,0.12,0.32,0.22l1.19,1.181l1.529,1.53l0.141,0.14l0.04,0.04v-8.24
						c0-0.68,0.55-1.24,1.24-1.24c0.689,0,1.239,0.561,1.239,1.24v8.24l0.04-0.04l1.66-1.67l1.19-1.181
						c0.239-0.239,0.56-0.359,0.88-0.359c0.31,0,0.63,0.12,0.88,0.359C16.29-1.843,16.41-1.523,16.41-1.203z"/>
					<path fill="#808080" d="M8.92,0.757v0.05l-0.04-0.04C8.89,0.767,8.91,0.767,8.92,0.757z"/>
					<path fill="#808080" d="M11.439,0.767l-0.04,0.04v-0.05C11.41,0.767,11.43,0.767,11.439,0.767z"/>
					<path fill="#808080" d="M8.88,0.767l0.04,0.04v-0.05C8.91,0.767,8.89,0.767,8.88,0.767z M11.399,0.757v0.05l0.04-0.04
						C11.43,0.767,11.41,0.767,11.399,0.757z"/>
				</g>
			</g>
		</g>
	</g>
</g>
</svg>
