<?xml version="1.0" encoding="utf-8"?>
<!-- Generator: Adobe Illustrator 15.0.2, SVG Export Plug-In . SVG Version: 6.00 Build 0)  -->
<!DOCTYPE svg PUBLIC "-//W3C//DTD SVG 1.1//EN" "http://www.w3.org/Graphics/SVG/1.1/DTD/svg11.dtd">
<svg version="1.1" id="Layer_1" xmlns="http://www.w3.org/2000/svg" xmlns:xlink="http://www.w3.org/1999/xlink" x="0px" y="0px"
	 width="27.992px" height="27.99px" viewBox="0 0 27.992 27.99" enable-background="new 0 0 27.992 27.99" xml:space="preserve">
<g>
	<g>
		<g>
			<rect x="13.48" y="0.18" fill="#808080" width="1.152" height="6.916"/>
			<path fill="#808080" d="M14.633,7.28H13.48c-0.103,0-0.185-0.083-0.185-0.185V0.18c0-0.102,0.082-0.185,0.185-0.185h1.152
				c0.102,0,0.185,0.083,0.185,0.185v6.916C14.817,7.197,14.734,7.28,14.633,7.28z M13.665,6.911h0.783V0.364h-0.783V6.911z"/>
		</g>
	</g>
	<g>
		<g>
			<rect x="13.48" y="20.895" fill="#808080" width="1.152" height="6.916"/>
			<path fill="#808080" d="M14.633,27.995H13.48c-0.103,0-0.185-0.082-0.185-0.185v-6.916c0-0.102,0.082-0.184,0.185-0.184h1.152
				c0.102,0,0.185,0.082,0.185,0.184v6.916C14.817,27.913,14.734,27.995,14.633,27.995z M13.665,27.626h0.783v-6.547h-0.783V27.626z
				"/>
		</g>
	</g>
	<g>
		<g>
			<rect x="0.181" y="13.479" fill="#808080" width="6.916" height="1.152"/>
			<path fill="#808080" d="M7.097,14.816H0.181c-0.103,0-0.185-0.083-0.185-0.185v-1.152c0-0.103,0.082-0.185,0.185-0.185h6.916
				c0.102,0,0.184,0.082,0.184,0.185v1.152C7.28,14.733,7.198,14.816,7.097,14.816z M0.365,14.447h6.547v-0.783H0.365V14.447z"/>
		</g>
	</g>
	<g>
		<g>
			<rect x="20.896" y="13.479" fill="#808080" width="6.916" height="1.152"/>
			<path fill="#808080" d="M27.812,14.816h-6.916c-0.102,0-0.184-0.083-0.184-0.185v-1.152c0-0.103,0.082-0.185,0.184-0.185h6.916
				c0.103,0,0.185,0.082,0.185,0.185v1.152C27.996,14.733,27.914,14.816,27.812,14.816z M21.08,14.447h6.547v-0.783H21.08V14.447z"
				/>
		</g>
	</g>
	<g>
		<g>
			
				<rect x="6.096" y="17.981" transform="matrix(0.7075 0.7067 -0.7067 0.7075 17.1024 1.5551)" fill="#808080" width="1.153" height="6.916"/>
			<path fill="#808080" d="M4.635,24.477c-0.047,0-0.095-0.018-0.131-0.054l-0.814-0.814c-0.035-0.035-0.055-0.082-0.055-0.131
				s0.02-0.096,0.055-0.13l4.89-4.891c0.035-0.035,0.082-0.055,0.131-0.055l0,0c0.049,0,0.096,0.02,0.13,0.055l0.815,0.814
				c0.072,0.072,0.072,0.189,0,0.262l-4.891,4.89C4.729,24.459,4.682,24.477,4.635,24.477z M4.08,23.478l0.555,0.554l4.629-4.629
				L8.71,18.848L4.08,23.478z"/>
		</g>
	</g>
	<g>
		<g>
			
				<rect x="20.744" y="3.334" transform="matrix(0.7067 0.7075 -0.7075 0.7067 11.0588 -13.0923)" fill="#808080" width="1.153" height="6.915"/>
			<path fill="#808080" d="M19.282,9.829c-0.047,0-0.094-0.018-0.13-0.054l-0.815-0.815c-0.072-0.072-0.072-0.188,0-0.261
				l4.891-4.89c0.071-0.072,0.188-0.072,0.261,0l0.815,0.815c0.034,0.034,0.054,0.081,0.054,0.13c0,0.049-0.02,0.096-0.054,0.13
				l-4.891,4.89C19.377,9.811,19.33,9.829,19.282,9.829z M18.729,8.829l0.554,0.555l4.63-4.629L23.357,4.2L18.729,8.829z"/>
		</g>
	</g>
	<g>
		<g>
			
				<rect x="5.974" y="3.274" transform="matrix(-0.7073 0.7069 -0.7069 -0.7073 15.9427 6.862)" fill="#808080" width="1.153" height="6.915"/>
			<path fill="#808080" d="M8.589,9.769c-0.049,0-0.096-0.02-0.131-0.054l-4.89-4.89C3.533,4.79,3.514,4.743,3.514,4.694
				s0.02-0.096,0.055-0.13l0.814-0.815c0.069-0.069,0.192-0.069,0.261,0l4.891,4.89c0.072,0.072,0.072,0.188,0,0.261L8.72,9.714
				C8.685,9.749,8.638,9.769,8.589,9.769z M3.959,4.694l4.63,4.629l0.554-0.554L4.514,4.14L3.959,4.694z"/>
		</g>
	</g>
	<g>
		<g>
			
				<rect x="20.623" y="17.922" transform="matrix(-0.7075 0.7067 -0.7067 -0.7075 51.3068 21.5248)" fill="#808080" width="1.153" height="6.915"/>
			<path fill="#808080" d="M23.236,24.416c-0.047,0-0.094-0.018-0.13-0.054l-4.891-4.89c-0.034-0.035-0.054-0.082-0.054-0.131
				s0.02-0.096,0.054-0.13l0.815-0.815c0.072-0.072,0.188-0.072,0.261,0l4.891,4.891c0.034,0.034,0.054,0.081,0.054,0.13
				s-0.02,0.096-0.054,0.131l-0.815,0.814C23.331,24.398,23.283,24.416,23.236,24.416z M18.607,19.342l4.629,4.629l0.555-0.554
				l-4.629-4.629L18.607,19.342z"/>
		</g>
	</g>
</g>
</svg>
