<?xml version="1.0" encoding="utf-8"?>
<!-- Generator: Adobe Illustrator 15.0.0, SVG Export Plug-In . SVG Version: 6.00 Build 0)  -->
<!DOCTYPE svg PUBLIC "-//W3C//DTD SVG 1.1//EN" "http://www.w3.org/Graphics/SVG/1.1/DTD/svg11.dtd">
<svg version="1.1" id="Layer_1" xmlns="http://www.w3.org/2000/svg" xmlns:xlink="http://www.w3.org/1999/xlink" x="0px" y="0px"
	 width="24.379px" height="20.691px" viewBox="0 0 24.379 20.691" enable-background="new 0 0 24.379 20.691" xml:space="preserve">
<g>
	<g>
		<g>
			<path fill="#818181" d="M24.379,19.691c0,0.549-0.45,1-1,1H1c-0.55,0-1-0.451-1-1v-2.215c0-0.549,0.45-1,1-1h22.379
				c0.55,0,1,0.451,1,1V19.691z"/>
		</g>
	</g>
	<g>
		<g>
			<path fill="#818181" d="M24.379,11.453c0,0.551-0.45,1-1,1H1c-0.55,0-1-0.449-1-1V9.238c0-0.551,0.45-1,1-1h22.379
				c0.55,0,1,0.449,1,1V11.453z"/>
		</g>
	</g>
	<g>
		<g>
			<path fill="#818181" d="M24.379,3.215c0,0.551-0.45,1-1,1H1c-0.55,0-1-0.449-1-1V1c0-0.549,0.45-1,1-1h22.379c0.55,0,1,0.451,1,1
				V3.215z"/>
		</g>
	</g>
</g>
</svg>
