<?xml version="1.0" encoding="utf-8"?>
<!-- Generator: Adobe Illustrator 15.0.0, SVG Export Plug-In . SVG Version: 6.00 Build 0)  -->
<!DOCTYPE svg PUBLIC "-//W3C//DTD SVG 1.1//EN" "http://www.w3.org/Graphics/SVG/1.1/DTD/svg11.dtd">
<svg version="1.1" id="Layer_1" xmlns="http://www.w3.org/2000/svg" xmlns:xlink="http://www.w3.org/1999/xlink" x="0px" y="0px"
	 width="6.022px" height="24.074px" viewBox="0 0 6.022 24.074" enable-background="new 0 0 6.022 24.074" xml:space="preserve">
<g>
	<g>
		<path fill-rule="evenodd" clip-rule="evenodd" fill="#818181" d="M6.022,5.016c0,0.549-0.449,1-1,1H1c-0.55,0-1-0.451-1-1V1
			c0-0.549,0.45-1,1-1h4.022c0.551,0,1,0.451,1,1V5.016z"/>
	</g>
	<g>
		<path fill-rule="evenodd" clip-rule="evenodd" fill="#818181" d="M6.022,14.047c0,0.551-0.449,1-1,1H1c-0.55,0-1-0.449-1-1v-4.016
			c0-0.551,0.45-1,1-1h4.022c0.551,0,1,0.449,1,1V14.047z"/>
	</g>
	<g>
		<path fill-rule="evenodd" clip-rule="evenodd" fill="#818181" d="M6.022,23.076c0,0.549-0.449,0.998-1,0.998H1
			c-0.55,0-1-0.449-1-0.998v-4.018c0-0.551,0.45-1,1-1h4.022c0.551,0,1,0.449,1,1V23.076z"/>
	</g>
</g>
</svg>
