<?xml version="1.0" encoding="utf-8"?>
<!-- Generator: Adobe Illustrator 18.0.0, SVG Export Plug-In . SVG Version: 6.00 Build 0)  -->
<!DOCTYPE svg PUBLIC "-//W3C//DTD SVG 1.1//EN" "http://www.w3.org/Graphics/SVG/1.1/DTD/svg11.dtd">
<svg version="1.1" id="Layer_1" xmlns="http://www.w3.org/2000/svg" xmlns:xlink="http://www.w3.org/1999/xlink" x="0px" y="0px"
	 viewBox="0 0 12.2 10.1" enable-background="new 0 0 12.2 10.1" xml:space="preserve">
<g>
	<path fill="#808080" d="M0.8,1.5h10.7c0.4,0,0.8-0.3,0.8-0.8v0c0-0.4-0.3-0.8-0.8-0.8H0.8C0.3,0,0,0.3,0,0.8v0
		C0,1.2,0.3,1.5,0.8,1.5z"/>
	<path fill="#808080" d="M0.8,5.8h10.7c0.4,0,0.8-0.3,0.8-0.8v0c0-0.4-0.3-0.8-0.8-0.8H0.8C0.3,4.3,0,4.6,0,5v0
		C0,5.5,0.3,5.8,0.8,5.8z"/>
	<path fill="#808080" d="M0.8,10.1h10.7c0.4,0,0.8-0.3,0.8-0.8v0c0-0.4-0.3-0.8-0.8-0.8H0.8C0.3,8.5,0,8.9,0,9.3v0
		C0,9.7,0.3,10.1,0.8,10.1z"/>
</g>
</svg>
