<?xml version="1.0" encoding="utf-8"?>
<!-- Generator: Adobe Illustrator 15.0.0, SVG Export Plug-In . SVG Version: 6.00 Build 0)  -->
<!DOCTYPE svg PUBLIC "-//W3C//DTD SVG 1.1//EN" "http://www.w3.org/Graphics/SVG/1.1/DTD/svg11.dtd">
<svg version="1.1" id="Layer_1" xmlns="http://www.w3.org/2000/svg" xmlns:xlink="http://www.w3.org/1999/xlink" x="0px" y="0px"
	 width="20.529px" height="27.441px" viewBox="0 0 20.529 27.441" enable-background="new 0 0 20.529 27.441" xml:space="preserve">
<g>
	<g>
		<g>
			<path fill="#818181" d="M19.119,7l-5.559-5.58C12.779,0.641,11.24,0,10.141,0H2C0.9,0,0,0.91,0,2v23.441c0,1.1,0.9,2,2,2h16.529
				c1.1,0,2-0.9,2-2V10.41C20.529,9.311,19.9,7.781,19.119,7z M15.85,7.971h-3.289V4.67L15.85,7.971z M17.529,24.441H3V3h6.561
				v6.471c0,0.83,0.67,1.5,1.5,1.5h6.469V24.441z"/>
		</g>
	</g>
</g>
</svg>
