<?xml version="1.0" encoding="utf-8"?>
<!-- Generator: Adobe Illustrator 15.0.0, SVG Export Plug-In . SVG Version: 6.00 Build 0)  -->
<!DOCTYPE svg PUBLIC "-//W3C//DTD SVG 1.1//EN" "http://www.w3.org/Graphics/SVG/1.1/DTD/svg11.dtd">
<svg version="1.1" id="Layer_1" xmlns="http://www.w3.org/2000/svg" xmlns:xlink="http://www.w3.org/1999/xlink" x="0px" y="0px"
	 width="26.191px" height="29.08px" viewBox="0 0 26.191 29.08" enable-background="new 0 0 26.191 29.08" xml:space="preserve">
<g>
	<path fill="#818181" d="M25.905,22.25l-3.46-4.75c-0.069-0.18-0.279-0.8-0.279-1.88V7.81c0-0.05,0-0.109-0.011-0.17
		C21.855,5,19.576,0,13.096,0s-8.76,5-9.06,7.64C4.025,7.7,4.025,7.76,4.025,7.81v7.811c0,1.11-0.22,1.729-0.27,1.87l-3.47,4.76
		c-0.33,0.46-0.381,1.06-0.12,1.57c0.25,0.5,0.77,0.81,1.33,0.81h6.369c0.601,2.561,2.721,4.45,5.23,4.45s4.63-1.89,5.23-4.45h6.369
		c0.561,0,1.08-0.31,1.33-0.81C26.286,23.31,26.235,22.71,25.905,22.25z M13.096,26.08c-0.88,0-1.66-0.58-2.07-1.45h4.15
		C14.756,25.5,13.976,26.08,13.096,26.08z M4.445,21.63l1.811-2.479c0.03-0.04,0.06-0.091,0.09-0.141c0.11-0.2,0.68-1.29,0.68-3.39
		v-7.7C7.136,7.14,8.006,3,13.096,3c5.11,0,5.96,4.16,6.07,4.91v7.71c0,2.1,0.569,3.189,0.68,3.39c0.03,0.05,0.06,0.101,0.09,0.141
		l1.811,2.479H4.445z"/>
</g>
</svg>
