<?xml version="1.0" encoding="utf-8"?>
<!-- Generator: Adobe Illustrator 15.0.0, SVG Export Plug-In . SVG Version: 6.00 Build 0)  -->
<!DOCTYPE svg PUBLIC "-//W3C//DTD SVG 1.1//EN" "http://www.w3.org/Graphics/SVG/1.1/DTD/svg11.dtd">
<svg version="1.1" id="Layer_1" xmlns="http://www.w3.org/2000/svg" xmlns:xlink="http://www.w3.org/1999/xlink" x="0px" y="0px"
	 width="21.52px" height="29.811px" viewBox="0 0 21.52 29.811" enable-background="new 0 0 21.52 29.811" xml:space="preserve">
<g>
	<g>
		<path fill="#818181" d="M5.719,13.011V8.04C5.719,5.261,7.979,3,10.76,3c1.52,0,2.949,0.681,3.91,1.87
			c0.52,0.641,1.469,0.74,2.109,0.21c0.65-0.52,0.74-1.46,0.221-2.1C15.469,1.08,13.189,0,10.76,0C6.33,0,2.719,3.61,2.719,8.04
			v4.971H0V26.46c0,1.86,1.5,3.351,3.359,3.351h14.82c1.85,0,3.34-1.49,3.34-3.351V13.011H5.719z M18.52,26.46
			c0,0.2-0.15,0.351-0.34,0.351H3.359C3.16,26.811,3,26.66,3,26.46V16.011h15.52V26.46z"/>
	</g>
</g>
</svg>
