<?xml version="1.0" encoding="utf-8"?>
<!-- Generator: Adobe Illustrator 15.0.0, SVG Export Plug-In . SVG Version: 6.00 Build 0)  -->
<!DOCTYPE svg PUBLIC "-//W3C//DTD SVG 1.1//EN" "http://www.w3.org/Graphics/SVG/1.1/DTD/svg11.dtd">
<svg version="1.1" id="Layer_1" xmlns="http://www.w3.org/2000/svg" xmlns:xlink="http://www.w3.org/1999/xlink" x="0px" y="0px"
	 width="30.115px" height="22.537px" viewBox="0 0 30.115 22.537" enable-background="new 0 0 30.115 22.537" xml:space="preserve">
<g>
	<g>
		<path fill="#818181" d="M24.919,5.387v0.046H5.92c-1.316,0-1.905,0.944-2.101,1.308C3.771,6.834,3.754,6.89,3.754,6.898
			L0.001,17.001V5.387c0-1.232,1.008-2.242,2.239-2.242h1.084V1.119C3.324,0.504,3.828,0,4.453,0h8.123
			c0.616,0,1.121,0.504,1.121,1.119v2.025h8.98C23.91,3.145,24.919,4.154,24.919,5.387z"/>
	</g>
	<g>
		<path fill="#818181" d="M29.316,6.814H6.639c-0.616,0-1.289,0.468-1.513,1.056L0.065,21.492c-0.148,0.41-0.037,0.756,0.253,0.934
			c0.036,0.019,0.084,0.037,0.11,0.046c0.048,0.028,0.094,0.038,0.15,0.046c0.065,0.011,0.132,0.02,0.215,0.02h22.679
			c0.073,0,0.158-0.009,0.233-0.02c0.064-0.008,0.121-0.027,0.178-0.055c0.484-0.141,0.933-0.533,1.101-0.971L30.045,7.87
			C30.27,7.282,29.942,6.814,29.316,6.814z M22.642,19.736H3.697L7.47,9.616h18.943L22.642,19.736z"/>
	</g>
</g>
</svg>
