<?xml version="1.0" encoding="utf-8"?>
<!-- Generator: Adobe Illustrator 15.0.2, SVG Export Plug-In . SVG Version: 6.00 Build 0)  -->
<!DOCTYPE svg PUBLIC "-//W3C//DTD SVG 1.1//EN" "http://www.w3.org/Graphics/SVG/1.1/DTD/svg11.dtd">
<svg version="1.1" id="Layer_1" xmlns="http://www.w3.org/2000/svg" xmlns:xlink="http://www.w3.org/1999/xlink" x="0px" y="0px"
	 width="28.8px" height="28.793px" viewBox="0 -7.263 28.8 28.793" enable-background="new 0 -7.263 28.8 28.793"
	 xml:space="preserve">
<g>
	<g>
		<path fill="#808080" d="M7.521,11.995c-1.117,0-2.023,0.906-2.023,2.023c0.008,1.109,0.912,2.016,2.016,2.016
			c1.117,0,2.023-0.906,2.023-2.023C9.535,12.907,8.63,12.003,7.521,11.995z"/>
	</g>
	<g>
		<path fill="#808080" d="M17.091,4.337v0.202l-1.697,1.689c-0.901,0.898-1.139,2.269-0.591,3.417
			c1.133,2.375,0.657,5.207-1.186,7.05c-1.171,1.173-2.729,1.819-4.387,1.819s-3.216-0.646-4.39-1.822
			c-1.174-1.175-1.82-2.734-1.82-4.394c0-1.658,0.646-3.219,1.823-4.395C6,6.749,7.539,6.112,9.178,6.112
			c0.93,0,1.864,0.211,2.703,0.61c0.412,0.196,0.853,0.292,1.289,0.292c0.779,0,1.547-0.304,2.122-0.879L17.091,4.337 M25.241-7.247
			c-0.67,0.002-1.191,0.4-1.301,0.502c-0.02,0.01-0.029,0.02-0.029,0.02l-10.74,10.74c-1.261-0.601-2.628-0.902-3.993-0.902
			c-2.338,0-4.671,0.886-6.456,2.672c-3.602,3.6-3.602,9.43-0.002,13.029c1.796,1.801,4.153,2.701,6.511,2.701s4.715-0.9,6.51-2.701
			c2.83-2.83,3.4-7.039,1.77-10.459l2.211-2.201v-0.01c0.369-0.379,0.369-1.398,0.369-1.398V2.136c0,0,0.01-0.691,0.791-0.691h2.748
			c0.33,0,0.621-0.201,0.74-0.49c0.041-0.102,0.061-0.201,0.061-0.311c0-0.01,0-0.01,0-0.02c0-0.02,0-0.031,0-0.031v-2.768
			c0,0,0.031-0.721,0.682-0.721h2.857c0.332-0.002,0.602-0.189,0.732-0.471c0.018-0.039,0.027-0.08,0.041-0.119
			c0.027-0.15,0.027-0.27,0.027-0.27c0.01-0.021,0.012-0.031,0-0.041v-2.549c0-0.883-0.939-0.9-0.939-0.9L25.241-7.247L25.241-7.247
			z"/>
	</g>
</g>
</svg>
