<?xml version="1.0" encoding="utf-8"?>
<!-- Generator: Adobe Illustrator 15.0.0, SVG Export Plug-In . SVG Version: 6.00 Build 0)  -->
<!DOCTYPE svg PUBLIC "-//W3C//DTD SVG 1.1//EN" "http://www.w3.org/Graphics/SVG/1.1/DTD/svg11.dtd">
<svg version="1.1" id="Layer_1" xmlns="http://www.w3.org/2000/svg" xmlns:xlink="http://www.w3.org/1999/xlink" x="0px" y="0px"
	 width="23.19px" height="30.24px" viewBox="0 0 23.19 30.24" enable-background="new 0 0 23.19 30.24" xml:space="preserve">
<g>
	<g>
		<g>
			<g>
				<path fill="#818181" d="M19.12,7l-5.57-5.58C12.78,0.64,11.24,0,10.14,0H2C0.899,0,0,0.9,0,2v23.44c0,1.1,0.899,2,2,2h7.33
					c-1.55-0.61-2.87-1.66-3.819-3H3V3h6.56v6.47c0,0.82,0.67,1.5,1.5,1.5h6.471v1.69c1.38,1.02,2.439,2.44,3,4.09v-6.34
					C20.53,9.311,19.899,7.78,19.12,7z M12.56,7.97v-3.3l3.301,3.3H12.56z"/>
			</g>
		</g>
	</g>
	<g>
		<g>
			<path fill="#818181" d="M22.761,27.72l-2.23-2.229l-2.02-2.021c-0.051-0.05-0.101-0.09-0.16-0.13
				c0.35-0.529,0.629-1.109,0.819-1.729c0.21-0.66,0.32-1.37,0.32-2.101c0-1.89-0.74-3.6-1.96-4.859c-1.27-1.34-3.07-2.17-5.07-2.17
				c-3.88,0-7.02,3.149-7.02,7.029c0,1.92,0.77,3.66,2.01,4.931c1.17,1.189,2.76,1.96,4.52,2.069c0.16,0.021,0.32,0.03,0.49,0.03
				c1.42,0,2.73-0.42,3.83-1.14c0.04,0.06,0.08,0.109,0.13,0.16l4.25,4.25c0.29,0.29,0.66,0.43,1.04,0.43s0.76-0.14,1.051-0.43
				c0.289-0.29,0.43-0.671,0.43-1.051S23.05,28.01,22.761,27.72z M16.78,21.61c-0.78,1.6-2.42,2.71-4.32,2.71
				c-0.17,0-0.33-0.01-0.49-0.021c-2.42-0.25-4.31-2.31-4.31-4.79c0-2.649,2.149-4.81,4.8-4.81s4.811,2.16,4.811,4.81
				C17.271,20.26,17.101,20.98,16.78,21.61z"/>
		</g>
	</g>
</g>
</svg>
