<?xml version="1.0" encoding="utf-8"?>
<!-- Generator: Adobe Illustrator 15.0.0, SVG Export Plug-In . SVG Version: 6.00 Build 0)  -->
<!DOCTYPE svg PUBLIC "-//W3C//DTD SVG 1.1//EN" "http://www.w3.org/Graphics/SVG/1.1/DTD/svg11.dtd">
<svg version="1.1" id="Layer_1" xmlns="http://www.w3.org/2000/svg" xmlns:xlink="http://www.w3.org/1999/xlink" x="0px" y="0px"
	 width="33.629px" height="33.62px" viewBox="0 0 33.629 33.62" enable-background="new 0 0 33.629 33.62" xml:space="preserve">
<g>
	<g>
		<path fill="#818181" d="M28.699,4.92C25.529,1.75,21.299,0,16.81,0C12.319,0,8.1,1.75,4.92,4.92C1.75,8.101,0,12.319,0,16.81
			c0,4.83,2.08,9.44,5.709,12.631c3.07,2.699,7.01,4.18,11.101,4.18c4.09,0,8.04-1.48,11.1-4.18c3.63-3.19,5.72-7.801,5.72-12.631
			C33.629,12.319,31.879,8.101,28.699,4.92z M26.56,27.899c-2.69,2.371-6.15,3.681-9.75,3.681c-3.591,0-7.05-1.31-9.75-3.681
			c-0.729-0.639-1.39-1.35-1.97-2.109v-0.01c0.449-0.95,1.149-1.811,2.09-2.6c0.22-0.19,0.43-0.351,0.65-0.5
			c0.299-0.221,0.59-0.42,0.859-0.601c1.73-1.101,3.45-1.74,5.109-2.22c0.271-0.33,0.15-0.83-0.359-1.5
			c-1.01-1.28-1.51-2.83-1.51-4.66s0.5-3.391,1.51-4.7c0.21-0.271,0.439-0.521,0.68-0.729c1.91-0.98,3.721-0.98,5.43,0
			C19.76,8.479,19.969,8.729,20.189,9c1,1.31,1.5,2.87,1.5,4.7s-0.5,3.38-1.5,4.66c-0.52,0.67-0.641,1.17-0.37,1.5
			c1.681,0.479,3.38,1.119,5.12,2.22c0.27,0.181,0.561,0.38,0.859,0.601c0.211,0.149,0.431,0.31,0.641,0.5
			c0.939,0.789,1.641,1.649,2.1,2.6C27.959,26.54,27.289,27.25,26.56,27.899z"/>
	</g>
</g>
</svg>
