<?xml version="1.0" encoding="utf-8"?>
<!-- Generator: Adobe Illustrator 15.0.0, SVG Export Plug-In . SVG Version: 6.00 Build 0)  -->
<!DOCTYPE svg PUBLIC "-//W3C//DTD SVG 1.1//EN" "http://www.w3.org/Graphics/SVG/1.1/DTD/svg11.dtd">
<svg version="1.1" id="Layer_1" xmlns="http://www.w3.org/2000/svg" xmlns:xlink="http://www.w3.org/1999/xlink" x="0px" y="0px"
	 width="28.057px" height="22.949px" viewBox="0 0 28.057 22.949" enable-background="new 0 0 28.057 22.949" xml:space="preserve">
<g>
	<g>
		<path fill="#818181" d="M13.82,0.699C13.439,0.27,12.93,0.02,12.369,0h-0.07C12.23,0,12.16,0.01,12.1,0.01l-0.119,0.02
			c-2.4,0.25-4.9,1.25-6.541,2.619c-1.67,1.4-3,3.102-3.969,5.061C0.5,9.68,0,11.83,0,14.1c0,2.641,0.68,4.779,2,6.359
			c1.379,1.65,3.07,2.48,5.02,2.48c1.529,0,2.891-0.561,4.051-1.68c1.17-1.141,1.76-2.551,1.76-4.18c0-1.42-0.51-2.74-1.51-3.951
			c-0.84-1-2.021-1.619-3.51-1.84c0.068-0.789,0.229-1.48,0.469-2.061C8.629,8.389,9.1,7.689,9.66,7.17
			c0.549-0.521,1.41-0.93,2.58-1.25c1.16-0.34,2.02-1.43,2.199-2.76C14.57,2.199,14.34,1.299,13.82,0.699z M11.959,2.83
			C11.9,3.299,11.66,3.49,11.561,3.51c-1.551,0.43-2.73,1.02-3.611,1.83c-0.82,0.77-1.49,1.76-1.979,2.93
			C5.5,9.42,5.25,10.83,5.25,12.449v1.25H6.5c1.369,0,2.32,0.34,2.9,1.041c0.629,0.75,0.93,1.52,0.93,2.34
			c0,0.949-0.32,1.729-1,2.379c-0.68,0.66-1.439,0.98-2.311,0.98c-1.189,0-2.209-0.51-3.1-1.58C2.971,17.719,2.5,16.16,2.5,14.1
			c0-1.881,0.41-3.66,1.209-5.291C4.52,7.17,5.641,5.74,7.049,4.568c1.201-1,3.102-1.779,4.922-2.02
			C11.98,2.619,11.971,2.719,11.959,2.83z"/>
	</g>
	<g>
		<path fill="#818181" d="M27.41,0.709C27.01,0.25,26.48,0,25.83,0c-0.051,0.01-0.109,0.01-0.16,0.02l-0.141,0.02
			c-2.379,0.25-4.869,1.25-6.5,2.621c-1.67,1.389-3.01,3.09-3.969,5.049C14.08,9.68,13.59,11.83,13.59,14.1
			c0,2.641,0.67,4.779,2,6.369c1.381,1.641,3.07,2.48,5.01,2.48h0.01c1.531,0,2.891-0.57,4.051-1.689
			c1.17-1.141,1.76-2.551,1.76-4.18c0-1.41-0.51-2.74-1.52-3.951c-0.84-1-2.01-1.609-3.51-1.83c0.08-0.799,0.238-1.49,0.479-2.059
			c0.352-0.852,0.811-1.551,1.371-2.07c0.559-0.51,1.42-0.93,2.59-1.25c1.16-0.34,2.02-1.42,2.189-2.76
			C28.15,2.199,27.93,1.299,27.41,0.709z M25.549,2.83C25.48,3.299,25.24,3.49,25.15,3.52c-1.561,0.42-2.74,1.01-3.611,1.82
			c-0.818,0.77-1.49,1.76-1.979,2.939c-0.48,1.15-0.721,2.551-0.721,4.18v1.25h1.25c1.369,0,2.311,0.33,2.891,1.031
			c0.629,0.75,0.939,1.52,0.939,2.34c0,0.949-0.33,1.729-1,2.379c-0.689,0.67-1.439,0.99-2.311,0.99H20.6
			c-1.189,0-2.199-0.52-3.1-1.59c-0.93-1.119-1.41-2.721-1.41-4.76c0-1.881,0.41-3.66,1.209-5.291
			c0.811-1.639,1.932-3.059,3.33-4.24c1.201-1,3.111-1.779,4.932-2.02C25.561,2.629,25.561,2.719,25.549,2.83z"/>
	</g>
</g>
</svg>
