<?xml version="1.0" encoding="utf-8"?>
<!-- Generator: Adobe Illustrator 15.0.0, SVG Export Plug-In . SVG Version: 6.00 Build 0)  -->
<!DOCTYPE svg PUBLIC "-//W3C//DTD SVG 1.1//EN" "http://www.w3.org/Graphics/SVG/1.1/DTD/svg11.dtd">
<svg version="1.1" id="Layer_1" xmlns="http://www.w3.org/2000/svg" xmlns:xlink="http://www.w3.org/1999/xlink" x="0px" y="0px"
	 width="28.604px" height="27.239px" viewBox="0 0 28.604 27.239" enable-background="new 0 0 28.604 27.239" xml:space="preserve">
<g>
	<g>
		<path fill="#818181" d="M28.352,10.969c0.43-0.42,0.299-0.84-0.301-0.93l-8.09-1.17c-0.59-0.09-1.301-0.6-1.561-1.139l-3.609-7.32
			C14.65,0.141,14.48,0,14.301,0c-0.17,0-0.35,0.141-0.48,0.41l-3.619,7.32C9.941,8.27,9.24,8.779,8.641,8.869l-8.09,1.17
			c-0.59,0.09-0.73,0.51-0.301,0.93l5.852,5.701c0.43,0.42,0.699,1.24,0.6,1.84L5.32,26.56c-0.08,0.43,0.09,0.68,0.391,0.68
			c0.109,0,0.24-0.029,0.391-0.109l7.238-3.8c0.262-0.141,0.611-0.211,0.961-0.211s0.699,0.07,0.971,0.211l7.229,3.8
			c0.15,0.08,0.281,0.109,0.4,0.109c0.301,0,0.461-0.25,0.381-0.68L21.9,18.51c-0.1-0.6,0.17-1.42,0.6-1.84L28.352,10.969z
			 M20.41,14.52c-1.148,1.109-1.74,2.92-1.469,4.49l0.539,3.141l-2.811-1.48c-0.869-0.461-1.77-0.551-2.369-0.551
			c-0.59,0-1.48,0.09-2.359,0.551l-2.82,1.48L9.66,19c0.271-1.57-0.32-3.371-1.459-4.48L5.92,12.299l3.16-0.459
			c1.57-0.23,3.111-1.35,3.82-2.779l1.4-2.852l1.41,2.84c0.699,1.441,2.24,2.561,3.82,2.791l3.16,0.459L20.41,14.52z"/>
	</g>
</g>
</svg>
