<?xml version="1.0" encoding="utf-8"?>
<!-- Generator: Adobe Illustrator 15.0.0, SVG Export Plug-In . SVG Version: 6.00 Build 0)  -->
<!DOCTYPE svg PUBLIC "-//W3C//DTD SVG 1.1//EN" "http://www.w3.org/Graphics/SVG/1.1/DTD/svg11.dtd">
<svg version="1.1" id="Layer_1" xmlns="http://www.w3.org/2000/svg" xmlns:xlink="http://www.w3.org/1999/xlink" x="0px" y="0px"
	 width="27.492px" height="27.496px" viewBox="0 0 27.492 27.496" enable-background="new 0 0 27.492 27.496" xml:space="preserve">
<g>
	<g>
		<g>
			<path fill="#818181" d="M13.746,27.496C6.166,27.496,0,21.328,0,13.748S6.166,0,13.746,0c7.582,0,13.746,6.168,13.746,13.748
				S21.328,27.496,13.746,27.496z M13.746,1.652c-6.668,0-12.094,5.426-12.094,12.096c0,6.666,5.426,12.096,12.094,12.096
				c6.672,0,12.098-5.43,12.098-12.096C25.844,7.078,20.418,1.652,13.746,1.652z"/>
		</g>
		<g>
			<g>
				<path fill="#818181" d="M5.168,18.338V9.154h3.443c0.701,0,1.266,0.094,1.688,0.281c0.422,0.184,0.758,0.471,0.998,0.857
					c0.238,0.387,0.359,0.789,0.359,1.213c0,0.391-0.109,0.762-0.32,1.107c-0.215,0.348-0.535,0.629-0.965,0.84
					c0.553,0.162,0.982,0.439,1.281,0.832c0.297,0.395,0.445,0.855,0.445,1.391c0,0.43-0.09,0.83-0.27,1.199
					c-0.18,0.371-0.406,0.656-0.676,0.855c-0.266,0.201-0.602,0.352-1.002,0.457c-0.406,0.102-0.9,0.15-1.482,0.15H5.168z
					 M6.379,13.016h1.988c0.539,0,0.926-0.035,1.156-0.105c0.312-0.094,0.543-0.246,0.703-0.459c0.152-0.213,0.234-0.48,0.234-0.803
					c0-0.305-0.074-0.574-0.219-0.805c-0.148-0.23-0.355-0.391-0.629-0.477c-0.273-0.084-0.738-0.129-1.398-0.129H6.379V13.016z
					 M6.379,17.254h2.289c0.391,0,0.664-0.012,0.824-0.043c0.281-0.051,0.516-0.135,0.703-0.25c0.191-0.117,0.344-0.287,0.465-0.51
					s0.18-0.482,0.18-0.775c0-0.34-0.086-0.637-0.262-0.893c-0.176-0.252-0.418-0.428-0.73-0.533C9.539,14.152,9.09,14.1,8.504,14.1
					H6.379V17.254z"/>
			</g>
			<g>
				<path fill="#818181" d="M16.359,18.338v-3.889L12.82,9.154h1.479l1.811,2.771c0.336,0.516,0.645,1.035,0.934,1.551
					c0.273-0.48,0.609-1.02,1-1.621l1.781-2.701h1.414l-3.664,5.295v3.889H16.359z"/>
			</g>
			<g>
				<path fill="#818181" d="M21.791,12.971v-1.283h1.283v1.283H21.791z M21.791,18.338v-1.283h1.283v1.283H21.791z"/>
			</g>
		</g>
	</g>
</g>
</svg>
