<?xml version="1.0" encoding="utf-8"?>
<!-- Generator: Adobe Illustrator 15.0.0, SVG Export Plug-In . SVG Version: 6.00 Build 0)  -->
<!DOCTYPE svg PUBLIC "-//W3C//DTD SVG 1.1//EN" "http://www.w3.org/Graphics/SVG/1.1/DTD/svg11.dtd">
<svg version="1.1" id="Layer_1" xmlns="http://www.w3.org/2000/svg" xmlns:xlink="http://www.w3.org/1999/xlink" x="0px" y="0px"
	 width="30.706px" height="23.617px" viewBox="0 0 30.706 23.617" enable-background="new 0 0 30.706 23.617" xml:space="preserve">
<g>
	<path fill="#818181" d="M0.001,22.245c0,0.619,0.43,1.17,1.029,1.319c0.121,0.03,0.23,0.05,0.351,0.05
		c0.479,0,0.95-0.26,1.19-0.689c2.74-4.79,9.779-5.5,13.74-5.5c0.459,0,0.869,0.01,1.209,0.02v4.79c0,0.561,0.34,1.061,0.851,1.28
		c0.521,0.21,1.11,0.09,1.5-0.3c0,0,10-10,10.42-10.42c0.069-0.07,0.13-0.141,0.18-0.22c0.37-0.551,0.3-1.28-0.17-1.74L19.871,0.404
		c-0.39-0.399-0.99-0.51-1.5-0.3c-0.511,0.21-0.851,0.71-0.851,1.271v4.739c-5.439,0.23-9.74,1.921-12.819,5
		C0.03,15.805,0.001,21.984,0.001,22.245z M3.621,17.875c1.43-3.92,5.22-9.04,15.28-9.04c0.76,0,1.379-0.61,1.379-1.38v-2.75
		l7.101,7.1l-7.101,7.11v-2.761c0-0.699-0.529-1.29-1.229-1.369c-0.05,0-1.12-0.12-2.739-0.12
		C12.931,14.665,7.562,15.165,3.621,17.875z"/>
</g>
</svg>
