<?xml version="1.0" encoding="utf-8"?>
<!-- Generator: Adobe Illustrator 15.0.0, SVG Export Plug-In . SVG Version: 6.00 Build 0)  -->
<!DOCTYPE svg PUBLIC "-//W3C//DTD SVG 1.1//EN" "http://www.w3.org/Graphics/SVG/1.1/DTD/svg11.dtd">
<svg version="1.1" id="Layer_1" xmlns="http://www.w3.org/2000/svg" xmlns:xlink="http://www.w3.org/1999/xlink" x="0px" y="0px"
	 width="26.973px" height="26.97px" viewBox="0 0 26.973 26.97" enable-background="new 0 0 26.973 26.97" xml:space="preserve">
<g>
	<path fill="#818181" d="M26.32,23.131l-6.451-6.451c-0.08-0.08-0.16-0.141-0.24-0.189c1.092-1.68,1.73-3.67,1.73-5.82
		C21.359,4.77,16.58,0,10.68,0S0,4.77,0,10.67s4.779,10.68,10.68,10.68c2.141,0,4.141-0.639,5.811-1.73
		c0.061,0.08,0.119,0.16,0.189,0.23l6.461,6.46c0.439,0.441,1.01,0.66,1.59,0.66c0.57,0,1.148-0.219,1.59-0.66
		C27.189,25.439,27.189,24.01,26.32,23.131z M10.68,17.98c-4.029,0-7.311-3.281-7.311-7.311S6.65,3.369,10.68,3.369
		s7.301,3.271,7.301,7.301S14.709,17.98,10.68,17.98z"/>
</g>
</svg>
