<?xml version="1.0" encoding="utf-8"?>
<!-- Generator: Adobe Illustrator 15.0.0, SVG Export Plug-In . SVG Version: 6.00 Build 0)  -->
<!DOCTYPE svg PUBLIC "-//W3C//DTD SVG 1.1//EN" "http://www.w3.org/Graphics/SVG/1.1/DTD/svg11.dtd">
<svg version="1.1" id="Layer_1" xmlns="http://www.w3.org/2000/svg" xmlns:xlink="http://www.w3.org/1999/xlink" x="0px" y="0px"
	 width="28.07px" height="28.07px" viewBox="0 0 28.07 28.07" enable-background="new 0 0 28.07 28.07" xml:space="preserve">
<g>
	<g>
		<g>
			<g>
				<path fill="#818181" d="M14.04,0C6.29,0,0,6.281,0,14.031S6.29,28.07,14.04,28.07s14.03-6.289,14.03-14.039S21.79,0,14.04,0z
					 M14.04,25.57c-6.36,0-11.54-5.18-11.54-11.539C2.5,7.67,7.68,2.5,14.04,2.5s11.53,5.17,11.53,11.531
					C25.57,20.391,20.4,25.57,14.04,25.57z"/>
			</g>
		</g>
	</g>
	<g>
		<g>
			<path fill="#818181" d="M22.221,9.65c0,0.42-0.17,0.82-0.471,1.121l-9.27,9.27c-0.291,0.289-0.7,0.459-1.11,0.459
				c-0.42,0-0.819-0.17-1.12-0.459l-4.51-4.51C5.439,15.23,5.28,14.83,5.28,14.41s0.159-0.82,0.46-1.119c0.6-0.6,1.64-0.6,2.23,0
				l3.399,3.391l8.149-8.15c0.601-0.59,1.641-0.59,2.23,0C22.051,8.83,22.221,9.23,22.221,9.65z"/>
		</g>
	</g>
</g>
</svg>
