<?xml version="1.0" encoding="utf-8"?>
<!-- Generator: Adobe Illustrator 15.0.0, SVG Export Plug-In . SVG Version: 6.00 Build 0)  -->
<!DOCTYPE svg PUBLIC "-//W3C//DTD SVG 1.1//EN" "http://www.w3.org/Graphics/SVG/1.1/DTD/svg11.dtd">
<svg version="1.1" id="Layer_1" xmlns="http://www.w3.org/2000/svg" xmlns:xlink="http://www.w3.org/1999/xlink" x="0px" y="0px"
	 width="25.68px" height="28.43px" viewBox="0 0 25.68 28.43" enable-background="new 0 0 25.68 28.43" xml:space="preserve">
<g>
	<g>
		<g>
			<g>
				<path fill="#818181" d="M23.819,18.161c-0.199-0.75-0.979-1.189-1.729-0.99c-0.761,0.201-1.21,0.971-1.011,1.721l0.98,3.6
					L9.61,15.282c0.049-0.281,0.08-0.57,0.08-0.861c0-0.43-0.051-0.84-0.16-1.229l12.529-7.25l-0.98,3.6
					c-0.199,0.75,0.25,1.52,1.011,1.719c0.75,0.201,1.53-0.25,1.729-0.99l1.811-6.709c0.1-0.35,0.05-0.74-0.141-1.061
					c-0.189-0.33-0.5-0.559-0.859-0.66l-6.75-1.789c-0.76-0.211-1.54,0.24-1.74,0.99c-0.199,0.75,0.25,1.52,1,1.719l3.12,0.83
					l0.11,0.121L8.079,10.821C7.22,10.042,6.09,9.571,4.84,9.571c-2.681,0-4.84,2.17-4.84,4.85c0,2.67,2.159,4.85,4.84,4.85
					c1.38,0,2.63-0.578,3.51-1.51l12.011,6.951l-0.101,0.119l-3.12,0.84c-0.75,0.201-1.199,0.97-1,1.71c0.2,0.76,0.98,1.201,1.74,1
					l6.75-1.799c0.359-0.09,0.67-0.33,0.859-0.651c0.19-0.318,0.24-0.709,0.141-1.068L23.819,18.161z M6.62,14.872
					c-0.131,0.58-0.541,1.039-1.08,1.26c-0.221,0.09-0.45,0.139-0.7,0.139c-1.021,0-1.84-0.828-1.84-1.85
					c0-1.02,0.819-1.85,1.84-1.85c0.069,0,0.13,0,0.19,0.02c0.56,0.051,1.049,0.361,1.35,0.811c0.199,0.291,0.311,0.641,0.311,1.02
					C6.69,14.581,6.67,14.731,6.62,14.872z"/>
			</g>
		</g>
	</g>
</g>
</svg>
