<?xml version="1.0" encoding="utf-8"?>
<!-- Generator: Adobe Illustrator 15.0.0, SVG Export Plug-In . SVG Version: 6.00 Build 0)  -->
<!DOCTYPE svg PUBLIC "-//W3C//DTD SVG 1.1//EN" "http://www.w3.org/Graphics/SVG/1.1/DTD/svg11.dtd">
<svg version="1.1" id="Layer_1" xmlns="http://www.w3.org/2000/svg" xmlns:xlink="http://www.w3.org/1999/xlink" x="0px" y="0px"
	 width="30.516px" height="23.635px" viewBox="0 0 30.516 23.635" enable-background="new 0 0 30.516 23.635" xml:space="preserve">
<g>
	<g>
		<g>
			<path fill="#818181" d="M24.377,22.592c-0.31,0.002-0.61-0.143-0.8-0.414c-0.311-0.439-0.205-1.047,0.234-1.36
				c2.98-2.095,4.758-5.519,4.754-9.151c-0.005-3.574-1.741-6.963-4.646-9.063c-0.438-0.316-0.534-0.927-0.219-1.364
				c0.315-0.434,0.926-0.533,1.363-0.217c3.407,2.467,5.447,6.445,5.452,10.643c0.005,4.268-2.081,8.29-5.58,10.752
				C24.765,22.534,24.569,22.592,24.377,22.592z"/>
		</g>
	</g>
	<g>
		<g>
			<path fill="#818181" d="M21.629,18.738c-0.311,0-0.617-0.147-0.806-0.424c-0.306-0.442-0.195-1.049,0.248-1.355
				c1.733-1.197,2.766-3.176,2.764-5.287c-0.003-2.056-0.996-4.003-2.656-5.206c-0.436-0.317-0.533-0.926-0.217-1.364
				c0.317-0.437,0.926-0.533,1.362-0.216c2.165,1.571,3.458,4.104,3.462,6.783c0.003,2.755-1.344,5.335-3.605,6.896
				C22.011,18.68,21.818,18.736,21.629,18.738z"/>
		</g>
	</g>
	<g>
		<path fill="#818181" d="M18.228,0.545c0-0.361-0.14-0.545-0.353-0.545c-0.12,0-0.259,0.064-0.415,0.194L9.108,7.592L2.034,7.601
			C0.915,7.601-0.009,8.516,0,9.645v4.401c0,1.118,0.925,2.043,2.045,2.043l7.083-0.009l8.358,7.36
			c0.157,0.14,0.296,0.194,0.417,0.194c0.212,0,0.352-0.186,0.352-0.536L18.228,0.545z M10.958,14l-0.786-0.693H2.774v-2.932
			l6.334-0.009h1.045l0.786-0.704l4.522-3.994l0.01,12.299L10.958,14z"/>
	</g>
</g>
</svg>
