<?xml version="1.0" encoding="utf-8"?>
<!-- Generator: Adobe Illustrator 15.0.0, SVG Export Plug-In . SVG Version: 6.00 Build 0)  -->
<!DOCTYPE svg PUBLIC "-//W3C//DTD SVG 1.1//EN" "http://www.w3.org/Graphics/SVG/1.1/DTD/svg11.dtd">
<svg version="1.1" id="Layer_1" xmlns="http://www.w3.org/2000/svg" xmlns:xlink="http://www.w3.org/1999/xlink" x="0px" y="0px"
	 width="19.305px" height="25.812px" viewBox="0 0 19.305 25.812" enable-background="new 0 0 19.305 25.812" xml:space="preserve">
<g>
	<g id="QbVash.tif_2_">
		<g>
			<g>
				<path fill="#1D69B2" d="M5.492,0.008c0.018,0,0.032,0,0.051,0c0.135,2.418,0.149,4.955,0.252,7.408
					C5.008,7.9,4.102,8.791,4.484,10.34c0.211,0.853,0.834,1.707,1.261,2.57c0.812,1.643,1.635,3.217,2.621,4.939
					c0.436,0.76,1.073,1.821,1.813,1.965c0.771,0.147,1.91-0.369,2.307-0.556c2.029,1.5,3.466,3.304,5.455,4.839
					c-1.149,0.799-2.619,1.278-4.133,1.715c-0.555,0-1.108,0-1.662,0c-3.924-0.929-6.639-4.447-8.67-7.359
					C1.221,15.223,0.203,11.094,0,6.207c0-0.555,0-1.108,0-1.664C0.391,1.592,2.486,0.344,5.492,0.008z"/>
			</g>
		</g>
	</g>
	<g>
		<path fill="#1D69B2" d="M5.912,0.008l0.272,7.361c0,0,1.793,0.109,2.289-0.873C8.97,5.514,8.63,1.873,8.63,1.873
			S8.605-0.145,5.912,0.008z"/>
	</g>
	<g>
		<path fill="#1D69B2" d="M12.848,18.869l5.4,5.014c0,0,1.344-1.19,1-2.235c-0.345-1.047-3.16-3.381-3.16-3.381
			S14.645,16.859,12.848,18.869z"/>
	</g>
</g>
</svg>
