<?xml version="1.0" encoding="utf-8"?>
<!-- Generator: Adobe Illustrator 15.0.0, SVG Export Plug-In . SVG Version: 6.00 Build 0)  -->
<!DOCTYPE svg PUBLIC "-//W3C//DTD SVG 1.1//EN" "http://www.w3.org/Graphics/SVG/1.1/DTD/svg11.dtd">
<svg version="1.1" id="Layer_1" xmlns="http://www.w3.org/2000/svg" xmlns:xlink="http://www.w3.org/1999/xlink" x="0px" y="0px"
	 width="28.059px" height="28.07px" viewBox="0 0 28.059 28.07" enable-background="new 0 0 28.059 28.07" xml:space="preserve">
<g>
	<path fill-rule="evenodd" clip-rule="evenodd" fill="#818181" d="M20.133,19.545c0,1.088-0.881,1.969-1.969,1.969h-5.007
		c-2.888-0.074-4.294-1.912-4.294-4.416c0.01-0.029,0.01-0.047,0.01-0.076V8.525c0-1.078,0.881-1.969,1.968-1.969
		c1.079,0,1.97,0.891,1.97,1.969v1.922h5.354c1.088,0,1.969,0.893,1.969,1.971c0,1.088-0.881,1.971-1.969,1.971h-5.354v2.84
		c0,0.225,0.065,0.355,0.271,0.355h5.082C19.252,17.584,20.133,18.467,20.133,19.545z"/>
	<path fill="#818181" d="M14.039,2.5c6.352,0,11.52,5.178,11.52,11.541c0,2.562-0.817,4.982-2.366,7.002
		c-2.199,2.877-5.535,4.527-9.153,4.527c-3.624,0-6.964-1.65-9.169-4.537c-1.551-2.01-2.37-4.428-2.37-6.992
		C2.5,7.678,7.677,2.5,14.039,2.5 M14.039,0C6.28,0,0,6.291,0,14.041c0,3.199,1.07,6.16,2.891,8.52c2.56,3.35,6.6,5.51,11.148,5.51
		c4.53,0,8.58-2.16,11.14-5.51c1.81-2.359,2.88-5.32,2.88-8.52C28.059,6.291,21.789,0,14.039,0L14.039,0z"/>
</g>
</svg>
