<?xml version="1.0" encoding="utf-8"?>
<!-- Generator: Adobe Illustrator 15.0.0, SVG Export Plug-In . SVG Version: 6.00 Build 0)  -->
<!DOCTYPE svg PUBLIC "-//W3C//DTD SVG 1.1//EN" "http://www.w3.org/Graphics/SVG/1.1/DTD/svg11.dtd">
<svg version="1.1" id="Layer_1" xmlns="http://www.w3.org/2000/svg" xmlns:xlink="http://www.w3.org/1999/xlink" x="0px" y="0px"
	 width="30.706px" height="23.617px" viewBox="0 0 30.706 23.617" enable-background="new 0 0 30.706 23.617" xml:space="preserve">
<g>
	<path fill="#818181" d="M26.006,11.114c-3.079-3.079-7.38-4.77-12.819-5V1.375c0-0.561-0.34-1.061-0.851-1.271
		c-0.51-0.21-1.11-0.1-1.5,0.3L0.406,10.835c-0.47,0.46-0.54,1.189-0.17,1.74c0.05,0.079,0.11,0.149,0.18,0.22
		c0.42,0.42,10.42,10.42,10.42,10.42c0.39,0.39,0.979,0.51,1.5,0.3c0.511-0.22,0.851-0.72,0.851-1.28v-4.79
		c0.34-0.01,0.75-0.02,1.209-0.02c3.961,0,11,0.71,13.74,5.5c0.24,0.43,0.711,0.689,1.19,0.689c0.12,0,0.229-0.02,0.351-0.05
		c0.6-0.149,1.029-0.7,1.029-1.319C30.706,21.984,30.677,15.805,26.006,11.114z M14.396,14.665c-1.619,0-2.689,0.12-2.739,0.12
		c-0.7,0.079-1.229,0.67-1.229,1.369v2.761l-7.101-7.11l7.101-7.1v2.75c0,0.77,0.619,1.38,1.379,1.38
		c10.061,0,13.851,5.12,15.28,9.04C23.146,15.165,17.776,14.665,14.396,14.665z"/>
</g>
</svg>
