<?xml version="1.0" encoding="utf-8"?>
<!-- Generator: Adobe Illustrator 15.0.2, SVG Export Plug-In . SVG Version: 6.00 Build 0)  -->
<!DOCTYPE svg PUBLIC "-//W3C//DTD SVG 1.1//EN" "http://www.w3.org/Graphics/SVG/1.1/DTD/svg11.dtd">
<svg version="1.1" id="Layer_1" xmlns="http://www.w3.org/2000/svg" xmlns:xlink="http://www.w3.org/1999/xlink" x="0px" y="0px"
	 width="24.476px" height="22.465px" viewBox="0 -0.935 24.476 22.465" enable-background="new 0 -0.935 24.476 22.465"
	 xml:space="preserve">
<g>
	<g>
		<path fill="#808080" d="M1.5,2.065h19.352c0.828,0,1.5-0.672,1.5-1.5s-0.672-1.5-1.5-1.5H1.5c-0.828,0-1.5,0.672-1.5,1.5
			S0.672,2.065,1.5,2.065z"/>
	</g>
	<g>
		<g>
			<path fill="#808080" d="M1.5,8.522h12.477c0.828,0,1.5-0.672,1.5-1.5s-0.672-1.5-1.5-1.5H1.5c-0.828,0-1.5,0.672-1.5,1.5
				S0.672,8.522,1.5,8.522z"/>
		</g>
		<g>
			<path fill="#808080" d="M1.5,14.979h12.477c0.828,0,1.5-0.672,1.5-1.5s-0.672-1.5-1.5-1.5H1.5c-0.828,0-1.5,0.672-1.5,1.5
				S0.672,14.979,1.5,14.979z"/>
		</g>
	</g>
	<g>
		<path fill="#808080" d="M1.5,21.437h19.352c0.828,0,1.5-0.672,1.5-1.5s-0.672-1.5-1.5-1.5H1.5c-0.828,0-1.5,0.672-1.5,1.5
			S0.672,21.437,1.5,21.437z"/>
	</g>
	<g>
		<path fill="#808080" d="M23.012,16.726c0.384,0,0.768-0.146,1.061-0.439c0.586-0.586,0.586-1.535,0-2.121L20.1,10.192l3.973-3.973
			c0.586-0.586,0.586-1.535,0-2.121s-1.535-0.586-2.121,0l-5.033,5.033c-0.586,0.586-0.586,1.535,0,2.121l5.033,5.033
			C22.244,16.579,22.628,16.726,23.012,16.726z"/>
	</g>
</g>
</svg>
