<?xml version="1.0" encoding="utf-8"?>
<!-- Generator: Adobe Illustrator 15.0.0, SVG Export Plug-In . SVG Version: 6.00 Build 0)  -->
<!DOCTYPE svg PUBLIC "-//W3C//DTD SVG 1.1//EN" "http://www.w3.org/Graphics/SVG/1.1/DTD/svg11.dtd">
<svg version="1.1" id="Layer_1" xmlns="http://www.w3.org/2000/svg" xmlns:xlink="http://www.w3.org/1999/xlink" x="0px" y="0px"
	 width="14.338px" height="14.348px" viewBox="0 0 14.338 14.348" enable-background="new 0 0 14.338 14.348" xml:space="preserve">
<g>
	<g>
		<g>
			<g>
				<path fill="#818181" d="M14.045,11.684l-2.03,2.05l-0.33,0.33c-0.39,0.38-1.02,0.38-1.41-0.01l-2.439-2.44l-0.71-0.71l-0.7,0.7
					l-2.37,2.38c-0.39,0.38-1.021,0.38-1.399-0.01l-2.4-2.4c-0.34-0.38-0.34-0.96,0-1.34l2.391-2.4l0.709-0.71l-0.709-0.7
					L0.255,4.023c-0.35-0.391-0.34-0.99,0.029-1.37l2.361-2.36c0.389-0.39,1.02-0.39,1.409,0l2.44,2.431l0.63,0.63l0.649-0.65
					l2.42-2.41c0.391-0.39,1.031-0.39,1.42,0l2.361,2.36c0.389,0.39,0.389,1.01,0.01,1.4l-2.371,2.369l-0.709,0.7l0.709,0.71
					l2.431,2.44C14.435,10.663,14.435,11.293,14.045,11.684z"/>
			</g>
		</g>
	</g>
</g>
</svg>
